<?xml version="1.0" encoding="UTF-8" standalone="no"?>
<!DOCTYPE svg PUBLIC "-//W3C//DTD SVG 1.1//EN"
 "http://www.w3.org/Graphics/SVG/1.1/DTD/svg11.dtd">
<!-- Generated by graphviz version 9.0.0 (20230911.1827)
 -->
<!-- Title: callgraph Pages: 1 -->
<svg width="2827pt" height="487pt"
 viewBox="0.00 0.00 2827.16 487.00" xmlns="http://www.w3.org/2000/svg" xmlns:xlink="http://www.w3.org/1999/xlink">
<g id="graph0" class="graph" transform="scale(1 1) rotate(0) translate(4 483)">
<title>callgraph</title>
<polygon fill="white" stroke="none" points="-4,4 -4,-483 2823.16,-483 2823.16,4 -4,4"/>
<!-- reclaimer_offset -->
<g id="node1" class="node">
<title>reclaimer_offset</title>
<ellipse fill="blue" stroke="blue" cx="2727.45" cy="-234" rx="91.72" ry="18"/>
<text text-anchor="middle" x="2727.45" y="-229.32" font-family="Times,serif" font-size="14.00">reclaimer_offset</text>
</g>
<!-- madvise_cold_or_pageout_pte_range -->
<g id="node2" class="node">
<title>madvise_cold_or_pageout_pte_range</title>
<ellipse fill="none" stroke="black" cx="1311.96" cy="-407" rx="193.26" ry="18"/>
<text text-anchor="middle" x="1311.96" y="-402.32" font-family="Times,serif" font-size="14.00">madvise_cold_or_pageout_pte_range</text>
</g>
<!-- reclaim_pages -->
<g id="node3" class="node">
<title>reclaim_pages</title>
<ellipse fill="none" stroke="black" cx="1698.7" cy="-407" rx="82.77" ry="18"/>
<text text-anchor="middle" x="1698.7" y="-402.32" font-family="Times,serif" font-size="14.00">reclaim_pages</text>
</g>
<!-- madvise_cold_or_pageout_pte_range&#45;&gt;reclaim_pages -->
<g id="edge1" class="edge">
<title>madvise_cold_or_pageout_pte_range&#45;&gt;reclaim_pages</title>
<path fill="none" stroke="black" d="M1505.62,-407C1540.06,-407 1574.5,-407 1604.51,-407"/>
<polygon fill="black" stroke="black" points="1604.27,-410.5 1614.27,-407 1604.27,-403.5 1604.27,-410.5"/>
</g>
<!-- reclaim_folio_list -->
<g id="node4" class="node">
<title>reclaim_folio_list</title>
<ellipse fill="none" stroke="black" cx="2054.93" cy="-388" rx="95.4" ry="18"/>
<text text-anchor="middle" x="2054.93" y="-383.32" font-family="Times,serif" font-size="14.00">reclaim_folio_list</text>
</g>
<!-- reclaim_pages&#45;&gt;reclaim_folio_list -->
<g id="edge2" class="edge">
<title>reclaim_pages&#45;&gt;reclaim_folio_list</title>
<path fill="none" stroke="black" d="M1779.64,-402.71C1830.41,-399.99 1896.61,-396.44 1951.25,-393.51"/>
<polygon fill="black" stroke="black" points="1951.42,-397 1961.21,-392.97 1951.04,-390.01 1951.42,-397"/>
</g>
<!-- shrink_folio_list -->
<g id="node5" class="node">
<title>shrink_folio_list</title>
<ellipse fill="none" stroke="black" cx="2343.29" cy="-303" rx="89.61" ry="18"/>
<text text-anchor="middle" x="2343.29" y="-298.32" font-family="Times,serif" font-size="14.00">shrink_folio_list</text>
</g>
<!-- reclaim_folio_list&#45;&gt;shrink_folio_list -->
<g id="edge3" class="edge">
<title>reclaim_folio_list&#45;&gt;shrink_folio_list</title>
<path fill="none" stroke="black" d="M2107.79,-372.61C2156.44,-358.17 2229.23,-336.56 2280.79,-321.25"/>
<polygon fill="black" stroke="black" points="2281.74,-324.62 2290.33,-318.42 2279.74,-317.91 2281.74,-324.62"/>
</g>
<!-- shrink_folio_list&#45;&gt;reclaimer_offset -->
<g id="edge4" class="edge">
<title>shrink_folio_list&#45;&gt;reclaimer_offset</title>
<path fill="none" stroke="black" d="M2426.51,-296.06C2476.85,-290.98 2542.4,-282.88 2599.73,-271 2622.47,-266.29 2647.06,-259.51 2668.48,-253.04"/>
<polygon fill="black" stroke="black" points="2669.38,-256.42 2677.91,-250.14 2667.33,-249.73 2669.38,-256.42"/>
</g>
<!-- damon_pa_apply_scheme -->
<g id="node6" class="node">
<title>damon_pa_apply_scheme</title>
<ellipse fill="none" stroke="black" cx="946.27" cy="-461" rx="136.44" ry="18"/>
<text text-anchor="middle" x="946.27" y="-456.32" font-family="Times,serif" font-size="14.00">damon_pa_apply_scheme</text>
</g>
<!-- damon_pa_pageout -->
<g id="node7" class="node">
<title>damon_pa_pageout</title>
<ellipse fill="none" stroke="black" cx="1311.96" cy="-461" rx="106.98" ry="18"/>
<text text-anchor="middle" x="1311.96" y="-456.32" font-family="Times,serif" font-size="14.00">damon_pa_pageout</text>
</g>
<!-- damon_pa_apply_scheme&#45;&gt;damon_pa_pageout -->
<g id="edge5" class="edge">
<title>damon_pa_apply_scheme&#45;&gt;damon_pa_pageout</title>
<path fill="none" stroke="black" d="M1082.95,-461C1119.2,-461 1158.07,-461 1193.26,-461"/>
<polygon fill="black" stroke="black" points="1193.04,-464.5 1203.04,-461 1193.04,-457.5 1193.04,-464.5"/>
</g>
<!-- damon_pa_pageout&#45;&gt;reclaim_pages -->
<g id="edge6" class="edge">
<title>damon_pa_pageout&#45;&gt;reclaim_pages</title>
<path fill="none" stroke="black" d="M1395.5,-449.42C1461.04,-440.22 1552.16,-427.43 1617.17,-418.3"/>
<polygon fill="black" stroke="black" points="1617.26,-421.82 1626.68,-416.97 1616.29,-414.89 1617.26,-421.82"/>
</g>
<!-- shrink_node_memcgs -->
<g id="node8" class="node">
<title>shrink_node_memcgs</title>
<ellipse fill="none" stroke="red" cx="633.18" cy="-257" rx="118.02" ry="18"/>
<text text-anchor="middle" x="633.18" y="-252.32" font-family="Times,serif" font-size="14.00">shrink_node_memcgs</text>
</g>
<!-- shrink_lruvec -->
<g id="node9" class="node">
<title>shrink_lruvec</title>
<ellipse fill="none" stroke="black" cx="946.27" cy="-257" rx="78.57" ry="18"/>
<text text-anchor="middle" x="946.27" y="-252.32" font-family="Times,serif" font-size="14.00">shrink_lruvec</text>
</g>
<!-- shrink_node_memcgs&#45;&gt;shrink_lruvec -->
<g id="edge7" class="edge">
<title>shrink_node_memcgs&#45;&gt;shrink_lruvec</title>
<path fill="none" stroke="black" d="M751.35,-257C786.01,-257 823.39,-257 855.99,-257"/>
<polygon fill="black" stroke="black" points="855.8,-260.5 865.8,-257 855.8,-253.5 855.8,-260.5"/>
</g>
<!-- lru_gen_shrink_lruvec -->
<g id="node10" class="node">
<title>lru_gen_shrink_lruvec</title>
<ellipse fill="none" stroke="black" cx="1311.96" cy="-209" rx="120.65" ry="18"/>
<text text-anchor="middle" x="1311.96" y="-204.32" font-family="Times,serif" font-size="14.00">lru_gen_shrink_lruvec</text>
</g>
<!-- shrink_lruvec&#45;&gt;lru_gen_shrink_lruvec -->
<g id="edge8" class="edge">
<title>shrink_lruvec&#45;&gt;lru_gen_shrink_lruvec</title>
<path fill="none" stroke="black" d="M1015.25,-248.03C1069.64,-240.85 1146.77,-230.67 1208.62,-222.51"/>
<polygon fill="black" stroke="black" points="1209.02,-225.98 1218.48,-221.21 1208.1,-219.04 1209.02,-225.98"/>
</g>
<!-- shrink_inactive_list -->
<g id="node22" class="node">
<title>shrink_inactive_list</title>
<ellipse fill="none" stroke="black" cx="2054.93" cy="-257" rx="107.5" ry="18"/>
<text text-anchor="middle" x="2054.93" y="-252.32" font-family="Times,serif" font-size="14.00">shrink_inactive_list</text>
</g>
<!-- shrink_lruvec&#45;&gt;shrink_inactive_list -->
<g id="edge22" class="edge">
<title>shrink_lruvec&#45;&gt;shrink_inactive_list</title>
<path fill="none" stroke="black" d="M1025.09,-257C1216.08,-257 1708.89,-257 1936.06,-257"/>
<polygon fill="black" stroke="black" points="1935.82,-260.5 1945.82,-257 1935.82,-253.5 1935.82,-260.5"/>
</g>
<!-- try_to_shrink_lruvec -->
<g id="node11" class="node">
<title>try_to_shrink_lruvec</title>
<ellipse fill="none" stroke="black" cx="1698.7" cy="-130" rx="112.76" ry="18"/>
<text text-anchor="middle" x="1698.7" y="-125.33" font-family="Times,serif" font-size="14.00">try_to_shrink_lruvec</text>
</g>
<!-- lru_gen_shrink_lruvec&#45;&gt;try_to_shrink_lruvec -->
<g id="edge9" class="edge">
<title>lru_gen_shrink_lruvec&#45;&gt;try_to_shrink_lruvec</title>
<path fill="none" stroke="black" d="M1415.5,-199.59C1445.03,-194.99 1476.89,-188.15 1505.22,-178 1522.66,-171.75 1523.82,-163.34 1541.22,-157 1557.95,-150.9 1576.2,-146.16 1594.14,-142.49"/>
<polygon fill="black" stroke="black" points="1594.62,-145.96 1603.77,-140.62 1593.28,-139.09 1594.62,-145.96"/>
</g>
<!-- evict_folios -->
<g id="node12" class="node">
<title>evict_folios</title>
<ellipse fill="none" stroke="black" cx="2054.93" cy="-184" rx="66.99" ry="18"/>
<text text-anchor="middle" x="2054.93" y="-179.32" font-family="Times,serif" font-size="14.00">evict_folios</text>
</g>
<!-- try_to_shrink_lruvec&#45;&gt;evict_folios -->
<g id="edge10" class="edge">
<title>try_to_shrink_lruvec&#45;&gt;evict_folios</title>
<path fill="none" stroke="black" d="M1781.86,-142.52C1843.37,-151.9 1926.56,-164.58 1984.7,-173.45"/>
<polygon fill="black" stroke="black" points="1984.07,-176.89 1994.49,-174.94 1985.13,-169.97 1984.07,-176.89"/>
</g>
<!-- evict_folios&#45;&gt;reclaimer_offset -->
<g id="edge40" class="edge">
<title>evict_folios&#45;&gt;reclaimer_offset</title>
<path fill="none" stroke="black" d="M2116.57,-176.68C2217.76,-166.1 2426.99,-151.15 2599.73,-184 2628.57,-189.48 2659.23,-201.41 2683.17,-212.23"/>
<polygon fill="black" stroke="black" points="2681.41,-215.27 2691.96,-216.31 2684.36,-208.92 2681.41,-215.27"/>
</g>
<!-- evict_folios&#45;&gt;shrink_folio_list -->
<g id="edge11" class="edge">
<title>evict_folios&#45;&gt;shrink_folio_list</title>
<path fill="none" stroke="black" d="M2108.07,-195.27C2140.34,-203.11 2182.23,-214.87 2217.67,-230 2249.49,-243.58 2283.21,-263.73 2307.54,-279.42"/>
<polygon fill="black" stroke="black" points="2305.48,-282.26 2315.77,-284.8 2309.31,-276.4 2305.48,-282.26"/>
</g>
<!-- isolate_folios -->
<g id="node34" class="node">
<title>isolate_folios</title>
<ellipse fill="none" stroke="black" cx="2343.29" cy="-211" rx="75.94" ry="18"/>
<text text-anchor="middle" x="2343.29" y="-206.32" font-family="Times,serif" font-size="14.00">isolate_folios</text>
</g>
<!-- evict_folios&#45;&gt;isolate_folios -->
<g id="edge37" class="edge">
<title>evict_folios&#45;&gt;isolate_folios</title>
<path fill="none" stroke="black" d="M2118.77,-189.93C2160.51,-193.86 2215.71,-199.07 2260.82,-203.32"/>
<polygon fill="black" stroke="black" points="2260.26,-206.78 2270.54,-204.24 2260.92,-199.81 2260.26,-206.78"/>
</g>
<!-- mem_cgroup_shrink_node -->
<g id="node13" class="node">
<title>mem_cgroup_shrink_node</title>
<ellipse fill="none" stroke="red" cx="633.18" cy="-203" rx="140.65" ry="18"/>
<text text-anchor="middle" x="633.18" y="-198.32" font-family="Times,serif" font-size="14.00">mem_cgroup_shrink_node</text>
</g>
<!-- mem_cgroup_shrink_node&#45;&gt;shrink_lruvec -->
<g id="edge12" class="edge">
<title>mem_cgroup_shrink_node&#45;&gt;shrink_lruvec</title>
<path fill="none" stroke="black" d="M718.78,-217.68C766.65,-225.99 825.93,-236.28 871.83,-244.25"/>
<polygon fill="black" stroke="black" points="870.96,-247.65 881.41,-245.91 872.15,-240.76 870.96,-247.65"/>
</g>
<!-- lru_gen_shrink_node -->
<g id="node14" class="node">
<title>lru_gen_shrink_node</title>
<ellipse fill="none" stroke="red" cx="633.18" cy="-18" rx="113.82" ry="18"/>
<text text-anchor="middle" x="633.18" y="-13.32" font-family="Times,serif" font-size="14.00">lru_gen_shrink_node</text>
</g>
<!-- shrink_many -->
<g id="node15" class="node">
<title>shrink_many</title>
<ellipse fill="none" stroke="black" cx="946.27" cy="-41" rx="74.88" ry="18"/>
<text text-anchor="middle" x="946.27" y="-36.33" font-family="Times,serif" font-size="14.00">shrink_many</text>
</g>
<!-- lru_gen_shrink_node&#45;&gt;shrink_many -->
<g id="edge13" class="edge">
<title>lru_gen_shrink_node&#45;&gt;shrink_many</title>
<path fill="none" stroke="black" d="M736.91,-25.59C777.82,-28.62 824.27,-32.05 862.91,-34.91"/>
<polygon fill="black" stroke="black" points="862.37,-38.38 872.6,-35.63 862.89,-31.4 862.37,-38.38"/>
</g>
<!-- shrink_one -->
<g id="node16" class="node">
<title>shrink_one</title>
<ellipse fill="none" stroke="black" cx="1311.96" cy="-41" rx="65.41" ry="18"/>
<text text-anchor="middle" x="1311.96" y="-36.33" font-family="Times,serif" font-size="14.00">shrink_one</text>
</g>
<!-- lru_gen_shrink_node&#45;&gt;shrink_one -->
<g id="edge16" class="edge">
<title>lru_gen_shrink_node&#45;&gt;shrink_one</title>
<path fill="none" stroke="black" d="M745.68,-15.08C766.98,-14.63 789.09,-14.24 809.83,-14 931.1,-12.62 961.64,-6.86 1082.71,-14 1136.69,-17.18 1197.48,-24.56 1242.75,-30.8"/>
<polygon fill="black" stroke="black" points="1242.02,-34.23 1252.41,-32.15 1242.99,-27.3 1242.02,-34.23"/>
</g>
<!-- shrink_many&#45;&gt;shrink_one -->
<g id="edge14" class="edge">
<title>shrink_many&#45;&gt;shrink_one</title>
<path fill="none" stroke="black" d="M1021.31,-41C1083.48,-41 1171.98,-41 1234.76,-41"/>
<polygon fill="black" stroke="black" points="1234.65,-44.5 1244.65,-41 1234.65,-37.5 1234.65,-44.5"/>
</g>
<!-- shrink_one&#45;&gt;try_to_shrink_lruvec -->
<g id="edge15" class="edge">
<title>shrink_one&#45;&gt;try_to_shrink_lruvec</title>
<path fill="none" stroke="black" d="M1362.87,-52.54C1428.66,-67.76 1545.03,-94.68 1621.77,-112.44"/>
<polygon fill="black" stroke="black" points="1620.79,-115.8 1631.32,-114.64 1622.37,-108.98 1620.79,-115.8"/>
</g>
<!-- reboot_work_func -->
<g id="node17" class="node">
<title>reboot_work_func</title>
<ellipse fill="none" stroke="black" cx="946.27" cy="-149" rx="99.61" ry="18"/>
<text text-anchor="middle" x="946.27" y="-144.32" font-family="Times,serif" font-size="14.00">reboot_work_func</text>
</g>
<!-- run_cmd -->
<g id="node18" class="node">
<title>run_cmd</title>
<ellipse fill="none" stroke="black" cx="1311.96" cy="-151" rx="54.36" ry="18"/>
<text text-anchor="middle" x="1311.96" y="-146.32" font-family="Times,serif" font-size="14.00">run_cmd</text>
</g>
<!-- reboot_work_func&#45;&gt;run_cmd -->
<g id="edge17" class="edge">
<title>reboot_work_func&#45;&gt;run_cmd</title>
<path fill="none" stroke="black" d="M1046.17,-149.54C1109.6,-149.89 1190.17,-150.34 1245.68,-150.64"/>
<polygon fill="black" stroke="black" points="1245.6,-154.14 1255.62,-150.7 1245.64,-147.14 1245.6,-154.14"/>
</g>
<!-- run_eviction -->
<g id="node19" class="node">
<title>run_eviction</title>
<ellipse fill="none" stroke="black" cx="1698.7" cy="-184" rx="72.78" ry="18"/>
<text text-anchor="middle" x="1698.7" y="-179.32" font-family="Times,serif" font-size="14.00">run_eviction</text>
</g>
<!-- run_cmd&#45;&gt;run_eviction -->
<g id="edge18" class="edge">
<title>run_cmd&#45;&gt;run_eviction</title>
<path fill="none" stroke="black" d="M1364.85,-155.45C1429.92,-161.03 1542.13,-170.66 1618.09,-177.17"/>
<polygon fill="black" stroke="black" points="1617.72,-180.65 1627.98,-178.02 1618.31,-173.68 1617.72,-180.65"/>
</g>
<!-- run_eviction&#45;&gt;evict_folios -->
<g id="edge19" class="edge">
<title>run_eviction&#45;&gt;evict_folios</title>
<path fill="none" stroke="black" d="M1771.81,-184C1831.2,-184 1915.24,-184 1976.13,-184"/>
<polygon fill="black" stroke="black" points="1976.09,-187.5 1986.09,-184 1976.09,-180.5 1976.09,-187.5"/>
</g>
<!-- poweroff_work_func -->
<g id="node20" class="node">
<title>poweroff_work_func</title>
<ellipse fill="none" stroke="black" cx="946.27" cy="-95" rx="110.66" ry="18"/>
<text text-anchor="middle" x="946.27" y="-90.33" font-family="Times,serif" font-size="14.00">poweroff_work_func</text>
</g>
<!-- poweroff_work_func&#45;&gt;run_cmd -->
<g id="edge20" class="edge">
<title>poweroff_work_func&#45;&gt;run_cmd</title>
<path fill="none" stroke="black" d="M1027.98,-107.43C1095.32,-117.8 1189.78,-132.34 1250.68,-141.72"/>
<polygon fill="black" stroke="black" points="1250.11,-145.17 1260.53,-143.23 1251.18,-138.25 1250.11,-145.17"/>
</g>
<!-- lru_gen_seq_write -->
<g id="node21" class="node">
<title>lru_gen_seq_write</title>
<ellipse fill="none" stroke="black" cx="946.27" cy="-203" rx="101.71" ry="18"/>
<text text-anchor="middle" x="946.27" y="-198.32" font-family="Times,serif" font-size="14.00">lru_gen_seq_write</text>
</g>
<!-- lru_gen_seq_write&#45;&gt;run_cmd -->
<g id="edge21" class="edge">
<title>lru_gen_seq_write&#45;&gt;run_cmd</title>
<path fill="none" stroke="black" d="M1026.63,-191.65C1093.93,-182.03 1189.02,-168.44 1250.34,-159.67"/>
<polygon fill="black" stroke="black" points="1250.48,-163.18 1259.89,-158.3 1249.49,-156.25 1250.48,-163.18"/>
</g>
<!-- shrink_inactive_list&#45;&gt;reclaimer_offset -->
<g id="edge41" class="edge">
<title>shrink_inactive_list&#45;&gt;reclaimer_offset</title>
<path fill="none" stroke="black" d="M2160.7,-253.41C2287.58,-249.05 2499.85,-241.77 2625.15,-237.47"/>
<polygon fill="black" stroke="black" points="2625.24,-240.97 2635.11,-237.13 2625,-233.98 2625.24,-240.97"/>
</g>
<!-- shrink_inactive_list&#45;&gt;shrink_folio_list -->
<g id="edge23" class="edge">
<title>shrink_inactive_list&#45;&gt;shrink_folio_list</title>
<path fill="none" stroke="black" d="M2133.8,-269.51C2173.23,-275.84 2221.06,-283.53 2260.96,-289.94"/>
<polygon fill="black" stroke="black" points="2260.34,-293.38 2270.77,-291.51 2261.45,-286.47 2260.34,-293.38"/>
</g>
<!-- init_args -->
<g id="node23" class="node">
<title>init_args</title>
<ellipse fill="none" stroke="red" cx="105.92" cy="-365" rx="54.89" ry="18"/>
<text text-anchor="middle" x="105.92" y="-360.32" font-family="Times,serif" font-size="14.00">init_args</text>
</g>
<!-- alloc_contig_pages -->
<g id="node24" class="node">
<title>alloc_contig_pages</title>
<ellipse fill="none" stroke="black" cx="352.19" cy="-338" rx="104.35" ry="18"/>
<text text-anchor="middle" x="352.19" y="-333.32" font-family="Times,serif" font-size="14.00">alloc_contig_pages</text>
</g>
<!-- init_args&#45;&gt;alloc_contig_pages -->
<g id="edge24" class="edge">
<title>init_args&#45;&gt;alloc_contig_pages</title>
<path fill="none" stroke="black" d="M158.43,-359.31C185.6,-356.3 219.87,-352.52 251.96,-348.97"/>
<polygon fill="black" stroke="black" points="252.15,-352.47 261.7,-347.89 251.38,-345.51 252.15,-352.47"/>
</g>
<!-- alloc_contig_range -->
<g id="node25" class="node">
<title>alloc_contig_range</title>
<ellipse fill="none" stroke="black" cx="633.18" cy="-311" rx="103.82" ry="18"/>
<text text-anchor="middle" x="633.18" y="-306.32" font-family="Times,serif" font-size="14.00">alloc_contig_range</text>
</g>
<!-- alloc_contig_pages&#45;&gt;alloc_contig_range -->
<g id="edge25" class="edge">
<title>alloc_contig_pages&#45;&gt;alloc_contig_range</title>
<path fill="none" stroke="black" d="M444.16,-329.2C471.81,-326.52 502.37,-323.56 530.68,-320.82"/>
<polygon fill="black" stroke="black" points="530.69,-324.34 540.31,-319.89 530.02,-317.37 530.69,-324.34"/>
</g>
<!-- __alloc_contig_migrate_range -->
<g id="node26" class="node">
<title>__alloc_contig_migrate_range</title>
<ellipse fill="none" stroke="black" cx="1698.7" cy="-311" rx="157.48" ry="18"/>
<text text-anchor="middle" x="1698.7" y="-306.32" font-family="Times,serif" font-size="14.00">__alloc_contig_migrate_range</text>
</g>
<!-- alloc_contig_range&#45;&gt;__alloc_contig_migrate_range -->
<g id="edge26" class="edge">
<title>alloc_contig_range&#45;&gt;__alloc_contig_migrate_range</title>
<path fill="none" stroke="black" d="M737.13,-311C920.82,-311 1306.65,-311 1529.38,-311"/>
<polygon fill="black" stroke="black" points="1529.33,-314.5 1539.33,-311 1529.33,-307.5 1529.33,-314.5"/>
</g>
<!-- start_isolate_page_range -->
<g id="node31" class="node">
<title>start_isolate_page_range</title>
<ellipse fill="none" stroke="black" cx="946.27" cy="-353" rx="135.91" ry="18"/>
<text text-anchor="middle" x="946.27" y="-348.32" font-family="Times,serif" font-size="14.00">start_isolate_page_range</text>
</g>
<!-- alloc_contig_range&#45;&gt;start_isolate_page_range -->
<g id="edge33" class="edge">
<title>alloc_contig_range&#45;&gt;start_isolate_page_range</title>
<path fill="none" stroke="black" d="M716.32,-322.09C753.51,-327.11 797.97,-333.11 837.77,-338.49"/>
<polygon fill="black" stroke="black" points="837.25,-341.95 847.63,-339.82 838.19,-335.01 837.25,-341.95"/>
</g>
<!-- reclaim_clean_pages_from_list -->
<g id="node27" class="node">
<title>reclaim_clean_pages_from_list</title>
<ellipse fill="none" stroke="black" cx="2054.93" cy="-311" rx="162.74" ry="18"/>
<text text-anchor="middle" x="2054.93" y="-306.32" font-family="Times,serif" font-size="14.00">reclaim_clean_pages_from_list</text>
</g>
<!-- __alloc_contig_migrate_range&#45;&gt;reclaim_clean_pages_from_list -->
<g id="edge27" class="edge">
<title>__alloc_contig_migrate_range&#45;&gt;reclaim_clean_pages_from_list</title>
<path fill="none" stroke="black" d="M1856.62,-311C1864.54,-311 1872.52,-311 1880.49,-311"/>
<polygon fill="black" stroke="black" points="1880.23,-314.5 1890.23,-311 1880.23,-307.5 1880.23,-314.5"/>
</g>
<!-- reclaim_clean_pages_from_list&#45;&gt;shrink_folio_list -->
<g id="edge28" class="edge">
<title>reclaim_clean_pages_from_list&#45;&gt;shrink_folio_list</title>
<path fill="none" stroke="black" d="M2213.35,-306.6C2223.24,-306.33 2233.03,-306.05 2242.54,-305.79"/>
<polygon fill="black" stroke="black" points="2242.58,-309.29 2252.48,-305.51 2242.39,-302.29 2242.58,-309.29"/>
</g>
<!-- alloc_gigantic_folio -->
<g id="node28" class="node">
<title>alloc_gigantic_folio</title>
<ellipse fill="none" stroke="red" cx="105.92" cy="-311" rx="105.92" ry="18"/>
<text text-anchor="middle" x="105.92" y="-306.32" font-family="Times,serif" font-size="14.00">alloc_gigantic_folio</text>
</g>
<!-- alloc_gigantic_folio&#45;&gt;alloc_contig_pages -->
<g id="edge29" class="edge">
<title>alloc_gigantic_folio&#45;&gt;alloc_contig_pages</title>
<path fill="none" stroke="black" d="M195.8,-320.82C213.99,-322.83 233.24,-324.96 251.77,-327.01"/>
<polygon fill="black" stroke="black" points="251.37,-330.49 261.69,-328.11 252.14,-323.53 251.37,-330.49"/>
</g>
<!-- cma_alloc -->
<g id="node30" class="node">
<title>cma_alloc</title>
<ellipse fill="none" stroke="black" cx="352.19" cy="-284" rx="59.63" ry="18"/>
<text text-anchor="middle" x="352.19" y="-279.32" font-family="Times,serif" font-size="14.00">cma_alloc</text>
</g>
<!-- alloc_gigantic_folio&#45;&gt;cma_alloc -->
<g id="edge32" class="edge">
<title>alloc_gigantic_folio&#45;&gt;cma_alloc</title>
<path fill="none" stroke="black" d="M195.8,-301.18C225.04,-297.94 257.04,-294.41 284.36,-291.39"/>
<polygon fill="black" stroke="black" points="284.7,-294.87 294.25,-290.29 283.93,-287.91 284.7,-294.87"/>
</g>
<!-- cma_alloc_write -->
<g id="node29" class="node">
<title>cma_alloc_write</title>
<ellipse fill="none" stroke="black" cx="105.92" cy="-257" rx="90.67" ry="18"/>
<text text-anchor="middle" x="105.92" y="-252.32" font-family="Times,serif" font-size="14.00">cma_alloc_write</text>
</g>
<!-- cma_alloc_write&#45;&gt;cma_alloc -->
<g id="edge30" class="edge">
<title>cma_alloc_write&#45;&gt;cma_alloc</title>
<path fill="none" stroke="black" d="M185.89,-265.73C217.66,-269.24 253.89,-273.25 284.33,-276.61"/>
<polygon fill="black" stroke="black" points="283.86,-280.08 294.18,-277.7 284.63,-273.12 283.86,-280.08"/>
</g>
<!-- cma_alloc&#45;&gt;alloc_contig_range -->
<g id="edge31" class="edge">
<title>cma_alloc&#45;&gt;alloc_contig_range</title>
<path fill="none" stroke="black" d="M409.31,-289.43C443.93,-292.78 489.37,-297.18 530.18,-301.13"/>
<polygon fill="black" stroke="black" points="529.76,-304.6 540.05,-302.08 530.43,-297.64 529.76,-304.6"/>
</g>
<!-- isolate_single_pageblock -->
<g id="node32" class="node">
<title>isolate_single_pageblock</title>
<ellipse fill="none" stroke="black" cx="1311.96" cy="-353" rx="134.33" ry="18"/>
<text text-anchor="middle" x="1311.96" y="-348.32" font-family="Times,serif" font-size="14.00">isolate_single_pageblock</text>
</g>
<!-- start_isolate_page_range&#45;&gt;isolate_single_pageblock -->
<g id="edge34" class="edge">
<title>start_isolate_page_range&#45;&gt;isolate_single_pageblock</title>
<path fill="none" stroke="black" d="M1082.44,-353C1109.7,-353 1138.46,-353 1166.04,-353"/>
<polygon fill="black" stroke="black" points="1165.85,-356.5 1175.85,-353 1165.85,-349.5 1165.85,-356.5"/>
</g>
<!-- isolate_single_pageblock&#45;&gt;__alloc_contig_migrate_range -->
<g id="edge35" class="edge">
<title>isolate_single_pageblock&#45;&gt;__alloc_contig_migrate_range</title>
<path fill="none" stroke="black" d="M1417.84,-341.55C1465.32,-336.37 1521.82,-330.2 1571.59,-324.77"/>
<polygon fill="black" stroke="black" points="1571.69,-328.28 1581.26,-323.71 1570.94,-321.32 1571.69,-328.28"/>
</g>
<!-- offline_pages -->
<g id="node33" class="node">
<title>offline_pages</title>
<ellipse fill="none" stroke="black" cx="633.18" cy="-365" rx="76.46" ry="18"/>
<text text-anchor="middle" x="633.18" y="-360.32" font-family="Times,serif" font-size="14.00">offline_pages</text>
</g>
<!-- offline_pages&#45;&gt;start_isolate_page_range -->
<g id="edge36" class="edge">
<title>offline_pages&#45;&gt;start_isolate_page_range</title>
<path fill="none" stroke="black" d="M709.09,-362.11C737.56,-361.01 771,-359.72 803.63,-358.46"/>
<polygon fill="black" stroke="black" points="803.75,-361.96 813.61,-358.08 803.48,-354.97 803.75,-361.96"/>
</g>
<!-- scan_folios -->
<g id="node35" class="node">
<title>scan_folios</title>
<ellipse fill="none" stroke="black" cx="2534.31" cy="-211" rx="65.41" ry="18"/>
<text text-anchor="middle" x="2534.31" y="-206.32" font-family="Times,serif" font-size="14.00">scan_folios</text>
</g>
<!-- isolate_folios&#45;&gt;scan_folios -->
<g id="edge38" class="edge">
<title>isolate_folios&#45;&gt;scan_folios</title>
<path fill="none" stroke="black" d="M2419.54,-211C2431.99,-211 2444.91,-211 2457.38,-211"/>
<polygon fill="black" stroke="black" points="2457.17,-214.5 2467.17,-211 2457.17,-207.5 2457.17,-214.5"/>
</g>
<!-- scan_folios&#45;&gt;reclaimer_offset -->
<g id="edge39" class="edge">
<title>scan_folios&#45;&gt;reclaimer_offset</title>
<path fill="none" stroke="black" d="M2595,-218.18C2608.31,-219.78 2622.71,-221.52 2636.93,-223.23"/>
<polygon fill="black" stroke="black" points="2636.42,-226.69 2646.76,-224.41 2637.25,-219.74 2636.42,-226.69"/>
</g>
</g>
</svg>
