<?xml version="1.0" standalone="no"?>
<svg xmlns="http://www.w3.org/2000/svg" xmlns:xlink="http://www.w3.org/1999/xlink" width="418pt" height="582pt" viewBox="0.00 0.00 417.5 582">
<g id="graph0" class="graph" transform="translate(43.07626031468429,478.8463281112269) scale(0.7071067909245364)" data-name="">
<polygon fill="white" stroke="none" points="-4,4 -4,-578 413.5,-578 413.5,4 -4,4"/>
<!-- start -->
<g id="node1" class="node" pointer-events="visible" data-name="start">

<polygon fill="none" stroke="black" points="66.5,-574 12.5,-574 12.5,-538 66.5,-538 66.5,-574"/>
<text text-anchor="middle" x="39.5" y="-551.8" font-family="Times,serif" font-size="14.00">开始</text>
</g>
<!-- data_collection -->
<g id="node2" class="node" pointer-events="visible" data-name="data_collection">

<polygon fill="none" stroke="black" points="79,-501 0,-501 0,-465 79,-465 79,-501"/>
<text text-anchor="middle" x="39.5" y="-478.8" font-family="Times,serif" font-size="14.00">数据收集阶段</text>
</g>
<!-- start&#45;&gt;data_collection -->
<g id="edge1" class="edge" data-name="start-&gt;data_collection">

<path fill="none" stroke="black" d="M39.5,-537.81C39.5,-530.23 39.5,-521.1 39.5,-512.54"/>
<polygon fill="black" stroke="black" points="43,-512.54 39.5,-502.54 36,-512.54 43,-512.54"/>
</g>
<!-- qos_calculation -->
<g id="node5" class="node" pointer-events="visible" data-name="qos_calculation">

<polygon fill="none" stroke="black" points="192.9,-355 106.1,-355 106.1,-319 192.9,-319 192.9,-355"/>
<text text-anchor="middle" x="149.5" y="-332.8" font-family="Times,serif" font-size="14.00">QoS 计算阶段</text>
</g><g id="node3" class="node" pointer-events="visible" data-name="delay_calculation" data-comment="qos_calculation">

<polygon fill="none" stroke="black" points="183.5,-428 115.5,-428 115.5,-392 183.5,-392 183.5,-428"/>
<text text-anchor="middle" x="149.5" y="-405.8" font-family="Times,serif" font-size="14.00">计算时延 u</text>
</g>
<!-- data_collection&#45;&gt;qos_calculation -->
<g id="edge2" class="edge" data-name="data_collection-&gt;delay_calculation" data-comment="data_collection-&gt;qos_calculation">

<path fill="none" stroke="black" d="M66.41,-464.63C80.39,-455.61 97.69,-444.44 112.87,-434.64"/>
<polygon fill="black" stroke="black" points="114.71,-437.62 121.22,-429.26 110.92,-431.74 114.71,-437.62"/>
</g>
<!-- configure_cgroup -->
<g id="node8" class="node" pointer-events="visible" data-name="configure_cgroup">

<polygon fill="none" stroke="black" points="305.68,-208.8 127.32,-208.8 127.32,-167.6 305.68,-167.6 305.68,-208.8"/>
<text text-anchor="middle" x="216.5" y="-192.4" font-family="Times,serif" font-size="14.00">配置 cgroup 阶段</text>
<text text-anchor="middle" x="216.5" y="-175.6" font-family="Times,serif" font-size="14.00">写入 IOPS、BPS 和 latency 值</text>
</g><g id="node6" class="node" pointer-events="visible" data-name="qos_iops_calc" data-comment="configure_cgroup">

<polygon fill="none" stroke="black" points="205.84,-282 93.16,-282 93.16,-246 205.84,-246 205.84,-282"/>
<text text-anchor="middle" x="149.5" y="-259.8" font-family="Times,serif" font-size="14.00">计算调整后的 IOPS</text>
</g><g id="node4" class="node" pointer-events="visible" data-name="bandwidth_calculation" data-comment="configure_cgroup">

<polygon fill="none" stroke="black" points="101.11,-36 29.89,-36 29.89,0 101.11,0 101.11,-36"/>
<text text-anchor="middle" x="65.5" y="-13.8" font-family="Times,serif" font-size="14.00">计算带宽 w</text>
</g>
<!-- qos_calculation&#45;&gt;configure_cgroup -->
<g id="edge6" class="edge" data-name="qos_calculation-&gt;qos_iops_calc" data-comment="qos_calculation-&gt;configure_cgroup">

<path fill="none" stroke="black" d="M149.5,-318.81C149.5,-311.23 149.5,-302.1 149.5,-293.54"/>
<polygon fill="black" stroke="black" points="153,-293.54 149.5,-283.54 146,-293.54 153,-293.54"/>
</g><g id="edge3" class="edge" data-name="data_collection-&gt;bandwidth_calculation" data-comment="qos_calculation-&gt;configure_cgroup">

<path fill="none" stroke="black" d="M34.89,-464.63C31.51,-450.34 27.5,-429.5 27.5,-411 27.5,-411 27.5,-411 27.5,-108.6 27.5,-86.14 37.74,-62.85 47.59,-45.65"/>
<polygon fill="black" stroke="black" points="50.3,-47.93 52.48,-37.57 44.31,-44.31 50.3,-47.93"/>
</g>
<!-- dynamic_adjustment -->
<!-- dynamic_adjustment -->
<!-- dynamic_adjustment -->
<g id="node9" class="node" pointer-events="visible" data-name="dynamic_adjustment">

<polygon fill="none" stroke="black" points="294.88,-130.2 138.12,-130.2 138.12,-89 294.88,-89 294.88,-130.2"/>
<text text-anchor="middle" x="216.5" y="-113.8" font-family="Times,serif" font-size="14.00">动态调整阶段</text>
<text text-anchor="middle" x="216.5" y="-97" font-family="Times,serif" font-size="14.00">持续监测并更新 cgroup 配置</text>
</g><g id="node7" class="node" pointer-events="visible" data-name="qos_bps_calc" data-comment="dynamic_adjustment">

<polygon fill="none" stroke="black" points="331.41,-282 223.59,-282 223.59,-246 331.41,-246 331.41,-282"/>
<text text-anchor="middle" x="277.5" y="-259.8" font-family="Times,serif" font-size="14.00">计算调整后的 BPS</text>
</g>
<!-- configure_cgroup&#45;&gt;dynamic_adjustment -->

<!-- configure_cgroup&#45;&gt;dynamic_adjustment -->

<!-- configure_cgroup&#45;&gt;dynamic_adjustment -->
<g id="edge10" class="edge" data-name="configure_cgroup-&gt;dynamic_adjustment">

<path fill="none" stroke="black" d="M216.5,-167.47C216.5,-159.67 216.5,-150.51 216.5,-141.85"/>
<polygon fill="black" stroke="black" points="220,-142.04 216.5,-132.04 213,-142.04 220,-142.04"/>
</g><g id="edge7" class="edge" data-name="qos_calculation-&gt;qos_bps_calc" data-comment="configure_cgroup-&gt;dynamic_adjustment">

<path fill="none" stroke="black" d="M180.81,-318.63C197.47,-309.39 218.17,-297.91 236.13,-287.95"/>
<polygon fill="black" stroke="black" points="237.7,-291.08 244.74,-283.17 234.3,-284.96 237.7,-291.08"/>
</g><g id="edge4" class="edge" data-name="delay_calculation-&gt;qos_calculation" data-comment="configure_cgroup-&gt;dynamic_adjustment">

<path fill="none" stroke="black" d="M149.5,-391.81C149.5,-384.23 149.5,-375.1 149.5,-366.54"/>
<polygon fill="black" stroke="black" points="153,-366.54 149.5,-356.54 146,-366.54 153,-366.54"/>
</g>
<!-- end -->

<!-- end -->

<!-- dynamic_adjustment&#45;&gt;delay_calculation -->
<g id="edge11" class="edge" data-name="dynamic_adjustment-&gt;delay_calculation">

<path fill="none" stroke="black" d="M295.1,-121.5C331.79,-131.48 367.5,-150.6 367.5,-187.2 367.5,-338 367.5,-338 367.5,-338 367.5,-373.97 258.82,-394.54 194.93,-403.53"/>
<polygon fill="black" stroke="black" points="194.5,-400.05 185.06,-404.87 195.44,-406.99 194.5,-400.05"/>
<text text-anchor="middle" x="388.5" y="-259.8" font-family="Times,serif" font-size="14.00">反馈调整</text>
</g>
<!-- dynamic_adjustment&#45;&gt;bandwidth_calculation -->
<g id="edge12" class="edge" data-name="dynamic_adjustment-&gt;bandwidth_calculation">

<path fill="none" stroke="black" d="M182.99,-88.71C159.77,-74.94 128.79,-56.56 104.47,-42.13"/>
<polygon fill="black" stroke="black" points="106.53,-39.27 96.14,-37.18 102.95,-45.29 106.53,-39.27"/>
<text text-anchor="middle" x="171.5" y="-58.2" font-family="Times,serif" font-size="14.00">反馈调整</text>
</g>
<!-- end -->
<g id="node10" class="node" pointer-events="visible" data-name="end">

<polygon fill="none" stroke="black" points="243.5,-36 189.5,-36 189.5,0 243.5,0 243.5,-36"/>
<text text-anchor="middle" x="216.5" y="-13.8" font-family="Times,serif" font-size="14.00">结束</text>
</g>
<!-- dynamic_adjustment&#45;&gt;data_collection -->
<g id="edge5" class="edge" data-name="bandwidth_calculation-&gt;qos_calculation" data-comment="dynamic_adjustment-&gt;data_collection">

<path fill="none" stroke="black" d="M65.5,-36.18C65.5,-54.21 65.5,-83.4 65.5,-108.6 65.5,-265 65.5,-265 65.5,-265 65.5,-285.46 80.22,-301.23 97.33,-312.66"/>
<polygon fill="black" stroke="black" points="95.36,-315.55 105.72,-317.77 99,-309.57 95.36,-315.55"/>
</g>
<!-- dynamic_adjustment&#45;&gt;end -->
<!-- dynamic_adjustment&#45;&gt;end -->

<!-- dynamic_adjustment&#45;&gt;end -->

<!-- dynamic_adjustment&#45;&gt;end -->
<g id="edge13" class="edge" data-name="dynamic_adjustment-&gt;end">

<path fill="none" stroke="black" d="M216.5,-88.71C216.5,-76.72 216.5,-61.22 216.5,-47.88"/>
<polygon fill="black" stroke="black" points="220,-47.92 216.5,-37.92 213,-47.92 220,-47.92"/>
</g><g id="edge8" class="edge" data-name="qos_iops_calc-&gt;configure_cgroup" data-comment="dynamic_adjustment-&gt;end">

<path fill="none" stroke="black" d="M165.38,-245.51C172.96,-237.16 182.23,-226.95 190.78,-217.53"/>
<polygon fill="black" stroke="black" points="193.22,-220.05 197.35,-210.29 188.04,-215.34 193.22,-220.05"/>
</g>
<g id="edge9" class="edge" data-name="qos_bps_calc-&gt;configure_cgroup" data-comment="dynamic_adjustment-&gt;end">

<path fill="none" stroke="black" d="M263.04,-245.51C256.21,-237.24 247.87,-227.15 240.15,-217.81"/>
<polygon fill="black" stroke="black" points="243.04,-215.82 233.97,-210.34 237.65,-220.28 243.04,-215.82"/>
</g>


</g>
</svg>