<?xml version="1.0" encoding="UTF-8" standalone="no"?>
<!DOCTYPE svg PUBLIC "-//W3C//DTD SVG 1.1//EN"
 "http://www.w3.org/Graphics/SVG/1.1/DTD/svg11.dtd">
<!-- Generated by graphviz version 2.40.1 (0)
 -->
<!-- Title: callgraph Pages: 1 -->
<svg width="1458pt" height="2793pt"
 viewBox="0.00 0.00 1457.99 2793.00" xmlns="http://www.w3.org/2000/svg" xmlns:xlink="http://www.w3.org/1999/xlink">
<g id="graph0" class="graph" transform="scale(1 1) rotate(0) translate(4 2789)">
<title>callgraph</title>
<polygon fill="#ffffff" stroke="transparent" points="-4,4 -4,-2789 1453.9873,-2789 1453.9873,4 -4,4"/>
<!-- __bpf_trace_compact_retry -->
<g id="node1" class="node">
<title>__bpf_trace_compact_retry</title>
<ellipse fill="none" stroke="#000000" cx="185.8835" cy="-18" rx="108.5808" ry="18"/>
<text text-anchor="middle" x="185.8835" y="-14.3" font-family="Times,serif" font-size="14.00" fill="#000000">__bpf_trace_compact_retry</text>
</g>
<!-- __bpf_trace_finish_task_reaping -->
<g id="node2" class="node">
<title>__bpf_trace_finish_task_reaping</title>
<ellipse fill="none" stroke="#000000" cx="185.8835" cy="-72" rx="126.1777" ry="18"/>
<text text-anchor="middle" x="185.8835" y="-68.3" font-family="Times,serif" font-size="14.00" fill="#000000">__bpf_trace_finish_task_reaping</text>
</g>
<!-- __bpf_trace_mark_victim -->
<g id="node3" class="node">
<title>__bpf_trace_mark_victim</title>
<ellipse fill="none" stroke="#000000" cx="185.8835" cy="-126" rx="102.8821" ry="18"/>
<text text-anchor="middle" x="185.8835" y="-122.3" font-family="Times,serif" font-size="14.00" fill="#000000">__bpf_trace_mark_victim</text>
</g>
<!-- __bpf_trace_oom_score_adj_update -->
<g id="node4" class="node">
<title>__bpf_trace_oom_score_adj_update</title>
<ellipse fill="none" stroke="#000000" cx="185.8835" cy="-180" rx="139.1754" ry="18"/>
<text text-anchor="middle" x="185.8835" y="-176.3" font-family="Times,serif" font-size="14.00" fill="#000000">__bpf_trace_oom_score_adj_update</text>
</g>
<!-- __bpf_trace_reclaim_retry_zone -->
<g id="node5" class="node">
<title>__bpf_trace_reclaim_retry_zone</title>
<ellipse fill="none" stroke="#000000" cx="185.8835" cy="-234" rx="125.3778" ry="18"/>
<text text-anchor="middle" x="185.8835" y="-230.3" font-family="Times,serif" font-size="14.00" fill="#000000">__bpf_trace_reclaim_retry_zone</text>
</g>
<!-- __bpf_trace_skip_task_reaping -->
<g id="node6" class="node">
<title>__bpf_trace_skip_task_reaping</title>
<ellipse fill="none" stroke="#000000" cx="185.8835" cy="-288" rx="120.7786" ry="18"/>
<text text-anchor="middle" x="185.8835" y="-284.3" font-family="Times,serif" font-size="14.00" fill="#000000">__bpf_trace_skip_task_reaping</text>
</g>
<!-- __bpf_trace_start_task_reaping -->
<g id="node7" class="node">
<title>__bpf_trace_start_task_reaping</title>
<ellipse fill="none" stroke="#000000" cx="185.8835" cy="-342" rx="121.5784" ry="18"/>
<text text-anchor="middle" x="185.8835" y="-338.3" font-family="Times,serif" font-size="14.00" fill="#000000">__bpf_trace_start_task_reaping</text>
</g>
<!-- __bpf_trace_wake_reaper -->
<g id="node8" class="node">
<title>__bpf_trace_wake_reaper</title>
<ellipse fill="none" stroke="#000000" cx="185.8835" cy="-396" rx="101.2821" ry="18"/>
<text text-anchor="middle" x="185.8835" y="-392.3" font-family="Times,serif" font-size="14.00" fill="#000000">__bpf_trace_wake_reaper</text>
</g>
<!-- __oom_kill_process -->
<g id="node9" class="node">
<title>__oom_kill_process</title>
<ellipse fill="none" stroke="#000000" cx="1159.8599" cy="-496" rx="82.5854" ry="18"/>
<text text-anchor="middle" x="1159.8599" y="-492.3" font-family="Times,serif" font-size="14.00" fill="#000000">__oom_kill_process</text>
</g>
<!-- __raw_spin_unlock -->
<g id="node11" class="node">
<title>__raw_spin_unlock</title>
<ellipse fill="none" stroke="#000000" cx="1366.1448" cy="-569" rx="79.0865" ry="18"/>
<text text-anchor="middle" x="1366.1448" y="-565.3" font-family="Times,serif" font-size="14.00" fill="#000000">__raw_spin_unlock</text>
</g>
<!-- __oom_kill_process&#45;&gt;__raw_spin_unlock -->
<g id="edge1" class="edge">
<title>__oom_kill_process&#45;&gt;__raw_spin_unlock</title>
<path fill="none" stroke="#000000" d="M1200.2185,-511.7169C1224.0064,-520.8414 1254.7489,-532.3939 1282.3022,-542 1291.1973,-545.1012 1300.6663,-548.2732 1309.9179,-551.3025"/>
<polygon fill="#000000" stroke="#000000" points="1308.8551,-554.6373 1319.4473,-554.3987 1311.0182,-547.9798 1308.8551,-554.6373"/>
</g>
<!-- find_lock_task_mm -->
<g id="node15" class="node">
<title>find_lock_task_mm</title>
<ellipse fill="none" stroke="#000000" cx="1366.1448" cy="-623" rx="81.4863" ry="18"/>
<text text-anchor="middle" x="1366.1448" y="-619.3" font-family="Times,serif" font-size="14.00" fill="#000000">find_lock_task_mm</text>
</g>
<!-- __oom_kill_process&#45;&gt;find_lock_task_mm -->
<g id="edge2" class="edge">
<title>__oom_kill_process&#45;&gt;find_lock_task_mm</title>
<path fill="none" stroke="#000000" d="M1199.4833,-511.9893C1215.1822,-519.5629 1232.6935,-529.6756 1246.3022,-542 1267.6822,-561.3622 1259.2903,-578.6088 1282.3022,-596 1287.4262,-599.8724 1293.1256,-603.201 1299.0737,-606.0599"/>
<polygon fill="#000000" stroke="#000000" points="1298.0112,-609.4138 1308.5786,-610.1765 1300.7933,-602.9904 1298.0112,-609.4138"/>
</g>
<!-- get_task_struct -->
<g id="node16" class="node">
<title>get_task_struct</title>
<ellipse fill="none" stroke="#000000" cx="1366.1448" cy="-461" rx="63.8893" ry="18"/>
<text text-anchor="middle" x="1366.1448" y="-457.3" font-family="Times,serif" font-size="14.00" fill="#000000">get_task_struct</text>
</g>
<!-- __oom_kill_process&#45;&gt;get_task_struct -->
<g id="edge3" class="edge">
<title>__oom_kill_process&#45;&gt;get_task_struct</title>
<path fill="none" stroke="#000000" d="M1225.1297,-484.9258C1249.4011,-480.8077 1276.9217,-476.1383 1301.1669,-472.0247"/>
<polygon fill="#000000" stroke="#000000" points="1302.0646,-475.4225 1311.3382,-470.2989 1300.8936,-468.5211 1302.0646,-475.4225"/>
</g>
<!-- mark_oom_victim -->
<g id="node17" class="node">
<title>mark_oom_victim</title>
<ellipse fill="none" stroke="#000000" cx="1366.1448" cy="-407" rx="77.1866" ry="18"/>
<text text-anchor="middle" x="1366.1448" y="-403.3" font-family="Times,serif" font-size="14.00" fill="#000000">mark_oom_victim</text>
</g>
<!-- __oom_kill_process&#45;&gt;mark_oom_victim -->
<g id="edge4" class="edge">
<title>__oom_kill_process&#45;&gt;mark_oom_victim</title>
<path fill="none" stroke="#000000" d="M1189.9317,-479.0964C1214.344,-465.7866 1249.9081,-447.3208 1282.3022,-434 1290.5228,-430.6196 1299.3327,-427.3823 1308.0405,-424.3974"/>
<polygon fill="#000000" stroke="#000000" points="1309.4155,-427.6283 1317.7916,-421.1405 1307.1979,-420.9889 1309.4155,-427.6283"/>
</g>
<!-- put_task_struct -->
<g id="node39" class="node">
<title>put_task_struct</title>
<ellipse fill="none" stroke="#000000" cx="1366.1448" cy="-515" rx="64.189" ry="18"/>
<text text-anchor="middle" x="1366.1448" y="-511.3" font-family="Times,serif" font-size="14.00" fill="#000000">put_task_struct</text>
</g>
<!-- __oom_kill_process&#45;&gt;put_task_struct -->
<g id="edge5" class="edge">
<title>__oom_kill_process&#45;&gt;put_task_struct</title>
<path fill="none" stroke="#000000" d="M1236.0867,-503.0209C1255.2521,-504.7862 1275.7507,-506.6742 1294.6741,-508.4171"/>
<polygon fill="#000000" stroke="#000000" points="1294.4286,-511.9093 1304.7075,-509.3413 1295.0707,-504.9388 1294.4286,-511.9093"/>
</g>
<!-- wake_oom_reaper -->
<g id="node67" class="node">
<title>wake_oom_reaper</title>
<ellipse fill="none" stroke="#000000" cx="1366.1448" cy="-353" rx="75.2868" ry="18"/>
<text text-anchor="middle" x="1366.1448" y="-349.3" font-family="Times,serif" font-size="14.00" fill="#000000">wake_oom_reaper</text>
</g>
<!-- __oom_kill_process&#45;&gt;wake_oom_reaper -->
<g id="edge6" class="edge">
<title>__oom_kill_process&#45;&gt;wake_oom_reaper</title>
<path fill="none" stroke="#000000" d="M1176.6168,-478.3036C1204.2719,-449.4201 1258.7485,-393.9581 1282.3022,-380 1289.0547,-375.9984 1296.47,-372.516 1304.0108,-369.5056"/>
<polygon fill="#000000" stroke="#000000" points="1305.4378,-372.7091 1313.5892,-365.9411 1302.9963,-366.1486 1305.4378,-372.7091"/>
</g>
<!-- __oom_reap_task_mm -->
<g id="node10" class="node">
<title>__oom_reap_task_mm</title>
<ellipse fill="none" stroke="#000000" cx="691.395" cy="-769" rx="92.8835" ry="18"/>
<text text-anchor="middle" x="691.395" y="-765.3" font-family="Times,serif" font-size="14.00" fill="#000000">__oom_reap_task_mm</text>
</g>
<!-- dump_header -->
<g id="node12" class="node">
<title>dump_header</title>
<ellipse fill="none" stroke="#000000" cx="928.8772" cy="-569" rx="59.2899" ry="18"/>
<text text-anchor="middle" x="928.8772" y="-565.3" font-family="Times,serif" font-size="14.00" fill="#000000">dump_header</text>
</g>
<!-- dump_task -->
<g id="node13" class="node">
<title>dump_task</title>
<ellipse fill="none" stroke="#000000" cx="1159.8599" cy="-569" rx="50.0912" ry="18"/>
<text text-anchor="middle" x="1159.8599" y="-565.3" font-family="Times,serif" font-size="14.00" fill="#000000">dump_task</text>
</g>
<!-- dump_header&#45;&gt;dump_task -->
<g id="edge7" class="edge">
<title>dump_header&#45;&gt;dump_task</title>
<path fill="none" stroke="#000000" stroke-dasharray="1,5" d="M988.061,-569C1022.0998,-569 1064.7785,-569 1099.0819,-569"/>
<polygon fill="#000000" stroke="#000000" points="1099.4401,-572.5001 1109.4401,-569 1099.4401,-565.5001 1099.4401,-572.5001"/>
</g>
<!-- dump_task&#45;&gt;__raw_spin_unlock -->
<g id="edge8" class="edge">
<title>dump_task&#45;&gt;__raw_spin_unlock</title>
<path fill="none" stroke="#000000" d="M1210.059,-569C1230.1091,-569 1253.8212,-569 1276.6285,-569"/>
<polygon fill="#000000" stroke="#000000" points="1276.6795,-572.5001 1286.6795,-569 1276.6795,-565.5001 1276.6795,-572.5001"/>
</g>
<!-- dump_task&#45;&gt;find_lock_task_mm -->
<g id="edge9" class="edge">
<title>dump_task&#45;&gt;find_lock_task_mm</title>
<path fill="none" stroke="#000000" d="M1200.6151,-579.6687C1230.0039,-587.3619 1270.2169,-597.8886 1303.648,-606.64"/>
<polygon fill="#000000" stroke="#000000" points="1302.7726,-610.0287 1313.3331,-609.1753 1304.5454,-603.2569 1302.7726,-610.0287"/>
</g>
<!-- oom_cpuset_eligible -->
<g id="node20" class="node">
<title>oom_cpuset_eligible</title>
<ellipse fill="none" stroke="#000000" cx="1366.1448" cy="-677" rx="83.6854" ry="18"/>
<text text-anchor="middle" x="1366.1448" y="-673.3" font-family="Times,serif" font-size="14.00" fill="#000000">oom_cpuset_eligible</text>
</g>
<!-- dump_task&#45;&gt;oom_cpuset_eligible -->
<g id="edge10" class="edge">
<title>dump_task&#45;&gt;oom_cpuset_eligible</title>
<path fill="none" stroke="#000000" d="M1205.239,-576.9817C1219.3603,-581.0206 1234.3466,-587.047 1246.3022,-596 1269.3904,-613.2898 1259.2903,-632.6088 1282.3022,-650 1287.2661,-653.7514 1292.77,-656.9924 1298.5168,-659.7905"/>
<polygon fill="#000000" stroke="#000000" points="1297.1422,-663.0094 1307.705,-663.8325 1299.9609,-656.602 1297.1422,-663.0094"/>
</g>
<!-- exit_oom_victim -->
<g id="node14" class="node">
<title>exit_oom_victim</title>
<ellipse fill="none" stroke="#000000" cx="185.8835" cy="-823" rx="71.4873" ry="18"/>
<text text-anchor="middle" x="185.8835" y="-819.3" font-family="Times,serif" font-size="14.00" fill="#000000">exit_oom_victim</text>
</g>
<!-- oom_badness -->
<g id="node18" class="node">
<title>oom_badness</title>
<ellipse fill="none" stroke="#000000" cx="928.8772" cy="-623" rx="59.2899" ry="18"/>
<text text-anchor="middle" x="928.8772" y="-619.3" font-family="Times,serif" font-size="14.00" fill="#000000">oom_badness</text>
</g>
<!-- oom_badness.part.23 -->
<g id="node19" class="node">
<title>oom_badness.part.23</title>
<ellipse fill="none" stroke="#000000" cx="1159.8599" cy="-623" rx="86.3847" ry="18"/>
<text text-anchor="middle" x="1159.8599" y="-619.3" font-family="Times,serif" font-size="14.00" fill="#000000">oom_badness.part.23</text>
</g>
<!-- oom_badness&#45;&gt;oom_badness.part.23 -->
<g id="edge11" class="edge">
<title>oom_badness&#45;&gt;oom_badness.part.23</title>
<path fill="none" stroke="#000000" d="M988.061,-623C1010.9534,-623 1037.7536,-623 1063.2858,-623"/>
<polygon fill="#000000" stroke="#000000" points="1063.3744,-626.5001 1073.3743,-623 1063.3743,-619.5001 1063.3744,-626.5001"/>
</g>
<!-- oom_badness.part.23&#45;&gt;find_lock_task_mm -->
<g id="edge12" class="edge">
<title>oom_badness.part.23&#45;&gt;find_lock_task_mm</title>
<path fill="none" stroke="#000000" d="M1246.4466,-623C1255.7582,-623 1265.2547,-623 1274.6217,-623"/>
<polygon fill="#000000" stroke="#000000" points="1274.7202,-626.5001 1284.7202,-623 1274.7202,-619.5001 1274.7202,-626.5001"/>
</g>
<!-- oom_evaluate_task -->
<g id="node21" class="node">
<title>oom_evaluate_task</title>
<ellipse fill="none" stroke="#000000" cx="928.8772" cy="-677" rx="77.9862" ry="18"/>
<text text-anchor="middle" x="928.8772" y="-673.3" font-family="Times,serif" font-size="14.00" fill="#000000">oom_evaluate_task</text>
</g>
<!-- oom_evaluate_task&#45;&gt;oom_badness.part.23 -->
<g id="edge13" class="edge">
<title>oom_evaluate_task&#45;&gt;oom_badness.part.23</title>
<path fill="none" stroke="#000000" d="M983.9098,-664.1343C1016.3366,-656.5534 1057.6191,-646.9022 1092.0459,-638.8538"/>
<polygon fill="#000000" stroke="#000000" points="1093.0848,-642.2054 1102.0255,-636.5207 1091.4912,-635.3892 1093.0848,-642.2054"/>
</g>
<!-- oom_evaluate_task&#45;&gt;oom_cpuset_eligible -->
<g id="edge14" class="edge">
<title>oom_evaluate_task&#45;&gt;oom_cpuset_eligible</title>
<path fill="none" stroke="#000000" d="M1007.0518,-677C1081.1072,-677 1192.4468,-677 1271.4911,-677"/>
<polygon fill="#000000" stroke="#000000" points="1271.9363,-680.5001 1281.9363,-677 1271.9363,-673.5001 1271.9363,-680.5001"/>
</g>
<!-- oom_init -->
<g id="node22" class="node">
<title>oom_init</title>
<ellipse fill="none" stroke="#000000" cx="185.8835" cy="-769" rx="42.7926" ry="18"/>
<text text-anchor="middle" x="185.8835" y="-765.3" font-family="Times,serif" font-size="14.00" fill="#000000">oom_init</text>
</g>
<!-- oom_reaper -->
<g id="node27" class="node">
<title>oom_reaper</title>
<ellipse fill="none" stroke="#000000" cx="485.1102" cy="-769" rx="53.0913" ry="18"/>
<text text-anchor="middle" x="485.1102" y="-765.3" font-family="Times,serif" font-size="14.00" fill="#000000">oom_reaper</text>
</g>
<!-- oom_init&#45;&gt;oom_reaper -->
<g id="edge15" class="edge">
<title>oom_init&#45;&gt;oom_reaper</title>
<path fill="none" stroke="#000000" stroke-dasharray="1,5" d="M229.0741,-769C279.5344,-769 363.4815,-769 421.4207,-769"/>
<polygon fill="#000000" stroke="#000000" points="421.5629,-772.5001 431.5628,-769 421.5628,-765.5001 421.5629,-772.5001"/>
</g>
<!-- oom_kill_memcg_member -->
<g id="node23" class="node">
<title>oom_kill_memcg_member</title>
<ellipse fill="none" stroke="#000000" cx="928.8772" cy="-515" rx="108.5808" ry="18"/>
<text text-anchor="middle" x="928.8772" y="-511.3" font-family="Times,serif" font-size="14.00" fill="#000000">oom_kill_memcg_member</text>
</g>
<!-- oom_kill_memcg_member&#45;&gt;__oom_kill_process -->
<g id="edge16" class="edge">
<title>oom_kill_memcg_member&#45;&gt;__oom_kill_process</title>
<path fill="none" stroke="#000000" d="M1026.1652,-506.9974C1041.3918,-505.7449 1057.0515,-504.4567 1072.0495,-503.223"/>
<polygon fill="#000000" stroke="#000000" points="1072.6341,-506.6869 1082.3135,-502.3788 1072.0601,-499.7104 1072.6341,-506.6869"/>
</g>
<!-- oom_kill_process -->
<g id="node24" class="node">
<title>oom_kill_process</title>
<ellipse fill="none" stroke="#000000" cx="691.395" cy="-450" rx="73.387" ry="18"/>
<text text-anchor="middle" x="691.395" y="-446.3" font-family="Times,serif" font-size="14.00" fill="#000000">oom_kill_process</text>
</g>
<!-- oom_kill_process&#45;&gt;__oom_kill_process -->
<g id="edge17" class="edge">
<title>oom_kill_process&#45;&gt;__oom_kill_process</title>
<path fill="none" stroke="#000000" d="M759.7645,-456.7134C843.0269,-464.8892 983.7169,-478.704 1074.1432,-487.5832"/>
<polygon fill="#000000" stroke="#000000" points="1074.0739,-491.0932 1084.3681,-488.5872 1074.758,-484.1267 1074.0739,-491.0932"/>
</g>
<!-- oom_kill_process&#45;&gt;dump_header -->
<g id="edge18" class="edge">
<title>oom_kill_process&#45;&gt;dump_header</title>
<path fill="none" stroke="#000000" d="M714.3604,-467.098C748.2635,-492.2295 808.9415,-536.7495 820.3368,-542 834.8762,-548.6992 851.3076,-553.8837 866.9046,-557.8344"/>
<polygon fill="#000000" stroke="#000000" points="866.4649,-561.3281 877.0053,-560.2559 868.0968,-554.521 866.4649,-561.3281"/>
</g>
<!-- oom_kill_process&#45;&gt;mark_oom_victim -->
<g id="edge19" class="edge">
<title>oom_kill_process&#45;&gt;mark_oom_victim</title>
<path fill="none" stroke="#000000" d="M762.6477,-445.4593C887.8622,-437.4797 1146.8077,-420.9778 1281.1423,-412.417"/>
<polygon fill="#000000" stroke="#000000" points="1281.626,-415.8933 1291.3831,-411.7644 1281.1807,-408.9075 1281.626,-415.8933"/>
</g>
<!-- oom_kill_process&#45;&gt;oom_kill_memcg_member -->
<g id="edge20" class="edge">
<title>oom_kill_process&#45;&gt;oom_kill_memcg_member</title>
<path fill="none" stroke="#000000" stroke-dasharray="1,5" d="M740.6015,-463.468C775.771,-473.0941 823.5063,-486.1595 862.1104,-496.7256"/>
<polygon fill="#000000" stroke="#000000" points="861.6561,-500.2299 872.2253,-499.4941 863.5041,-493.4783 861.6561,-500.2299"/>
</g>
<!-- task_will_free_mem -->
<g id="node41" class="node">
<title>task_will_free_mem</title>
<ellipse fill="none" stroke="#000000" cx="928.8772" cy="-309" rx="83.6854" ry="18"/>
<text text-anchor="middle" x="928.8772" y="-305.3" font-family="Times,serif" font-size="14.00" fill="#000000">task_will_free_mem</text>
</g>
<!-- oom_kill_process&#45;&gt;task_will_free_mem -->
<g id="edge21" class="edge">
<title>oom_kill_process&#45;&gt;task_will_free_mem</title>
<path fill="none" stroke="#000000" d="M719.5699,-433.2718C762.2773,-407.9152 843.4677,-359.7101 891.2046,-331.3673"/>
<polygon fill="#000000" stroke="#000000" points="893.1865,-334.261 899.9983,-326.1462 889.6128,-328.242 893.1865,-334.261"/>
</g>
<!-- oom_kill_process&#45;&gt;wake_oom_reaper -->
<g id="edge22" class="edge">
<title>oom_kill_process&#45;&gt;wake_oom_reaper</title>
<path fill="none" stroke="#000000" d="M746.4564,-438.0194C769.2545,-433.2879 796.0052,-428.0307 820.3368,-424 985.6368,-396.6171 1180.556,-373.4365 1286.9714,-361.548"/>
<polygon fill="#000000" stroke="#000000" points="1287.438,-365.0177 1296.9894,-360.4329 1286.6636,-358.0607 1287.438,-365.0177"/>
</g>
<!-- oom_killer_disable -->
<g id="node25" class="node">
<title>oom_killer_disable</title>
<ellipse fill="none" stroke="#000000" cx="185.8835" cy="-877" rx="79.0865" ry="18"/>
<text text-anchor="middle" x="185.8835" y="-873.3" font-family="Times,serif" font-size="14.00" fill="#000000">oom_killer_disable</text>
</g>
<!-- oom_killer_enable -->
<g id="node26" class="node">
<title>oom_killer_enable</title>
<ellipse fill="none" stroke="#000000" cx="485.1102" cy="-877" rx="77.1866" ry="18"/>
<text text-anchor="middle" x="485.1102" y="-873.3" font-family="Times,serif" font-size="14.00" fill="#000000">oom_killer_enable</text>
</g>
<!-- oom_killer_disable&#45;&gt;oom_killer_enable -->
<g id="edge23" class="edge">
<title>oom_killer_disable&#45;&gt;oom_killer_enable</title>
<path fill="none" stroke="#000000" d="M265.2852,-877C305.9927,-877 355.6687,-877 397.4922,-877"/>
<polygon fill="#000000" stroke="#000000" points="397.6681,-880.5001 407.668,-877 397.668,-873.5001 397.6681,-880.5001"/>
</g>
<!-- oom_reaper&#45;&gt;__oom_reap_task_mm -->
<g id="edge24" class="edge">
<title>oom_reaper&#45;&gt;__oom_reap_task_mm</title>
<path fill="none" stroke="#000000" d="M538.5019,-769C553.7701,-769 570.951,-769 588.1361,-769"/>
<polygon fill="#000000" stroke="#000000" points="588.2406,-772.5001 598.2405,-769 588.2405,-765.5001 588.2406,-772.5001"/>
</g>
<!-- out_of_memory -->
<g id="node28" class="node">
<title>out_of_memory</title>
<ellipse fill="none" stroke="#000000" cx="485.1102" cy="-450" rx="68.4888" ry="18"/>
<text text-anchor="middle" x="485.1102" y="-446.3" font-family="Times,serif" font-size="14.00" fill="#000000">out_of_memory</text>
</g>
<!-- out_of_memory&#45;&gt;dump_header -->
<g id="edge25" class="edge">
<title>out_of_memory&#45;&gt;dump_header</title>
<path fill="none" stroke="#000000" d="M531.9279,-463.231C596.642,-481.4321 717.138,-515.0076 820.3368,-542 837.3756,-546.4566 855.9654,-551.1445 872.8684,-555.3404"/>
<polygon fill="#000000" stroke="#000000" points="872.0532,-558.7441 882.6011,-557.7485 873.7345,-551.949 872.0532,-558.7441"/>
</g>
<!-- out_of_memory&#45;&gt;mark_oom_victim -->
<g id="edge26" class="edge">
<title>out_of_memory&#45;&gt;mark_oom_victim</title>
<path fill="none" stroke="#000000" d="M531.3045,-436.7118C551.7069,-431.4381 576.0909,-425.9375 598.4533,-423 844.0962,-390.7329 1137.6806,-396.8833 1280.1351,-402.677"/>
<polygon fill="#000000" stroke="#000000" points="1280.4058,-406.1912 1290.5428,-403.1107 1280.6973,-399.1973 1280.4058,-406.1912"/>
</g>
<!-- out_of_memory&#45;&gt;oom_cpuset_eligible -->
<g id="edge27" class="edge">
<title>out_of_memory&#45;&gt;oom_cpuset_eligible</title>
<path fill="none" stroke="#000000" d="M495.5502,-468.1927C513.3888,-497.9692 552.3157,-557.5394 598.4533,-595 683.7498,-664.2551 713.3164,-679.1325 820.3368,-704 988.6965,-743.1205 1193.8536,-712.8863 1298.1681,-692.1979"/>
<polygon fill="#000000" stroke="#000000" points="1299.1374,-695.573 1308.2485,-690.1658 1297.754,-688.711 1299.1374,-695.573"/>
</g>
<!-- out_of_memory&#45;&gt;oom_evaluate_task -->
<g id="edge28" class="edge">
<title>out_of_memory&#45;&gt;oom_evaluate_task</title>
<path fill="none" stroke="#000000" stroke-dasharray="1,5" d="M508.184,-467.2127C560.7775,-505.6478 694.7295,-599.0699 820.3368,-650 832.5974,-654.9713 846.02,-659.2089 859.1176,-662.7513"/>
<polygon fill="#000000" stroke="#000000" points="858.4871,-666.2034 869.0455,-665.3252 860.244,-659.4275 858.4871,-666.2034"/>
</g>
<!-- out_of_memory&#45;&gt;oom_kill_process -->
<g id="edge29" class="edge">
<title>out_of_memory&#45;&gt;oom_kill_process</title>
<path fill="none" stroke="#000000" d="M553.5135,-450C570.849,-450 589.667,-450 607.6665,-450"/>
<polygon fill="#000000" stroke="#000000" points="607.8588,-453.5001 617.8587,-450 607.8587,-446.5001 607.8588,-453.5001"/>
</g>
<!-- out_of_memory&#45;&gt;task_will_free_mem -->
<g id="edge30" class="edge">
<title>out_of_memory&#45;&gt;task_will_free_mem</title>
<path fill="none" stroke="#000000" d="M497.6549,-431.8922C516.333,-406.5778 554.0588,-361.4251 598.4533,-341 674.774,-305.8863 771.3101,-300.3852 840.2956,-302.1583"/>
<polygon fill="#000000" stroke="#000000" points="840.5901,-305.6692 850.6953,-302.4859 840.8105,-298.6727 840.5901,-305.6692"/>
</g>
<!-- out_of_memory&#45;&gt;wake_oom_reaper -->
<g id="edge31" class="edge">
<title>out_of_memory&#45;&gt;wake_oom_reaper</title>
<path fill="none" stroke="#000000" d="M492.4738,-432.0811C507.1078,-399.0704 543.2733,-329.2658 598.4533,-299 841.3512,-165.7727 1194.4018,-283.7866 1319.8208,-333.4547"/>
<polygon fill="#000000" stroke="#000000" points="1318.5691,-336.7236 1329.1536,-337.1918 1321.1713,-330.2252 1318.5691,-336.7236"/>
</g>
<!-- pagefault_out_of_memory -->
<g id="node29" class="node">
<title>pagefault_out_of_memory</title>
<ellipse fill="none" stroke="#000000" cx="185.8835" cy="-450" rx="104.7816" ry="18"/>
<text text-anchor="middle" x="185.8835" y="-446.3" font-family="Times,serif" font-size="14.00" fill="#000000">pagefault_out_of_memory</text>
</g>
<!-- pagefault_out_of_memory&#45;&gt;out_of_memory -->
<g id="edge32" class="edge">
<title>pagefault_out_of_memory&#45;&gt;out_of_memory</title>
<path fill="none" stroke="#000000" d="M290.5385,-450C328.5793,-450 370.8949,-450 406.3228,-450"/>
<polygon fill="#000000" stroke="#000000" points="406.6023,-453.5001 416.6022,-450 406.6022,-446.5001 406.6023,-453.5001"/>
</g>
<!-- perf_trace_compact_retry -->
<g id="node30" class="node">
<title>perf_trace_compact_retry</title>
<ellipse fill="none" stroke="#000000" cx="185.8835" cy="-931" rx="102.0819" ry="18"/>
<text text-anchor="middle" x="185.8835" y="-927.3" font-family="Times,serif" font-size="14.00" fill="#000000">perf_trace_compact_retry</text>
</g>
<!-- perf_trace_finish_task_reaping -->
<g id="node31" class="node">
<title>perf_trace_finish_task_reaping</title>
<ellipse fill="none" stroke="#000000" cx="185.8835" cy="-985" rx="119.6788" ry="18"/>
<text text-anchor="middle" x="185.8835" y="-981.3" font-family="Times,serif" font-size="14.00" fill="#000000">perf_trace_finish_task_reaping</text>
</g>
<!-- perf_trace_mark_victim -->
<g id="node32" class="node">
<title>perf_trace_mark_victim</title>
<ellipse fill="none" stroke="#000000" cx="185.8835" cy="-1039" rx="96.6831" ry="18"/>
<text text-anchor="middle" x="185.8835" y="-1035.3" font-family="Times,serif" font-size="14.00" fill="#000000">perf_trace_mark_victim</text>
</g>
<!-- perf_trace_oom_score_adj_update -->
<g id="node33" class="node">
<title>perf_trace_oom_score_adj_update</title>
<ellipse fill="none" stroke="#000000" cx="185.8835" cy="-1093" rx="132.6765" ry="18"/>
<text text-anchor="middle" x="185.8835" y="-1089.3" font-family="Times,serif" font-size="14.00" fill="#000000">perf_trace_oom_score_adj_update</text>
</g>
<!-- perf_trace_reclaim_retry_zone -->
<g id="node34" class="node">
<title>perf_trace_reclaim_retry_zone</title>
<ellipse fill="none" stroke="#000000" cx="185.8835" cy="-1147" rx="118.8789" ry="18"/>
<text text-anchor="middle" x="185.8835" y="-1143.3" font-family="Times,serif" font-size="14.00" fill="#000000">perf_trace_reclaim_retry_zone</text>
</g>
<!-- perf_trace_skip_task_reaping -->
<g id="node35" class="node">
<title>perf_trace_skip_task_reaping</title>
<ellipse fill="none" stroke="#000000" cx="185.8835" cy="-1201" rx="114.2798" ry="18"/>
<text text-anchor="middle" x="185.8835" y="-1197.3" font-family="Times,serif" font-size="14.00" fill="#000000">perf_trace_skip_task_reaping</text>
</g>
<!-- perf_trace_start_task_reaping -->
<g id="node36" class="node">
<title>perf_trace_start_task_reaping</title>
<ellipse fill="none" stroke="#000000" cx="185.8835" cy="-1255" rx="115.0796" ry="18"/>
<text text-anchor="middle" x="185.8835" y="-1251.3" font-family="Times,serif" font-size="14.00" fill="#000000">perf_trace_start_task_reaping</text>
</g>
<!-- perf_trace_wake_reaper -->
<g id="node37" class="node">
<title>perf_trace_wake_reaper</title>
<ellipse fill="none" stroke="#000000" cx="185.8835" cy="-1309" rx="94.7833" ry="18"/>
<text text-anchor="middle" x="185.8835" y="-1305.3" font-family="Times,serif" font-size="14.00" fill="#000000">perf_trace_wake_reaper</text>
</g>
<!-- process_shares_mm -->
<g id="node38" class="node">
<title>process_shares_mm</title>
<ellipse fill="none" stroke="#000000" cx="185.8835" cy="-1363" rx="82.5854" ry="18"/>
<text text-anchor="middle" x="185.8835" y="-1359.3" font-family="Times,serif" font-size="14.00" fill="#000000">process_shares_mm</text>
</g>
<!-- register_oom_notifier -->
<g id="node40" class="node">
<title>register_oom_notifier</title>
<ellipse fill="none" stroke="#000000" cx="185.8835" cy="-1417" rx="87.1846" ry="18"/>
<text text-anchor="middle" x="185.8835" y="-1413.3" font-family="Times,serif" font-size="14.00" fill="#000000">register_oom_notifier</text>
</g>
<!-- trace_event_define_fields_compact_retry -->
<g id="node42" class="node">
<title>trace_event_define_fields_compact_retry</title>
<ellipse fill="none" stroke="#000000" cx="185.8835" cy="-1471" rx="155.1726" ry="18"/>
<text text-anchor="middle" x="185.8835" y="-1467.3" font-family="Times,serif" font-size="14.00" fill="#000000">trace_event_define_fields_compact_retry</text>
</g>
<!-- trace_event_define_fields_finish_task_reaping -->
<g id="node43" class="node">
<title>trace_event_define_fields_finish_task_reaping</title>
<ellipse fill="none" stroke="#000000" cx="185.8835" cy="-1525" rx="172.7694" ry="18"/>
<text text-anchor="middle" x="185.8835" y="-1521.3" font-family="Times,serif" font-size="14.00" fill="#000000">trace_event_define_fields_finish_task_reaping</text>
</g>
<!-- trace_event_define_fields_mark_victim -->
<g id="node44" class="node">
<title>trace_event_define_fields_mark_victim</title>
<ellipse fill="none" stroke="#000000" cx="185.8835" cy="-1579" rx="149.4735" ry="18"/>
<text text-anchor="middle" x="185.8835" y="-1575.3" font-family="Times,serif" font-size="14.00" fill="#000000">trace_event_define_fields_mark_victim</text>
</g>
<!-- trace_event_define_fields_oom_score_adj_update -->
<g id="node45" class="node">
<title>trace_event_define_fields_oom_score_adj_update</title>
<ellipse fill="none" stroke="#000000" cx="185.8835" cy="-1633" rx="185.7671" ry="18"/>
<text text-anchor="middle" x="185.8835" y="-1629.3" font-family="Times,serif" font-size="14.00" fill="#000000">trace_event_define_fields_oom_score_adj_update</text>
</g>
<!-- trace_event_define_fields_reclaim_retry_zone -->
<g id="node46" class="node">
<title>trace_event_define_fields_reclaim_retry_zone</title>
<ellipse fill="none" stroke="#000000" cx="185.8835" cy="-1687" rx="172.4698" ry="18"/>
<text text-anchor="middle" x="185.8835" y="-1683.3" font-family="Times,serif" font-size="14.00" fill="#000000">trace_event_define_fields_reclaim_retry_zone</text>
</g>
<!-- trace_event_define_fields_skip_task_reaping -->
<g id="node47" class="node">
<title>trace_event_define_fields_skip_task_reaping</title>
<ellipse fill="none" stroke="#000000" cx="185.8835" cy="-1741" rx="167.8704" ry="18"/>
<text text-anchor="middle" x="185.8835" y="-1737.3" font-family="Times,serif" font-size="14.00" fill="#000000">trace_event_define_fields_skip_task_reaping</text>
</g>
<!-- trace_event_define_fields_start_task_reaping -->
<g id="node48" class="node">
<title>trace_event_define_fields_start_task_reaping</title>
<ellipse fill="none" stroke="#000000" cx="185.8835" cy="-1795" rx="168.1703" ry="18"/>
<text text-anchor="middle" x="185.8835" y="-1791.3" font-family="Times,serif" font-size="14.00" fill="#000000">trace_event_define_fields_start_task_reaping</text>
</g>
<!-- trace_event_define_fields_wake_reaper -->
<g id="node49" class="node">
<title>trace_event_define_fields_wake_reaper</title>
<ellipse fill="none" stroke="#000000" cx="185.8835" cy="-1849" rx="148.3739" ry="18"/>
<text text-anchor="middle" x="185.8835" y="-1845.3" font-family="Times,serif" font-size="14.00" fill="#000000">trace_event_define_fields_wake_reaper</text>
</g>
<!-- trace_event_raw_event_compact_retry -->
<g id="node50" class="node">
<title>trace_event_raw_event_compact_retry</title>
<ellipse fill="none" stroke="#000000" cx="185.8835" cy="-1903" rx="145.6742" ry="18"/>
<text text-anchor="middle" x="185.8835" y="-1899.3" font-family="Times,serif" font-size="14.00" fill="#000000">trace_event_raw_event_compact_retry</text>
</g>
<!-- trace_event_raw_event_finish_task_reaping -->
<g id="node51" class="node">
<title>trace_event_raw_event_finish_task_reaping</title>
<ellipse fill="none" stroke="#000000" cx="185.8835" cy="-1957" rx="163.2712" ry="18"/>
<text text-anchor="middle" x="185.8835" y="-1953.3" font-family="Times,serif" font-size="14.00" fill="#000000">trace_event_raw_event_finish_task_reaping</text>
</g>
<!-- trace_event_raw_event_mark_victim -->
<g id="node52" class="node">
<title>trace_event_raw_event_mark_victim</title>
<ellipse fill="none" stroke="#000000" cx="185.8835" cy="-2011" rx="139.9756" ry="18"/>
<text text-anchor="middle" x="185.8835" y="-2007.3" font-family="Times,serif" font-size="14.00" fill="#000000">trace_event_raw_event_mark_victim</text>
</g>
<!-- trace_event_raw_event_oom_score_adj_update -->
<g id="node53" class="node">
<title>trace_event_raw_event_oom_score_adj_update</title>
<ellipse fill="none" stroke="#000000" cx="185.8835" cy="-2065" rx="176.2688" ry="18"/>
<text text-anchor="middle" x="185.8835" y="-2061.3" font-family="Times,serif" font-size="14.00" fill="#000000">trace_event_raw_event_oom_score_adj_update</text>
</g>
<!-- trace_event_raw_event_reclaim_retry_zone -->
<g id="node54" class="node">
<title>trace_event_raw_event_reclaim_retry_zone</title>
<ellipse fill="none" stroke="#000000" cx="185.8835" cy="-2119" rx="162.4712" ry="18"/>
<text text-anchor="middle" x="185.8835" y="-2115.3" font-family="Times,serif" font-size="14.00" fill="#000000">trace_event_raw_event_reclaim_retry_zone</text>
</g>
<!-- trace_event_raw_event_skip_task_reaping -->
<g id="node55" class="node">
<title>trace_event_raw_event_skip_task_reaping</title>
<ellipse fill="none" stroke="#000000" cx="185.8835" cy="-2173" rx="157.872" ry="18"/>
<text text-anchor="middle" x="185.8835" y="-2169.3" font-family="Times,serif" font-size="14.00" fill="#000000">trace_event_raw_event_skip_task_reaping</text>
</g>
<!-- trace_event_raw_event_start_task_reaping -->
<g id="node56" class="node">
<title>trace_event_raw_event_start_task_reaping</title>
<ellipse fill="none" stroke="#000000" cx="185.8835" cy="-2227" rx="158.6719" ry="18"/>
<text text-anchor="middle" x="185.8835" y="-2223.3" font-family="Times,serif" font-size="14.00" fill="#000000">trace_event_raw_event_start_task_reaping</text>
</g>
<!-- trace_event_raw_event_wake_reaper -->
<g id="node57" class="node">
<title>trace_event_raw_event_wake_reaper</title>
<ellipse fill="none" stroke="#000000" cx="185.8835" cy="-2281" rx="138.3755" ry="18"/>
<text text-anchor="middle" x="185.8835" y="-2277.3" font-family="Times,serif" font-size="14.00" fill="#000000">trace_event_raw_event_wake_reaper</text>
</g>
<!-- trace_raw_output_compact_retry -->
<g id="node58" class="node">
<title>trace_raw_output_compact_retry</title>
<ellipse fill="none" stroke="#000000" cx="185.8835" cy="-2335" rx="127.2775" ry="18"/>
<text text-anchor="middle" x="185.8835" y="-2331.3" font-family="Times,serif" font-size="14.00" fill="#000000">trace_raw_output_compact_retry</text>
</g>
<!-- trace_raw_output_finish_task_reaping -->
<g id="node59" class="node">
<title>trace_raw_output_finish_task_reaping</title>
<ellipse fill="none" stroke="#000000" cx="185.8835" cy="-2389" rx="144.8743" ry="18"/>
<text text-anchor="middle" x="185.8835" y="-2385.3" font-family="Times,serif" font-size="14.00" fill="#000000">trace_raw_output_finish_task_reaping</text>
</g>
<!-- trace_raw_output_mark_victim -->
<g id="node60" class="node">
<title>trace_raw_output_mark_victim</title>
<ellipse fill="none" stroke="#000000" cx="185.8835" cy="-2443" rx="122.3786" ry="18"/>
<text text-anchor="middle" x="185.8835" y="-2439.3" font-family="Times,serif" font-size="14.00" fill="#000000">trace_raw_output_mark_victim</text>
</g>
<!-- trace_raw_output_oom_score_adj_update -->
<g id="node61" class="node">
<title>trace_raw_output_oom_score_adj_update</title>
<ellipse fill="none" stroke="#000000" cx="185.8835" cy="-2497" rx="157.872" ry="18"/>
<text text-anchor="middle" x="185.8835" y="-2493.3" font-family="Times,serif" font-size="14.00" fill="#000000">trace_raw_output_oom_score_adj_update</text>
</g>
<!-- trace_raw_output_reclaim_retry_zone -->
<g id="node62" class="node">
<title>trace_raw_output_reclaim_retry_zone</title>
<ellipse fill="none" stroke="#000000" cx="185.8835" cy="-2551" rx="144.0747" ry="18"/>
<text text-anchor="middle" x="185.8835" y="-2547.3" font-family="Times,serif" font-size="14.00" fill="#000000">trace_raw_output_reclaim_retry_zone</text>
</g>
<!-- trace_raw_output_skip_task_reaping -->
<g id="node63" class="node">
<title>trace_raw_output_skip_task_reaping</title>
<ellipse fill="none" stroke="#000000" cx="185.8835" cy="-2605" rx="139.9756" ry="18"/>
<text text-anchor="middle" x="185.8835" y="-2601.3" font-family="Times,serif" font-size="14.00" fill="#000000">trace_raw_output_skip_task_reaping</text>
</g>
<!-- trace_raw_output_start_task_reaping -->
<g id="node64" class="node">
<title>trace_raw_output_start_task_reaping</title>
<ellipse fill="none" stroke="#000000" cx="185.8835" cy="-2659" rx="140.2752" ry="18"/>
<text text-anchor="middle" x="185.8835" y="-2655.3" font-family="Times,serif" font-size="14.00" fill="#000000">trace_raw_output_start_task_reaping</text>
</g>
<!-- trace_raw_output_wake_reaper -->
<g id="node65" class="node">
<title>trace_raw_output_wake_reaper</title>
<ellipse fill="none" stroke="#000000" cx="185.8835" cy="-2713" rx="120.4791" ry="18"/>
<text text-anchor="middle" x="185.8835" y="-2709.3" font-family="Times,serif" font-size="14.00" fill="#000000">trace_raw_output_wake_reaper</text>
</g>
<!-- unregister_oom_notifier -->
<g id="node66" class="node">
<title>unregister_oom_notifier</title>
<ellipse fill="none" stroke="#000000" cx="185.8835" cy="-2767" rx="96.3833" ry="18"/>
<text text-anchor="middle" x="185.8835" y="-2763.3" font-family="Times,serif" font-size="14.00" fill="#000000">unregister_oom_notifier</text>
</g>
</g>
</svg>
