<?xml version="1.0" encoding="UTF-8" standalone="no"?>
<!DOCTYPE svg PUBLIC "-//W3C//DTD SVG 1.1//EN"
 "http://www.w3.org/Graphics/SVG/1.1/DTD/svg11.dtd">
<!-- Generated by graphviz version 2.43.0 (0)
 -->
<!-- Title: callgraph Pages: 1 -->
<svg width="2567pt" height="1069pt"
 viewBox="0.00 0.00 2567.30 1069.18" xmlns="http://www.w3.org/2000/svg" xmlns:xlink="http://www.w3.org/1999/xlink">
<g id="graph0" class="graph" transform="scale(1 1) rotate(0) translate(4 1065.18)">
<title>callgraph</title>
<polygon fill="white" stroke="transparent" points="-4,4 -4,-1065.18 2563.3,-1065.18 2563.3,4 -4,4"/>
<!-- ___might_sleep.isra.0 -->
<g id="node1" class="node">
<title>___might_sleep.isra.0</title>
<ellipse fill="none" stroke="black" cx="400.62" cy="-562.18" rx="109.38" ry="18"/>
<text text-anchor="middle" x="400.62" y="-558.48" font-family="Times,serif" font-size="14.00">___might_sleep.isra.0</text>
</g>
<!-- __nr_to_section -->
<g id="node2" class="node">
<title>__nr_to_section</title>
<ellipse fill="none" stroke="black" cx="987.37" cy="-227.18" rx="81.49" ry="18"/>
<text text-anchor="middle" x="987.37" y="-223.48" font-family="Times,serif" font-size="14.00">__nr_to_section</text>
</g>
<!-- __raw_spin_unlock_irq -->
<g id="node3" class="node">
<title>__raw_spin_unlock_irq</title>
<ellipse fill="none" stroke="black" cx="673.85" cy="-697.18" rx="113.18" ry="18"/>
<text text-anchor="middle" x="673.85" y="-693.48" font-family="Times,serif" font-size="14.00">__raw_spin_unlock_irq</text>
</g>
<!-- arch_local_irq_enable -->
<g id="node4" class="node">
<title>arch_local_irq_enable</title>
<ellipse fill="none" stroke="black" cx="987.37" cy="-697.18" rx="109.68" ry="18"/>
<text text-anchor="middle" x="987.37" y="-693.48" font-family="Times,serif" font-size="14.00">arch_local_irq_enable</text>
</g>
<!-- __raw_spin_unlock_irq&#45;&gt;arch_local_irq_enable -->
<g id="edge1" class="edge">
<title>__raw_spin_unlock_irq&#45;&gt;arch_local_irq_enable</title>
<path fill="none" stroke="black" d="M787.31,-697.18C813.35,-697.18 841.15,-697.18 867.45,-697.18"/>
<polygon fill="black" stroke="black" points="867.46,-700.68 877.46,-697.18 867.46,-693.68 867.46,-700.68"/>
</g>
<!-- do_raw_spin_unlock -->
<g id="node5" class="node">
<title>do_raw_spin_unlock</title>
<ellipse fill="none" stroke="black" cx="987.37" cy="-751.18" rx="102.88" ry="18"/>
<text text-anchor="middle" x="987.37" y="-747.48" font-family="Times,serif" font-size="14.00">do_raw_spin_unlock</text>
</g>
<!-- __raw_spin_unlock_irq&#45;&gt;do_raw_spin_unlock -->
<g id="edge2" class="edge">
<title>__raw_spin_unlock_irq&#45;&gt;do_raw_spin_unlock</title>
<path fill="none" stroke="black" d="M748.25,-710.81C772.06,-715.17 798.6,-719.96 822.94,-724.18 848.33,-728.59 875.96,-733.23 901.17,-737.38"/>
<polygon fill="black" stroke="black" points="900.63,-740.84 911.06,-739.01 901.77,-733.93 900.63,-740.84"/>
</g>
<!-- queued_spin_unlock -->
<g id="node17" class="node">
<title>queued_spin_unlock</title>
<ellipse fill="none" stroke="black" cx="1343.14" cy="-751.18" rx="103.18" ry="18"/>
<text text-anchor="middle" x="1343.14" y="-747.48" font-family="Times,serif" font-size="14.00">queued_spin_unlock</text>
</g>
<!-- do_raw_spin_unlock&#45;&gt;queued_spin_unlock -->
<g id="edge12" class="edge">
<title>do_raw_spin_unlock&#45;&gt;queued_spin_unlock</title>
<path fill="none" stroke="black" d="M1090.22,-751.18C1133.87,-751.18 1185,-751.18 1229.75,-751.18"/>
<polygon fill="black" stroke="black" points="1229.79,-754.68 1239.79,-751.18 1229.79,-747.68 1229.79,-754.68"/>
</g>
<!-- atomic_add_unless.constprop.0 -->
<g id="node6" class="node">
<title>atomic_add_unless.constprop.0</title>
<ellipse fill="none" stroke="black" cx="1343.14" cy="-297.18" rx="155.17" ry="18"/>
<text text-anchor="middle" x="1343.14" y="-293.48" font-family="Times,serif" font-size="14.00">atomic_add_unless.constprop.0</text>
</g>
<!-- atomic_fetch_add_unless.constprop.0 -->
<g id="node7" class="node">
<title>atomic_fetch_add_unless.constprop.0</title>
<ellipse fill="none" stroke="black" cx="1717.76" cy="-149.18" rx="183.07" ry="18"/>
<text text-anchor="middle" x="1717.76" y="-145.48" font-family="Times,serif" font-size="14.00">atomic_fetch_add_unless.constprop.0</text>
</g>
<!-- atomic_add_unless.constprop.0&#45;&gt;atomic_fetch_add_unless.constprop.0 -->
<g id="edge3" class="edge">
<title>atomic_add_unless.constprop.0&#45;&gt;atomic_fetch_add_unless.constprop.0</title>
<path fill="none" stroke="black" d="M1469.84,-286.65C1480.15,-282.46 1489.88,-277.07 1498.48,-270.18 1531.13,-244.01 1501.98,-209.54 1534.48,-183.18 1543.95,-175.5 1554.62,-169.35 1565.91,-164.44"/>
<polygon fill="black" stroke="black" points="1567.54,-167.56 1575.53,-160.6 1564.94,-161.05 1567.54,-167.56"/>
</g>
<!-- __stack_chk_fail -->
<g id="node10" class="node">
<title>__stack_chk_fail</title>
<ellipse fill="none" stroke="black" stroke-dasharray="5,2" cx="2104.08" cy="-199.18" rx="83.39" ry="18"/>
<text text-anchor="middle" x="2104.08" y="-195.48" font-family="Times,serif" font-size="14.00">__stack_chk_fail</text>
</g>
<!-- atomic_fetch_add_unless.constprop.0&#45;&gt;__stack_chk_fail -->
<g id="edge5" class="edge">
<title>atomic_fetch_add_unless.constprop.0&#45;&gt;__stack_chk_fail</title>
<path fill="none" stroke="black" d="M1828.89,-163.51C1890.49,-171.53 1965.94,-181.34 2022.08,-188.65"/>
<polygon fill="black" stroke="black" points="2021.97,-192.16 2032.34,-189.98 2022.87,-185.22 2021.97,-192.16"/>
</g>
<!-- atomic_read -->
<g id="node11" class="node">
<title>atomic_read</title>
<ellipse fill="none" stroke="black" cx="2104.08" cy="-91.18" rx="67.69" ry="18"/>
<text text-anchor="middle" x="2104.08" y="-87.48" font-family="Times,serif" font-size="14.00">atomic_read</text>
</g>
<!-- atomic_fetch_add_unless.constprop.0&#45;&gt;atomic_read -->
<g id="edge6" class="edge">
<title>atomic_fetch_add_unless.constprop.0&#45;&gt;atomic_read</title>
<path fill="none" stroke="black" d="M1818.49,-134.13C1886.5,-123.87 1974.8,-110.54 2034.88,-101.48"/>
<polygon fill="black" stroke="black" points="2035.65,-104.9 2045.02,-99.95 2034.61,-97.98 2035.65,-104.9"/>
</g>
<!-- atomic_try_cmpxchg -->
<g id="node12" class="node">
<title>atomic_try_cmpxchg</title>
<ellipse fill="none" stroke="black" cx="2104.08" cy="-145.18" rx="105.88" ry="18"/>
<text text-anchor="middle" x="2104.08" y="-141.48" font-family="Times,serif" font-size="14.00">atomic_try_cmpxchg</text>
</g>
<!-- atomic_fetch_add_unless.constprop.0&#45;&gt;atomic_try_cmpxchg -->
<g id="edge7" class="edge">
<title>atomic_fetch_add_unless.constprop.0&#45;&gt;atomic_try_cmpxchg</title>
<path fill="none" stroke="black" d="M1900.23,-147.29C1930.18,-146.98 1960.47,-146.67 1988.19,-146.38"/>
<polygon fill="black" stroke="black" points="1988.32,-149.88 1998.28,-146.27 1988.24,-142.88 1988.32,-149.88"/>
</g>
<!-- atomic_dec_and_test -->
<g id="node8" class="node">
<title>atomic_dec_and_test</title>
<ellipse fill="none" stroke="black" cx="2104.08" cy="-562.18" rx="106.68" ry="18"/>
<text text-anchor="middle" x="2104.08" y="-558.48" font-family="Times,serif" font-size="14.00">atomic_dec_and_test</text>
</g>
<!-- kasan_check_write.isra.0 -->
<g id="node9" class="node">
<title>kasan_check_write.isra.0</title>
<ellipse fill="none" stroke="black" cx="2433.21" cy="-562.18" rx="126.18" ry="18"/>
<text text-anchor="middle" x="2433.21" y="-558.48" font-family="Times,serif" font-size="14.00">kasan_check_write.isra.0</text>
</g>
<!-- atomic_dec_and_test&#45;&gt;kasan_check_write.isra.0 -->
<g id="edge4" class="edge">
<title>atomic_dec_and_test&#45;&gt;kasan_check_write.isra.0</title>
<path fill="none" stroke="black" d="M2210.84,-562.18C2238.22,-562.18 2268.09,-562.18 2296.77,-562.18"/>
<polygon fill="black" stroke="black" points="2296.85,-565.68 2306.85,-562.18 2296.85,-558.68 2296.85,-565.68"/>
</g>
<!-- kasan_check_read.isra.0 -->
<g id="node13" class="node">
<title>kasan_check_read.isra.0</title>
<ellipse fill="none" stroke="black" cx="2433.21" cy="-68.18" rx="122.68" ry="18"/>
<text text-anchor="middle" x="2433.21" y="-64.48" font-family="Times,serif" font-size="14.00">kasan_check_read.isra.0</text>
</g>
<!-- atomic_read&#45;&gt;kasan_check_read.isra.0 -->
<g id="edge8" class="edge">
<title>atomic_read&#45;&gt;kasan_check_read.isra.0</title>
<path fill="none" stroke="black" d="M2169.71,-86.64C2210.22,-83.79 2263.68,-80.03 2311.79,-76.65"/>
<polygon fill="black" stroke="black" points="2312.24,-80.13 2321.97,-75.93 2311.75,-73.14 2312.24,-80.13"/>
</g>
<!-- atomic_try_cmpxchg&#45;&gt;kasan_check_write.isra.0 -->
<g id="edge9" class="edge">
<title>atomic_try_cmpxchg&#45;&gt;kasan_check_write.isra.0</title>
<path fill="none" stroke="black" d="M2210.11,-146.01C2232.02,-150.42 2253.72,-158.4 2271.12,-172.18 2389.08,-265.66 2421.45,-460.29 2429.64,-533.51"/>
<polygon fill="black" stroke="black" points="2426.2,-534.21 2430.72,-543.79 2433.16,-533.48 2426.2,-534.21"/>
</g>
<!-- clear_bit.constprop.0 -->
<g id="node14" class="node">
<title>clear_bit.constprop.0</title>
<ellipse fill="none" stroke="black" cx="2104.08" cy="-439.18" rx="108.58" ry="18"/>
<text text-anchor="middle" x="2104.08" y="-435.48" font-family="Times,serif" font-size="14.00">clear_bit.constprop.0</text>
</g>
<!-- clear_bit.constprop.0&#45;&gt;kasan_check_write.isra.0 -->
<g id="edge10" class="edge">
<title>clear_bit.constprop.0&#45;&gt;kasan_check_write.isra.0</title>
<path fill="none" stroke="black" d="M2148.86,-455.64C2208.06,-477.9 2313.61,-517.59 2377.83,-541.74"/>
<polygon fill="black" stroke="black" points="2376.79,-545.08 2387.38,-545.33 2379.25,-538.53 2376.79,-545.08"/>
</g>
<!-- clear_page_idle -->
<g id="node15" class="node">
<title>clear_page_idle</title>
<ellipse fill="none" stroke="black" cx="1717.76" cy="-405.18" rx="81.79" ry="18"/>
<text text-anchor="middle" x="1717.76" y="-401.48" font-family="Times,serif" font-size="14.00">clear_page_idle</text>
</g>
<!-- clear_page_idle&#45;&gt;clear_bit.constprop.0 -->
<g id="edge11" class="edge">
<title>clear_page_idle&#45;&gt;clear_bit.constprop.0</title>
<path fill="none" stroke="black" d="M1794.23,-411.86C1852.33,-417 1933.34,-424.17 1997.81,-429.87"/>
<polygon fill="black" stroke="black" points="1997.74,-433.38 2008.01,-430.77 1998.36,-426.4 1997.74,-433.38"/>
</g>
<!-- compound_head -->
<g id="node16" class="node">
<title>compound_head</title>
<ellipse fill="none" stroke="black" cx="987.37" cy="-901.18" rx="85.29" ry="18"/>
<text text-anchor="middle" x="987.37" y="-897.48" font-family="Times,serif" font-size="14.00">compound_head</text>
</g>
<!-- early_section -->
<g id="node18" class="node">
<title>early_section</title>
<ellipse fill="none" stroke="black" cx="987.37" cy="-173.18" rx="71.49" ry="18"/>
<text text-anchor="middle" x="987.37" y="-169.48" font-family="Times,serif" font-size="14.00">early_section</text>
</g>
<!-- get_page_unless_zero -->
<g id="node19" class="node">
<title>get_page_unless_zero</title>
<ellipse fill="none" stroke="black" cx="673.85" cy="-443.18" rx="111.28" ry="18"/>
<text text-anchor="middle" x="673.85" y="-439.48" font-family="Times,serif" font-size="14.00">get_page_unless_zero</text>
</g>
<!-- page_ref_add_unless.constprop.0 -->
<g id="node20" class="node">
<title>page_ref_add_unless.constprop.0</title>
<ellipse fill="none" stroke="black" cx="987.37" cy="-443.18" rx="164.37" ry="18"/>
<text text-anchor="middle" x="987.37" y="-439.48" font-family="Times,serif" font-size="14.00">page_ref_add_unless.constprop.0</text>
</g>
<!-- get_page_unless_zero&#45;&gt;page_ref_add_unless.constprop.0 -->
<g id="edge13" class="edge">
<title>get_page_unless_zero&#45;&gt;page_ref_add_unless.constprop.0</title>
<path fill="none" stroke="black" d="M785.12,-443.18C794.11,-443.18 803.33,-443.18 812.64,-443.18"/>
<polygon fill="black" stroke="black" points="812.77,-446.68 822.77,-443.18 812.77,-439.68 812.77,-446.68"/>
</g>
<!-- page_ref_add_unless.constprop.0&#45;&gt;atomic_add_unless.constprop.0 -->
<g id="edge54" class="edge">
<title>page_ref_add_unless.constprop.0&#45;&gt;atomic_add_unless.constprop.0</title>
<path fill="none" stroke="black" d="M1123.2,-432.92C1133.49,-428.63 1143.2,-423.15 1151.81,-416.18 1185.93,-388.55 1153.82,-351.98 1187.81,-324.18 1193.6,-319.45 1199.93,-315.42 1206.61,-312"/>
<polygon fill="black" stroke="black" points="1208.31,-315.07 1215.92,-307.7 1205.38,-308.71 1208.31,-315.07"/>
</g>
<!-- is_zone_device_page -->
<g id="node21" class="node">
<title>is_zone_device_page</title>
<ellipse fill="none" stroke="black" cx="1343.14" cy="-551.18" rx="105.08" ry="18"/>
<text text-anchor="middle" x="1343.14" y="-547.48" font-family="Times,serif" font-size="14.00">is_zone_device_page</text>
</g>
<!-- page_zonenum.isra.0 -->
<g id="node22" class="node">
<title>page_zonenum.isra.0</title>
<ellipse fill="none" stroke="black" cx="1717.76" cy="-567.18" rx="108.58" ry="18"/>
<text text-anchor="middle" x="1717.76" y="-563.48" font-family="Times,serif" font-size="14.00">page_zonenum.isra.0</text>
</g>
<!-- is_zone_device_page&#45;&gt;page_zonenum.isra.0 -->
<g id="edge14" class="edge">
<title>is_zone_device_page&#45;&gt;page_zonenum.isra.0</title>
<path fill="none" stroke="black" d="M1445.47,-555.53C1493.96,-557.62 1552.22,-560.12 1602.31,-562.27"/>
<polygon fill="black" stroke="black" points="1602.39,-565.78 1612.54,-562.71 1602.69,-558.78 1602.39,-565.78"/>
</g>
<!-- mm_has_notifiers -->
<g id="node23" class="node">
<title>mm_has_notifiers</title>
<ellipse fill="none" stroke="black" cx="2104.08" cy="-307.18" rx="91.78" ry="18"/>
<text text-anchor="middle" x="2104.08" y="-303.48" font-family="Times,serif" font-size="14.00">mm_has_notifiers</text>
</g>
<!-- mmu_notifier_clear_young -->
<g id="node24" class="node">
<title>mmu_notifier_clear_young</title>
<ellipse fill="none" stroke="black" cx="1717.76" cy="-243.18" rx="131.88" ry="18"/>
<text text-anchor="middle" x="1717.76" y="-239.48" font-family="Times,serif" font-size="14.00">mmu_notifier_clear_young</text>
</g>
<!-- mmu_notifier_clear_young&#45;&gt;mm_has_notifiers -->
<g id="edge16" class="edge">
<title>mmu_notifier_clear_young&#45;&gt;mm_has_notifiers</title>
<path fill="none" stroke="black" d="M1815.66,-255.26C1843.36,-259.33 1873.51,-264.34 1901.05,-270.18 1917.29,-273.63 1920.83,-276.62 1937.05,-280.18 1963.48,-285.98 1992.53,-291.12 2018.84,-295.32"/>
<polygon fill="black" stroke="black" points="2018.36,-298.79 2028.78,-296.88 2019.44,-291.87 2018.36,-298.79"/>
</g>
<!-- __mmu_notifier_clear_young -->
<g id="node25" class="node">
<title>__mmu_notifier_clear_young</title>
<ellipse fill="none" stroke="black" stroke-dasharray="5,2" cx="2104.08" cy="-253.18" rx="141.07" ry="18"/>
<text text-anchor="middle" x="2104.08" y="-249.48" font-family="Times,serif" font-size="14.00">__mmu_notifier_clear_young</text>
</g>
<!-- mmu_notifier_clear_young&#45;&gt;__mmu_notifier_clear_young -->
<g id="edge15" class="edge">
<title>mmu_notifier_clear_young&#45;&gt;__mmu_notifier_clear_young</title>
<path fill="none" stroke="black" d="M1847.54,-246.53C1882.08,-247.43 1919.71,-248.41 1955.2,-249.34"/>
<polygon fill="black" stroke="black" points="1955.56,-252.85 1965.64,-249.61 1955.74,-245.85 1955.56,-252.85"/>
</g>
<!-- page_idle_bitmap_read -->
<g id="node26" class="node">
<title>page_idle_bitmap_read</title>
<ellipse fill="none" stroke="black" cx="120.24" cy="-539.18" rx="116.98" ry="18"/>
<text text-anchor="middle" x="120.24" y="-535.48" font-family="Times,serif" font-size="14.00">page_idle_bitmap_read</text>
</g>
<!-- page_idle_bitmap_read&#45;&gt;___might_sleep.isra.0 -->
<g id="edge17" class="edge">
<title>page_idle_bitmap_read&#45;&gt;___might_sleep.isra.0</title>
<path fill="none" stroke="black" d="M223.71,-547.65C246.03,-549.49 269.7,-551.45 292.2,-553.31"/>
<polygon fill="black" stroke="black" points="292.2,-556.82 302.45,-554.16 292.77,-549.84 292.2,-556.82"/>
</g>
<!-- _cond_resched -->
<g id="node27" class="node">
<title>_cond_resched</title>
<ellipse fill="none" stroke="black" stroke-dasharray="5,2" cx="400.62" cy="-616.18" rx="77.99" ry="18"/>
<text text-anchor="middle" x="400.62" y="-612.48" font-family="Times,serif" font-size="14.00">_cond_resched</text>
</g>
<!-- page_idle_bitmap_read&#45;&gt;_cond_resched -->
<g id="edge18" class="edge">
<title>page_idle_bitmap_read&#45;&gt;_cond_resched</title>
<path fill="none" stroke="black" d="M168.45,-555.69C199.03,-566.06 239.85,-579.29 276.48,-589.18 294.13,-593.95 313.37,-598.48 331.29,-602.42"/>
<polygon fill="black" stroke="black" points="330.57,-605.85 341.09,-604.55 332.05,-599.01 330.57,-605.85"/>
</g>
<!-- page_idle_clear_pte_refs -->
<g id="node28" class="node">
<title>page_idle_clear_pte_refs</title>
<ellipse fill="none" stroke="black" cx="400.62" cy="-870.18" rx="124.28" ry="18"/>
<text text-anchor="middle" x="400.62" y="-866.48" font-family="Times,serif" font-size="14.00">page_idle_clear_pte_refs</text>
</g>
<!-- page_idle_bitmap_read&#45;&gt;page_idle_clear_pte_refs -->
<g id="edge19" class="edge">
<title>page_idle_bitmap_read&#45;&gt;page_idle_clear_pte_refs</title>
<path fill="none" stroke="black" d="M164.07,-555.93C189.68,-567.98 220.94,-586.64 240.48,-612.18 275.09,-657.42 248.57,-685.53 276.48,-735.18 301.1,-778.98 342.38,-820.25 370.29,-845.36"/>
<polygon fill="black" stroke="black" points="368.33,-848.3 378.13,-852.31 372.97,-843.06 368.33,-848.3"/>
</g>
<!-- page_idle_get_page -->
<g id="node29" class="node">
<title>page_idle_get_page</title>
<ellipse fill="none" stroke="black" cx="400.62" cy="-470.18" rx="100.98" ry="18"/>
<text text-anchor="middle" x="400.62" y="-466.48" font-family="Times,serif" font-size="14.00">page_idle_get_page</text>
</g>
<!-- page_idle_bitmap_read&#45;&gt;page_idle_get_page -->
<g id="edge20" class="edge">
<title>page_idle_bitmap_read&#45;&gt;page_idle_get_page</title>
<path fill="none" stroke="black" d="M182.68,-523.96C226.53,-513.08 285.55,-498.46 330.96,-487.2"/>
<polygon fill="black" stroke="black" points="331.86,-490.58 340.72,-484.78 330.17,-483.79 331.86,-490.58"/>
</g>
<!-- page_is_idle -->
<g id="node30" class="node">
<title>page_is_idle</title>
<ellipse fill="none" stroke="black" cx="400.62" cy="-212.18" rx="66.89" ry="18"/>
<text text-anchor="middle" x="400.62" y="-208.48" font-family="Times,serif" font-size="14.00">page_is_idle</text>
</g>
<!-- page_idle_bitmap_read&#45;&gt;page_is_idle -->
<g id="edge21" class="edge">
<title>page_idle_bitmap_read&#45;&gt;page_is_idle</title>
<path fill="none" stroke="black" d="M136.6,-521.14C183.29,-466.29 323.61,-301.46 377.87,-237.73"/>
<polygon fill="black" stroke="black" points="380.82,-239.66 384.64,-229.77 375.49,-235.12 380.82,-239.66"/>
</g>
<!-- put_page -->
<g id="node31" class="node">
<title>put_page</title>
<ellipse fill="none" stroke="black" cx="673.85" cy="-551.18" rx="53.09" ry="18"/>
<text text-anchor="middle" x="673.85" y="-547.48" font-family="Times,serif" font-size="14.00">put_page</text>
</g>
<!-- page_idle_bitmap_read&#45;&gt;put_page -->
<g id="edge22" class="edge">
<title>page_idle_bitmap_read&#45;&gt;put_page</title>
<path fill="none" stroke="black" d="M233.08,-534.26C314.12,-531.62 426.29,-529.88 524.76,-535.18 554.18,-536.77 586.75,-540.11 613.83,-543.33"/>
<polygon fill="black" stroke="black" points="613.58,-546.83 623.93,-544.56 614.42,-539.88 613.58,-546.83"/>
</g>
<!-- page_idle_clear_pte_refs&#45;&gt;compound_head -->
<g id="edge29" class="edge">
<title>page_idle_clear_pte_refs&#45;&gt;compound_head</title>
<path fill="none" stroke="black" d="M497.27,-881.54C507.2,-885.44 516.62,-890.54 524.76,-897.18 555.28,-922.08 527.72,-956.72 560.76,-978.18 645.05,-1032.96 688.11,-996.6 786.94,-978.18 844.02,-967.55 905.82,-941.15 945.25,-922.23"/>
<polygon fill="black" stroke="black" points="946.83,-925.36 954.29,-917.84 943.77,-919.06 946.83,-925.36"/>
</g>
<!-- page_mapped -->
<g id="node34" class="node">
<title>page_mapped</title>
<ellipse fill="none" stroke="black" stroke-dasharray="5,2" cx="673.85" cy="-789.18" rx="74.99" ry="18"/>
<text text-anchor="middle" x="673.85" y="-785.48" font-family="Times,serif" font-size="14.00">page_mapped</text>
</g>
<!-- page_idle_clear_pte_refs&#45;&gt;page_mapped -->
<g id="edge30" class="edge">
<title>page_idle_clear_pte_refs&#45;&gt;page_mapped</title>
<path fill="none" stroke="black" d="M447.23,-853.48C478.86,-842.19 522.08,-827.38 560.76,-816.18 575.98,-811.78 592.5,-807.51 608.07,-803.73"/>
<polygon fill="black" stroke="black" points="609.23,-807.05 618.14,-801.31 607.6,-800.24 609.23,-807.05"/>
</g>
<!-- page_rmapping -->
<g id="node35" class="node">
<title>page_rmapping</title>
<ellipse fill="none" stroke="black" stroke-dasharray="5,2" cx="673.85" cy="-951.18" rx="82.59" ry="18"/>
<text text-anchor="middle" x="673.85" y="-947.48" font-family="Times,serif" font-size="14.00">page_rmapping</text>
</g>
<!-- page_idle_clear_pte_refs&#45;&gt;page_rmapping -->
<g id="edge31" class="edge">
<title>page_idle_clear_pte_refs&#45;&gt;page_rmapping</title>
<path fill="none" stroke="black" d="M485.33,-883.46C498.84,-887.03 512.42,-891.53 524.76,-897.18 542.94,-905.51 542.66,-915.67 560.76,-924.18 572.45,-929.69 585.37,-934.13 598.16,-937.7"/>
<polygon fill="black" stroke="black" points="597.32,-941.1 607.89,-940.26 599.11,-934.33 597.32,-941.1"/>
</g>
<!-- rmap_walk -->
<g id="node36" class="node">
<title>rmap_walk</title>
<ellipse fill="none" stroke="black" stroke-dasharray="5,2" cx="673.85" cy="-897.18" rx="61.19" ry="18"/>
<text text-anchor="middle" x="673.85" y="-893.48" font-family="Times,serif" font-size="14.00">rmap_walk</text>
</g>
<!-- page_idle_clear_pte_refs&#45;&gt;rmap_walk -->
<g id="edge32" class="edge">
<title>page_idle_clear_pte_refs&#45;&gt;rmap_walk</title>
<path fill="none" stroke="black" d="M503.38,-880.31C537.55,-883.71 574.78,-887.42 605.62,-890.49"/>
<polygon fill="black" stroke="black" points="605.52,-894 615.82,-891.51 606.22,-887.03 605.52,-894"/>
</g>
<!-- trylock_page -->
<g id="node37" class="node">
<title>trylock_page</title>
<ellipse fill="none" stroke="black" cx="673.85" cy="-1043.18" rx="69.59" ry="18"/>
<text text-anchor="middle" x="673.85" y="-1039.48" font-family="Times,serif" font-size="14.00">trylock_page</text>
</g>
<!-- page_idle_clear_pte_refs&#45;&gt;trylock_page -->
<g id="edge33" class="edge">
<title>page_idle_clear_pte_refs&#45;&gt;trylock_page</title>
<path fill="none" stroke="black" d="M499.25,-881.17C508.59,-885.17 517.32,-890.39 524.76,-897.18 563.98,-933.02 522.67,-974.14 560.76,-1011.18 571.42,-1021.56 585.21,-1028.61 599.45,-1033.4"/>
<polygon fill="black" stroke="black" points="598.76,-1036.85 609.34,-1036.36 600.76,-1030.14 598.76,-1036.85"/>
</g>
<!-- unlock_page -->
<g id="node38" class="node">
<title>unlock_page</title>
<ellipse fill="none" stroke="black" stroke-dasharray="5,2" cx="673.85" cy="-843.18" rx="67.69" ry="18"/>
<text text-anchor="middle" x="673.85" y="-839.48" font-family="Times,serif" font-size="14.00">unlock_page</text>
</g>
<!-- page_idle_clear_pte_refs&#45;&gt;unlock_page -->
<g id="edge34" class="edge">
<title>page_idle_clear_pte_refs&#45;&gt;unlock_page</title>
<path fill="none" stroke="black" d="M503.38,-860.05C535.52,-856.85 570.37,-853.38 600.06,-850.43"/>
<polygon fill="black" stroke="black" points="600.73,-853.88 610.33,-849.41 600.03,-846.91 600.73,-853.88"/>
</g>
<!-- page_idle_get_page&#45;&gt;__raw_spin_unlock_irq -->
<g id="edge42" class="edge">
<title>page_idle_get_page&#45;&gt;__raw_spin_unlock_irq</title>
<path fill="none" stroke="black" d="M441.98,-486.65C467.25,-498.09 499.66,-514.9 524.76,-535.18 544.14,-550.85 544.2,-559.55 560.76,-578.18 590.18,-611.31 625.4,-648.28 648.4,-672.1"/>
<polygon fill="black" stroke="black" points="645.95,-674.59 655.42,-679.34 650.98,-669.73 645.95,-674.59"/>
</g>
<!-- page_idle_get_page&#45;&gt;compound_head -->
<g id="edge44" class="edge">
<title>page_idle_get_page&#45;&gt;compound_head</title>
<path fill="none" stroke="black" d="M453.41,-485.6C478.67,-495.73 507.29,-511.57 524.76,-535.18 575.59,-603.94 499.64,-664.38 560.76,-724.18 633.61,-795.47 692.56,-723.66 786.94,-762.18 855.41,-790.14 923.6,-844.96 959.8,-876.76"/>
<polygon fill="black" stroke="black" points="957.65,-879.53 967.45,-883.56 962.3,-874.3 957.65,-879.53"/>
</g>
<!-- page_idle_get_page&#45;&gt;get_page_unless_zero -->
<g id="edge45" class="edge">
<title>page_idle_get_page&#45;&gt;get_page_unless_zero</title>
<path fill="none" stroke="black" d="M488.93,-461.49C514.33,-458.96 542.34,-456.17 568.67,-453.55"/>
<polygon fill="black" stroke="black" points="569.07,-457.03 578.67,-452.56 568.37,-450.07 569.07,-457.03"/>
</g>
<!-- page_idle_get_page&#45;&gt;put_page -->
<g id="edge48" class="edge">
<title>page_idle_get_page&#45;&gt;put_page</title>
<path fill="none" stroke="black" d="M467.99,-483.63C486.72,-488.43 506.86,-494.59 524.76,-502.18 542.02,-509.51 543.43,-517.01 560.76,-524.18 578.16,-531.39 597.91,-536.94 615.93,-541.09"/>
<polygon fill="black" stroke="black" points="615.22,-544.51 625.74,-543.25 616.72,-537.68 615.22,-544.51"/>
</g>
<!-- _raw_spin_lock_irq -->
<g id="node44" class="node">
<title>_raw_spin_lock_irq</title>
<ellipse fill="none" stroke="black" stroke-dasharray="5,2" cx="673.85" cy="-497.18" rx="96.68" ry="18"/>
<text text-anchor="middle" x="673.85" y="-493.48" font-family="Times,serif" font-size="14.00">_raw_spin_lock_irq</text>
</g>
<!-- page_idle_get_page&#45;&gt;_raw_spin_lock_irq -->
<g id="edge43" class="edge">
<title>page_idle_get_page&#45;&gt;_raw_spin_lock_irq</title>
<path fill="none" stroke="black" d="M488.93,-478.87C517.33,-481.7 548.98,-484.85 577.9,-487.73"/>
<polygon fill="black" stroke="black" points="577.72,-491.23 588.01,-488.74 578.41,-484.26 577.72,-491.23"/>
</g>
<!-- page_pgdat -->
<g id="node45" class="node">
<title>page_pgdat</title>
<ellipse fill="none" stroke="black" cx="673.85" cy="-389.18" rx="64.19" ry="18"/>
<text text-anchor="middle" x="673.85" y="-385.48" font-family="Times,serif" font-size="14.00">page_pgdat</text>
</g>
<!-- page_idle_get_page&#45;&gt;page_pgdat -->
<g id="edge46" class="edge">
<title>page_idle_get_page&#45;&gt;page_pgdat</title>
<path fill="none" stroke="black" d="M445.86,-453.96C477.61,-442.63 521.52,-427.54 560.76,-416.18 577.55,-411.32 595.94,-406.63 612.87,-402.57"/>
<polygon fill="black" stroke="black" points="613.73,-405.96 622.65,-400.25 612.11,-399.15 613.73,-405.96"/>
</g>
<!-- pfn_valid -->
<g id="node46" class="node">
<title>pfn_valid</title>
<ellipse fill="none" stroke="black" cx="673.85" cy="-254.18" rx="52.79" ry="18"/>
<text text-anchor="middle" x="673.85" y="-250.48" font-family="Times,serif" font-size="14.00">pfn_valid</text>
</g>
<!-- page_idle_get_page&#45;&gt;pfn_valid -->
<g id="edge47" class="edge">
<title>page_idle_get_page&#45;&gt;pfn_valid</title>
<path fill="none" stroke="black" d="M423.81,-452.51C472.79,-413.5 590.08,-320.1 644.37,-276.86"/>
<polygon fill="black" stroke="black" points="646.58,-279.58 652.22,-270.61 642.22,-274.1 646.58,-279.58"/>
</g>
<!-- test_bit -->
<g id="node47" class="node">
<title>test_bit</title>
<ellipse fill="none" stroke="black" cx="1343.14" cy="-56.18" rx="46.29" ry="18"/>
<text text-anchor="middle" x="1343.14" y="-52.48" font-family="Times,serif" font-size="14.00">test_bit</text>
</g>
<!-- page_idle_get_page&#45;&gt;test_bit -->
<g id="edge49" class="edge">
<title>page_idle_get_page&#45;&gt;test_bit</title>
<path fill="none" stroke="black" d="M409.48,-452.06C429.2,-408.35 484.69,-295.7 560.76,-227.18 658.14,-139.46 696.7,-127.44 822.94,-92.18 987.09,-46.33 1191.22,-48.51 1287.3,-52.82"/>
<polygon fill="black" stroke="black" points="1287.21,-56.32 1297.36,-53.3 1287.54,-49.33 1287.21,-56.32"/>
</g>
<!-- page_is_idle&#45;&gt;test_bit -->
<g id="edge52" class="edge">
<title>page_is_idle&#45;&gt;test_bit</title>
<path fill="none" stroke="black" d="M413.15,-194.26C436.27,-160.19 492.02,-87.02 560.76,-59.18 819.68,45.67 1167.64,-16.22 1293.87,-44.45"/>
<polygon fill="black" stroke="black" points="1293.1,-47.86 1303.63,-46.66 1294.65,-41.03 1293.1,-47.86"/>
</g>
<!-- put_page&#45;&gt;compound_head -->
<g id="edge66" class="edge">
<title>put_page&#45;&gt;compound_head</title>
<path fill="none" stroke="black" d="M695.48,-568.05C720.39,-589.42 762.04,-628.52 786.94,-670.18 812.89,-713.62 793.39,-737.11 822.94,-778.18 854.96,-822.69 907.82,-858.26 944.72,-879.48"/>
<polygon fill="black" stroke="black" points="943.31,-882.7 953.74,-884.56 946.74,-876.6 943.31,-882.7"/>
</g>
<!-- put_devmap_managed_page -->
<g id="node57" class="node">
<title>put_devmap_managed_page</title>
<ellipse fill="none" stroke="black" cx="987.37" cy="-551.18" rx="141.07" ry="18"/>
<text text-anchor="middle" x="987.37" y="-547.48" font-family="Times,serif" font-size="14.00">put_devmap_managed_page</text>
</g>
<!-- put_page&#45;&gt;put_devmap_managed_page -->
<g id="edge67" class="edge">
<title>put_page&#45;&gt;put_devmap_managed_page</title>
<path fill="none" stroke="black" d="M727.34,-551.18C757.43,-551.18 796.86,-551.18 835.86,-551.18"/>
<polygon fill="black" stroke="black" points="836.3,-554.68 846.3,-551.18 836.3,-547.68 836.3,-554.68"/>
</g>
<!-- __put_page -->
<g id="node59" class="node">
<title>__put_page</title>
<ellipse fill="none" stroke="black" stroke-dasharray="5,2" cx="987.37" cy="-497.18" rx="61.99" ry="18"/>
<text text-anchor="middle" x="987.37" y="-493.48" font-family="Times,serif" font-size="14.00">__put_page</text>
</g>
<!-- put_page&#45;&gt;__put_page -->
<g id="edge65" class="edge">
<title>put_page&#45;&gt;__put_page</title>
<path fill="none" stroke="black" d="M720.84,-542.59C750.06,-537.19 788.69,-530.13 822.94,-524.18 855.9,-518.46 892.66,-512.36 922.96,-507.41"/>
<polygon fill="black" stroke="black" points="923.66,-510.84 932.97,-505.78 922.54,-503.93 923.66,-510.84"/>
</g>
<!-- put_page_testzero -->
<g id="node60" class="node">
<title>put_page_testzero</title>
<ellipse fill="none" stroke="black" cx="987.37" cy="-605.18" rx="95.58" ry="18"/>
<text text-anchor="middle" x="987.37" y="-601.48" font-family="Times,serif" font-size="14.00">put_page_testzero</text>
</g>
<!-- put_page&#45;&gt;put_page_testzero -->
<g id="edge68" class="edge">
<title>put_page&#45;&gt;put_page_testzero</title>
<path fill="none" stroke="black" d="M720.84,-559.77C750.06,-565.18 788.69,-572.23 822.94,-578.18 849.33,-582.77 878.15,-587.59 904.14,-591.87"/>
<polygon fill="black" stroke="black" points="903.89,-595.38 914.32,-593.55 905.02,-588.47 903.89,-595.38"/>
</g>
<!-- page_idle_bitmap_write -->
<g id="node32" class="node">
<title>page_idle_bitmap_write</title>
<ellipse fill="none" stroke="black" cx="120.24" cy="-639.18" rx="120.48" ry="18"/>
<text text-anchor="middle" x="120.24" y="-635.48" font-family="Times,serif" font-size="14.00">page_idle_bitmap_write</text>
</g>
<!-- page_idle_bitmap_write&#45;&gt;___might_sleep.isra.0 -->
<g id="edge23" class="edge">
<title>page_idle_bitmap_write&#45;&gt;___might_sleep.isra.0</title>
<path fill="none" stroke="black" d="M168.45,-622.68C199.03,-612.31 239.85,-599.07 276.48,-589.18 290.64,-585.36 305.83,-581.69 320.54,-578.35"/>
<polygon fill="black" stroke="black" points="321.63,-581.69 330.62,-576.09 320.1,-574.86 321.63,-581.69"/>
</g>
<!-- page_idle_bitmap_write&#45;&gt;_cond_resched -->
<g id="edge24" class="edge">
<title>page_idle_bitmap_write&#45;&gt;_cond_resched</title>
<path fill="none" stroke="black" d="M226.09,-630.52C256.01,-628.05 288.19,-625.39 316.62,-623.04"/>
<polygon fill="black" stroke="black" points="317.23,-626.5 326.91,-622.19 316.66,-619.53 317.23,-626.5"/>
</g>
<!-- page_idle_bitmap_write&#45;&gt;page_idle_clear_pte_refs -->
<g id="edge25" class="edge">
<title>page_idle_bitmap_write&#45;&gt;page_idle_clear_pte_refs</title>
<path fill="none" stroke="black" d="M142.62,-656.93C192.01,-697.91 314.09,-799.21 370.36,-845.9"/>
<polygon fill="black" stroke="black" points="368.23,-848.69 378.16,-852.38 372.7,-843.3 368.23,-848.69"/>
</g>
<!-- page_idle_bitmap_write&#45;&gt;page_idle_get_page -->
<g id="edge26" class="edge">
<title>page_idle_bitmap_write&#45;&gt;page_idle_get_page</title>
<path fill="none" stroke="black" d="M152.76,-621.75C177.33,-607.73 211.94,-586.99 240.48,-566.18 257.54,-553.74 259.03,-547.08 276.48,-535.18 300.81,-518.6 329.87,-503.07 353.65,-491.36"/>
<polygon fill="black" stroke="black" points="355.36,-494.43 362.82,-486.91 352.29,-488.13 355.36,-494.43"/>
</g>
<!-- page_idle_bitmap_write&#45;&gt;put_page -->
<g id="edge27" class="edge">
<title>page_idle_bitmap_write&#45;&gt;put_page</title>
<path fill="none" stroke="black" d="M199.21,-652.84C281.79,-664.36 415.11,-674.47 524.76,-643.18 571.38,-629.88 617.64,-597.2 645.74,-574.61"/>
<polygon fill="black" stroke="black" points="647.99,-577.28 653.51,-568.24 643.55,-571.87 647.99,-577.28"/>
</g>
<!-- set_page_idle -->
<g id="node33" class="node">
<title>set_page_idle</title>
<ellipse fill="none" stroke="black" cx="400.62" cy="-708.18" rx="73.39" ry="18"/>
<text text-anchor="middle" x="400.62" y="-704.48" font-family="Times,serif" font-size="14.00">set_page_idle</text>
</g>
<!-- page_idle_bitmap_write&#45;&gt;set_page_idle -->
<g id="edge28" class="edge">
<title>page_idle_bitmap_write&#45;&gt;set_page_idle</title>
<path fill="none" stroke="black" d="M183.37,-654.58C229.65,-666.05 292.52,-681.64 338.55,-693.05"/>
<polygon fill="black" stroke="black" points="337.84,-696.48 348.39,-695.49 339.53,-689.68 337.84,-696.48"/>
</g>
<!-- set_bit -->
<g id="node61" class="node">
<title>set_bit</title>
<ellipse fill="none" stroke="black" cx="2104.08" cy="-616.18" rx="42.49" ry="18"/>
<text text-anchor="middle" x="2104.08" y="-612.48" font-family="Times,serif" font-size="14.00">set_bit</text>
</g>
<!-- set_page_idle&#45;&gt;set_bit -->
<g id="edge71" class="edge">
<title>set_page_idle&#45;&gt;set_bit</title>
<path fill="none" stroke="black" d="M448.52,-694.5C479.98,-685.94 522.5,-675.55 560.76,-670.18 748.27,-643.85 797.02,-651.18 986.37,-651.18 986.37,-651.18 986.37,-651.18 1344.14,-651.18 1611.05,-651.18 1930.19,-629.32 2052.23,-620.15"/>
<polygon fill="black" stroke="black" points="2052.68,-623.63 2062.39,-619.38 2052.15,-616.65 2052.68,-623.63"/>
</g>
<!-- trylock_page&#45;&gt;compound_head -->
<g id="edge75" class="edge">
<title>trylock_page&#45;&gt;compound_head</title>
<path fill="none" stroke="black" d="M729.63,-1032.41C748.45,-1027.46 769.23,-1020.55 786.94,-1011.18 805.35,-1001.45 805.46,-992.51 822.94,-981.18 859.61,-957.42 904.38,-935.97 937.78,-921.28"/>
<polygon fill="black" stroke="black" points="939.55,-924.33 947.32,-917.14 936.75,-917.91 939.55,-924.33"/>
</g>
<!-- test_and_set_bit_lock.constprop.0 -->
<g id="node62" class="node">
<title>test_and_set_bit_lock.constprop.0</title>
<ellipse fill="none" stroke="black" cx="2104.08" cy="-760.18" rx="167.07" ry="18"/>
<text text-anchor="middle" x="2104.08" y="-756.48" font-family="Times,serif" font-size="14.00">test_and_set_bit_lock.constprop.0</text>
</g>
<!-- trylock_page&#45;&gt;test_and_set_bit_lock.constprop.0 -->
<g id="edge76" class="edge">
<title>trylock_page&#45;&gt;test_and_set_bit_lock.constprop.0</title>
<path fill="none" stroke="black" d="M729.52,-1032.35C945.88,-989.48 1743.38,-831.46 2013.19,-778"/>
<polygon fill="black" stroke="black" points="2014.2,-781.36 2023.33,-775.99 2012.84,-774.5 2014.2,-781.36"/>
</g>
<!-- page_idle_clear_pte_refs_one -->
<g id="node39" class="node">
<title>page_idle_clear_pte_refs_one</title>
<ellipse fill="none" stroke="black" cx="1343.14" cy="-405.18" rx="144.87" ry="18"/>
<text text-anchor="middle" x="1343.14" y="-401.48" font-family="Times,serif" font-size="14.00">page_idle_clear_pte_refs_one</text>
</g>
<!-- page_idle_clear_pte_refs_one&#45;&gt;__stack_chk_fail -->
<g id="edge35" class="edge">
<title>page_idle_clear_pte_refs_one&#45;&gt;__stack_chk_fail</title>
<path fill="none" stroke="black" d="M1470.44,-396.51C1480.75,-391.96 1490.32,-385.98 1498.48,-378.18 1551.81,-327.23 1477.64,-263.19 1534.48,-216.18 1570.26,-186.59 1860.3,-191.3 2011.74,-195.89"/>
<polygon fill="black" stroke="black" points="2011.85,-199.39 2021.96,-196.2 2012.07,-192.39 2011.85,-199.39"/>
</g>
<!-- page_idle_clear_pte_refs_one&#45;&gt;clear_page_idle -->
<g id="edge36" class="edge">
<title>page_idle_clear_pte_refs_one&#45;&gt;clear_page_idle</title>
<path fill="none" stroke="black" d="M1488.21,-405.18C1534.47,-405.18 1584.39,-405.18 1625.75,-405.18"/>
<polygon fill="black" stroke="black" points="1625.79,-408.68 1635.79,-405.18 1625.79,-401.68 1625.79,-408.68"/>
</g>
<!-- page_idle_clear_pte_refs_one&#45;&gt;mmu_notifier_clear_young -->
<g id="edge37" class="edge">
<title>page_idle_clear_pte_refs_one&#45;&gt;mmu_notifier_clear_young</title>
<path fill="none" stroke="black" d="M1468.48,-396.07C1479.38,-391.65 1489.62,-385.82 1498.48,-378.18 1536.81,-345.16 1495.72,-302.7 1534.48,-270.18 1546.76,-259.88 1561.21,-252.58 1576.52,-247.49"/>
<polygon fill="black" stroke="black" points="1577.58,-250.83 1586.15,-244.61 1575.57,-244.13 1577.58,-250.83"/>
</g>
<!-- page_vma_mapped_walk -->
<g id="node40" class="node">
<title>page_vma_mapped_walk</title>
<ellipse fill="none" stroke="black" stroke-dasharray="5,2" cx="1717.76" cy="-351.18" rx="124.28" ry="18"/>
<text text-anchor="middle" x="1717.76" y="-347.48" font-family="Times,serif" font-size="14.00">page_vma_mapped_walk</text>
</g>
<!-- page_idle_clear_pte_refs_one&#45;&gt;page_vma_mapped_walk -->
<g id="edge38" class="edge">
<title>page_idle_clear_pte_refs_one&#45;&gt;page_vma_mapped_walk</title>
<path fill="none" stroke="black" d="M1438.17,-391.56C1493.49,-383.54 1563.34,-373.42 1619.25,-365.31"/>
<polygon fill="black" stroke="black" points="1619.77,-368.78 1629.17,-363.88 1618.77,-361.85 1619.77,-368.78"/>
</g>
<!-- pmdp_test_and_clear_young -->
<g id="node41" class="node">
<title>pmdp_test_and_clear_young</title>
<ellipse fill="none" stroke="black" stroke-dasharray="5,2" cx="1717.76" cy="-297.18" rx="141.07" ry="18"/>
<text text-anchor="middle" x="1717.76" y="-293.48" font-family="Times,serif" font-size="14.00">pmdp_test_and_clear_young</text>
</g>
<!-- page_idle_clear_pte_refs_one&#45;&gt;pmdp_test_and_clear_young -->
<g id="edge39" class="edge">
<title>page_idle_clear_pte_refs_one&#45;&gt;pmdp_test_and_clear_young</title>
<path fill="none" stroke="black" d="M1462.58,-394.8C1475.28,-390.72 1487.54,-385.32 1498.48,-378.18 1522.64,-362.42 1510.12,-339.62 1534.48,-324.18 1546.77,-316.39 1560.46,-310.51 1574.65,-306.12"/>
<polygon fill="black" stroke="black" points="1575.88,-309.41 1584.54,-303.31 1573.96,-302.68 1575.88,-309.41"/>
</g>
<!-- ptep_test_and_clear_young -->
<g id="node42" class="node">
<title>ptep_test_and_clear_young</title>
<ellipse fill="none" stroke="black" stroke-dasharray="5,2" cx="1717.76" cy="-459.18" rx="135.68" ry="18"/>
<text text-anchor="middle" x="1717.76" y="-455.48" font-family="Times,serif" font-size="14.00">ptep_test_and_clear_young</text>
</g>
<!-- page_idle_clear_pte_refs_one&#45;&gt;ptep_test_and_clear_young -->
<g id="edge40" class="edge">
<title>page_idle_clear_pte_refs_one&#45;&gt;ptep_test_and_clear_young</title>
<path fill="none" stroke="black" d="M1438.17,-418.81C1492.16,-426.63 1559.98,-436.46 1615.19,-444.46"/>
<polygon fill="black" stroke="black" points="1614.94,-447.96 1625.34,-445.93 1615.95,-441.04 1614.94,-447.96"/>
</g>
<!-- set_page_young -->
<g id="node43" class="node">
<title>set_page_young</title>
<ellipse fill="none" stroke="black" cx="1717.76" cy="-513.18" rx="84.49" ry="18"/>
<text text-anchor="middle" x="1717.76" y="-509.48" font-family="Times,serif" font-size="14.00">set_page_young</text>
</g>
<!-- page_idle_clear_pte_refs_one&#45;&gt;set_page_young -->
<g id="edge41" class="edge">
<title>page_idle_clear_pte_refs_one&#45;&gt;set_page_young</title>
<path fill="none" stroke="black" d="M1377.92,-422.69C1415.24,-441.28 1477.62,-470.16 1534.48,-486.18 1564.91,-494.76 1599.01,-500.74 1629.42,-504.85"/>
<polygon fill="black" stroke="black" points="1629.21,-508.35 1639.57,-506.17 1630.11,-501.41 1629.21,-508.35"/>
</g>
<!-- set_page_young&#45;&gt;set_bit -->
<g id="edge72" class="edge">
<title>set_page_young&#45;&gt;set_bit</title>
<path fill="none" stroke="black" d="M1802.33,-512.03C1835.07,-514.91 1871.72,-522.52 1901.05,-540.18 1924.2,-554.13 1914,-575.08 1937.05,-589.18 1971.36,-610.18 2016.82,-616.4 2051.5,-617.66"/>
<polygon fill="black" stroke="black" points="2051.81,-621.17 2061.89,-617.91 2051.97,-614.17 2051.81,-621.17"/>
</g>
<!-- page_to_nid.isra.0 -->
<g id="node51" class="node">
<title>page_to_nid.isra.0</title>
<ellipse fill="none" stroke="black" cx="987.37" cy="-389.18" rx="94.78" ry="18"/>
<text text-anchor="middle" x="987.37" y="-385.48" font-family="Times,serif" font-size="14.00">page_to_nid.isra.0</text>
</g>
<!-- page_pgdat&#45;&gt;page_to_nid.isra.0 -->
<g id="edge53" class="edge">
<title>page_pgdat&#45;&gt;page_to_nid.isra.0</title>
<path fill="none" stroke="black" d="M738.26,-389.18C779.62,-389.18 834.57,-389.18 882.24,-389.18"/>
<polygon fill="black" stroke="black" points="882.3,-392.68 892.3,-389.18 882.3,-385.68 882.3,-392.68"/>
</g>
<!-- pfn_valid&#45;&gt;__nr_to_section -->
<g id="edge58" class="edge">
<title>pfn_valid&#45;&gt;__nr_to_section</title>
<path fill="none" stroke="black" d="M725.24,-249.81C772.76,-245.7 844.91,-239.44 901.33,-234.55"/>
<polygon fill="black" stroke="black" points="901.65,-238.04 911.32,-233.69 901.05,-231.06 901.65,-238.04"/>
</g>
<!-- pfn_valid&#45;&gt;early_section -->
<g id="edge59" class="edge">
<title>pfn_valid&#45;&gt;early_section</title>
<path fill="none" stroke="black" d="M707.52,-240.27C737.16,-228.14 782.31,-210.85 822.94,-200.18 851.8,-192.61 884.11,-186.74 912.34,-182.43"/>
<polygon fill="black" stroke="black" points="913.16,-185.85 922.54,-180.92 912.13,-178.93 913.16,-185.85"/>
</g>
<!-- pfn_section_valid.isra.0 -->
<g id="node53" class="node">
<title>pfn_section_valid.isra.0</title>
<ellipse fill="none" stroke="black" cx="987.37" cy="-335.18" rx="119.68" ry="18"/>
<text text-anchor="middle" x="987.37" y="-331.48" font-family="Times,serif" font-size="14.00">pfn_section_valid.isra.0</text>
</g>
<!-- pfn_valid&#45;&gt;pfn_section_valid.isra.0 -->
<g id="edge60" class="edge">
<title>pfn_valid&#45;&gt;pfn_section_valid.isra.0</title>
<path fill="none" stroke="black" d="M707.52,-268.09C737.16,-280.23 782.31,-297.52 822.94,-308.18 843.35,-313.54 865.49,-318.05 886.68,-321.75"/>
<polygon fill="black" stroke="black" points="886.23,-325.22 896.67,-323.44 887.4,-318.32 886.23,-325.22"/>
</g>
<!-- pfn_to_section_nr -->
<g id="node55" class="node">
<title>pfn_to_section_nr</title>
<ellipse fill="none" stroke="black" cx="987.37" cy="-119.18" rx="91.78" ry="18"/>
<text text-anchor="middle" x="987.37" y="-115.48" font-family="Times,serif" font-size="14.00">pfn_to_section_nr</text>
</g>
<!-- pfn_valid&#45;&gt;pfn_to_section_nr -->
<g id="edge61" class="edge">
<title>pfn_valid&#45;&gt;pfn_to_section_nr</title>
<path fill="none" stroke="black" d="M692.29,-237.13C718.36,-212.72 770.11,-168.33 822.94,-146.18 844.31,-137.22 868.42,-131.23 891.42,-127.22"/>
<polygon fill="black" stroke="black" points="892.25,-130.64 901.55,-125.57 891.12,-123.73 892.25,-130.64"/>
</g>
<!-- valid_section -->
<g id="node56" class="node">
<title>valid_section</title>
<ellipse fill="none" stroke="black" cx="987.37" cy="-281.18" rx="70.69" ry="18"/>
<text text-anchor="middle" x="987.37" y="-277.48" font-family="Times,serif" font-size="14.00">valid_section</text>
</g>
<!-- pfn_valid&#45;&gt;valid_section -->
<g id="edge62" class="edge">
<title>pfn_valid&#45;&gt;valid_section</title>
<path fill="none" stroke="black" d="M725.24,-258.55C775.2,-262.88 852.37,-269.57 909.88,-274.55"/>
<polygon fill="black" stroke="black" points="909.75,-278.06 920.02,-275.43 910.36,-271.08 909.75,-278.06"/>
</g>
<!-- test_bit&#45;&gt;kasan_check_read.isra.0 -->
<g id="edge74" class="edge">
<title>test_bit&#45;&gt;kasan_check_read.isra.0</title>
<path fill="none" stroke="black" d="M1389.48,-56.31C1523.96,-56.76 1932.39,-58.52 2271.12,-64.18 2281.19,-64.35 2291.61,-64.55 2302.09,-64.77"/>
<polygon fill="black" stroke="black" points="2302.06,-68.27 2312.14,-64.99 2302.21,-61.27 2302.06,-68.27"/>
</g>
<!-- page_idle_init -->
<g id="node48" class="node">
<title>page_idle_init</title>
<ellipse fill="none" stroke="black" cx="120.24" cy="-951.18" rx="74.99" ry="18"/>
<text text-anchor="middle" x="120.24" y="-947.48" font-family="Times,serif" font-size="14.00">page_idle_init</text>
</g>
<!-- printk -->
<g id="node49" class="node">
<title>printk</title>
<ellipse fill="none" stroke="black" stroke-dasharray="5,2" cx="400.62" cy="-978.18" rx="38.99" ry="18"/>
<text text-anchor="middle" x="400.62" y="-974.48" font-family="Times,serif" font-size="14.00">printk</text>
</g>
<!-- page_idle_init&#45;&gt;printk -->
<g id="edge50" class="edge">
<title>page_idle_init&#45;&gt;printk</title>
<path fill="none" stroke="black" d="M190.05,-957.86C240.54,-962.75 307.79,-969.28 352.34,-973.6"/>
<polygon fill="black" stroke="black" points="352.02,-977.08 362.31,-974.56 352.7,-970.12 352.02,-977.08"/>
</g>
<!-- sysfs_create_group -->
<g id="node50" class="node">
<title>sysfs_create_group</title>
<ellipse fill="none" stroke="black" stroke-dasharray="5,2" cx="400.62" cy="-924.18" rx="99.38" ry="18"/>
<text text-anchor="middle" x="400.62" y="-920.48" font-family="Times,serif" font-size="14.00">sysfs_create_group</text>
</g>
<!-- page_idle_init&#45;&gt;sysfs_create_group -->
<g id="edge51" class="edge">
<title>page_idle_init&#45;&gt;sysfs_create_group</title>
<path fill="none" stroke="black" d="M190.05,-944.51C223.9,-941.23 265.29,-937.21 302.31,-933.62"/>
<polygon fill="black" stroke="black" points="303.01,-937.07 312.63,-932.62 302.34,-930.1 303.01,-937.07"/>
</g>
<!-- page_ref_dec_and_test -->
<g id="node52" class="node">
<title>page_ref_dec_and_test</title>
<ellipse fill="none" stroke="black" cx="1343.14" cy="-605.18" rx="115.08" ry="18"/>
<text text-anchor="middle" x="1343.14" y="-601.48" font-family="Times,serif" font-size="14.00">page_ref_dec_and_test</text>
</g>
<!-- page_ref_dec_and_test&#45;&gt;atomic_dec_and_test -->
<g id="edge55" class="edge">
<title>page_ref_dec_and_test&#45;&gt;atomic_dec_and_test</title>
<path fill="none" stroke="black" d="M1457.45,-607.49C1570.15,-608.72 1747.89,-607.76 1901.05,-594.18 1912.88,-593.13 1967.52,-584.44 2017,-576.38"/>
<polygon fill="black" stroke="black" points="2017.83,-579.79 2027.13,-574.73 2016.7,-572.88 2017.83,-579.79"/>
</g>
<!-- pfn_section_valid.isra.0&#45;&gt;test_bit -->
<g id="edge57" class="edge">
<title>pfn_section_valid.isra.0&#45;&gt;test_bit</title>
<path fill="none" stroke="black" d="M1104.66,-331.27C1121.76,-326.54 1138.17,-319.22 1151.81,-308.18 1185.93,-280.55 1164.11,-253.14 1187.81,-216.18 1223.49,-160.54 1280.51,-107.73 1314.34,-78.88"/>
<polygon fill="black" stroke="black" points="1316.62,-81.53 1322.01,-72.41 1312.11,-76.18 1316.62,-81.53"/>
</g>
<!-- subsection_map_index -->
<g id="node54" class="node">
<title>subsection_map_index</title>
<ellipse fill="none" stroke="black" cx="1343.14" cy="-243.18" rx="114.28" ry="18"/>
<text text-anchor="middle" x="1343.14" y="-239.48" font-family="Times,serif" font-size="14.00">subsection_map_index</text>
</g>
<!-- pfn_section_valid.isra.0&#45;&gt;subsection_map_index -->
<g id="edge56" class="edge">
<title>pfn_section_valid.isra.0&#45;&gt;subsection_map_index</title>
<path fill="none" stroke="black" d="M1096.25,-327.54C1115.48,-323.37 1134.79,-317.22 1151.81,-308.18 1172.36,-297.27 1167.31,-281.19 1187.81,-270.18 1201.18,-263 1216.05,-257.67 1231.13,-253.72"/>
<polygon fill="black" stroke="black" points="1232.16,-257.07 1241.06,-251.32 1230.51,-250.27 1232.16,-257.07"/>
</g>
<!-- put_devmap_managed_page&#45;&gt;is_zone_device_page -->
<g id="edge64" class="edge">
<title>put_devmap_managed_page&#45;&gt;is_zone_device_page</title>
<path fill="none" stroke="black" d="M1128.45,-551.18C1161.28,-551.18 1195.88,-551.18 1227.45,-551.18"/>
<polygon fill="black" stroke="black" points="1227.59,-554.68 1237.59,-551.18 1227.59,-547.68 1227.59,-554.68"/>
</g>
<!-- __put_devmap_managed_page -->
<g id="node58" class="node">
<title>__put_devmap_managed_page</title>
<ellipse fill="none" stroke="black" stroke-dasharray="5,2" cx="1343.14" cy="-351.18" rx="149.47" ry="18"/>
<text text-anchor="middle" x="1343.14" y="-347.48" font-family="Times,serif" font-size="14.00">__put_devmap_managed_page</text>
</g>
<!-- put_devmap_managed_page&#45;&gt;__put_devmap_managed_page -->
<g id="edge63" class="edge">
<title>put_devmap_managed_page&#45;&gt;__put_devmap_managed_page</title>
<path fill="none" stroke="black" d="M1118.67,-544.46C1130.85,-539.65 1142.2,-533.07 1151.81,-524.18 1200.87,-478.8 1138.96,-423.79 1187.81,-378.18 1193.28,-373.08 1199.35,-368.76 1205.84,-365.11"/>
<polygon fill="black" stroke="black" points="1207.55,-368.17 1214.92,-360.55 1204.41,-361.91 1207.55,-368.17"/>
</g>
<!-- put_page_testzero&#45;&gt;page_ref_dec_and_test -->
<g id="edge69" class="edge">
<title>put_page_testzero&#45;&gt;page_ref_dec_and_test</title>
<path fill="none" stroke="black" d="M1083.18,-605.18C1124.48,-605.18 1173.44,-605.18 1217.62,-605.18"/>
<polygon fill="black" stroke="black" points="1217.85,-608.68 1227.85,-605.18 1217.85,-601.68 1217.85,-608.68"/>
</g>
<!-- set_bit&#45;&gt;kasan_check_write.isra.0 -->
<g id="edge70" class="edge">
<title>set_bit&#45;&gt;kasan_check_write.isra.0</title>
<path fill="none" stroke="black" d="M2144.01,-609.91C2177.66,-604.47 2227.61,-596.37 2271.12,-589.18 2293.78,-585.44 2318.24,-581.36 2341.07,-577.54"/>
<polygon fill="black" stroke="black" points="2341.81,-580.96 2351.1,-575.86 2340.65,-574.06 2341.81,-580.96"/>
</g>
<!-- test_and_set_bit_lock.constprop.0&#45;&gt;kasan_check_write.isra.0 -->
<g id="edge73" class="edge">
<title>test_and_set_bit_lock.constprop.0&#45;&gt;kasan_check_write.isra.0</title>
<path fill="none" stroke="black" d="M2134.4,-742.44C2193.86,-706.45 2328.58,-624.91 2394.48,-585.02"/>
<polygon fill="black" stroke="black" points="2396.56,-587.85 2403.31,-579.68 2392.94,-581.86 2396.56,-587.85"/>
</g>
</g>
</svg>
