<?xml version="1.0" encoding="UTF-8" standalone="no"?>
<!DOCTYPE svg PUBLIC "-//W3C//DTD SVG 1.1//EN"
 "http://www.w3.org/Graphics/SVG/1.1/DTD/svg11.dtd">
<!-- Generated by graphviz version 2.43.0 (0)
 -->
<!-- Title: callgraph Pages: 1 -->
<svg width="1258pt" height="260pt"
 viewBox="0.00 0.00 1258.20 260.00" xmlns="http://www.w3.org/2000/svg" xmlns:xlink="http://www.w3.org/1999/xlink">
<g id="graph0" class="graph" transform="scale(1 1) rotate(0) translate(4 256)">
<title>callgraph</title>
<polygon fill="white" stroke="transparent" points="-4,4 -4,-256 1254.2,-256 1254.2,4 -4,4"/>
<!-- __kunmap_atomic.isra.0 -->
<g id="node1" class="node">
<title>__kunmap_atomic.isra.0</title>
<ellipse fill="none" stroke="black" cx="901.58" cy="-72" rx="121.58" ry="18"/>
<text text-anchor="middle" x="901.58" y="-68.3" font-family="Times,serif" font-size="14.00">__kunmap_atomic.isra.0</text>
</g>
<!-- pagefault_enable -->
<g id="node2" class="node">
<title>pagefault_enable</title>
<ellipse fill="none" stroke="black" cx="1157.91" cy="-72" rx="89.88" ry="18"/>
<text text-anchor="middle" x="1157.91" y="-68.3" font-family="Times,serif" font-size="14.00">pagefault_enable</text>
</g>
<!-- __kunmap_atomic.isra.0&#45;&gt;pagefault_enable -->
<g id="edge1" class="edge">
<title>__kunmap_atomic.isra.0&#45;&gt;pagefault_enable</title>
<path fill="none" stroke="black" d="M1023.41,-72C1034.89,-72 1046.44,-72 1057.69,-72"/>
<polygon fill="black" stroke="black" points="1057.92,-75.5 1067.92,-72 1057.92,-68.5 1057.92,-75.5"/>
</g>
<!-- check_poison_mem.isra.0 -->
<g id="node3" class="node">
<title>check_poison_mem.isra.0</title>
<ellipse fill="none" stroke="black" cx="901.58" cy="-18" rx="128.08" ry="18"/>
<text text-anchor="middle" x="901.58" y="-14.3" font-family="Times,serif" font-size="14.00">check_poison_mem.isra.0</text>
</g>
<!-- early_page_poison_param -->
<g id="node4" class="node">
<title>early_page_poison_param</title>
<ellipse fill="none" stroke="black" cx="129.99" cy="-180" rx="129.98" ry="18"/>
<text text-anchor="middle" x="129.99" y="-176.3" font-family="Times,serif" font-size="14.00">early_page_poison_param</text>
</g>
<!-- strtobool.constprop.0 -->
<g id="node5" class="node">
<title>strtobool.constprop.0</title>
<ellipse fill="none" stroke="black" cx="419.47" cy="-180" rx="110.48" ry="18"/>
<text text-anchor="middle" x="419.47" y="-176.3" font-family="Times,serif" font-size="14.00">strtobool.constprop.0</text>
</g>
<!-- early_page_poison_param&#45;&gt;strtobool.constprop.0 -->
<g id="edge2" class="edge">
<title>early_page_poison_param&#45;&gt;strtobool.constprop.0</title>
<path fill="none" stroke="black" d="M260.01,-180C272.85,-180 285.85,-180 298.58,-180"/>
<polygon fill="black" stroke="black" points="298.74,-183.5 308.74,-180 298.74,-176.5 298.74,-183.5"/>
</g>
<!-- kstrtobool -->
<g id="node15" class="node">
<title>kstrtobool</title>
<ellipse fill="none" stroke="black" stroke-dasharray="5,2" cx="658.25" cy="-180" rx="57.69" ry="18"/>
<text text-anchor="middle" x="658.25" y="-176.3" font-family="Times,serif" font-size="14.00">kstrtobool</text>
</g>
<!-- strtobool.constprop.0&#45;&gt;kstrtobool -->
<g id="edge12" class="edge">
<title>strtobool.constprop.0&#45;&gt;kstrtobool</title>
<path fill="none" stroke="black" d="M530.19,-180C550.61,-180 571.37,-180 590.03,-180"/>
<polygon fill="black" stroke="black" points="590.16,-183.5 600.16,-180 590.16,-176.5 590.16,-183.5"/>
</g>
<!-- kasan_disable_current -->
<g id="node6" class="node">
<title>kasan_disable_current</title>
<ellipse fill="none" stroke="black" cx="901.58" cy="-180" rx="114.28" ry="18"/>
<text text-anchor="middle" x="901.58" y="-176.3" font-family="Times,serif" font-size="14.00">kasan_disable_current</text>
</g>
<!-- kasan_enable_current -->
<g id="node7" class="node">
<title>kasan_enable_current</title>
<ellipse fill="none" stroke="black" cx="901.58" cy="-234" rx="111.58" ry="18"/>
<text text-anchor="middle" x="901.58" y="-230.3" font-family="Times,serif" font-size="14.00">kasan_enable_current</text>
</g>
<!-- kernel_poison_pages -->
<g id="node8" class="node">
<title>kernel_poison_pages</title>
<ellipse fill="none" stroke="black" cx="129.99" cy="-72" rx="106.68" ry="18"/>
<text text-anchor="middle" x="129.99" y="-68.3" font-family="Times,serif" font-size="14.00">kernel_poison_pages</text>
</g>
<!-- page_poisoning_enabled -->
<g id="node9" class="node">
<title>page_poisoning_enabled</title>
<ellipse fill="none" stroke="black" cx="419.47" cy="-18" rx="123.48" ry="18"/>
<text text-anchor="middle" x="419.47" y="-14.3" font-family="Times,serif" font-size="14.00">page_poisoning_enabled</text>
</g>
<!-- kernel_poison_pages&#45;&gt;page_poisoning_enabled -->
<g id="edge3" class="edge">
<title>kernel_poison_pages&#45;&gt;page_poisoning_enabled</title>
<path fill="none" stroke="black" d="M202.05,-58.65C241.69,-51.21 291.33,-41.88 333.07,-34.04"/>
<polygon fill="black" stroke="black" points="333.76,-37.47 342.94,-32.19 332.47,-30.59 333.76,-37.47"/>
</g>
<!-- poison_pages -->
<g id="node10" class="node">
<title>poison_pages</title>
<ellipse fill="none" stroke="black" cx="419.47" cy="-126" rx="72.59" ry="18"/>
<text text-anchor="middle" x="419.47" y="-122.3" font-family="Times,serif" font-size="14.00">poison_pages</text>
</g>
<!-- kernel_poison_pages&#45;&gt;poison_pages -->
<g id="edge4" class="edge">
<title>kernel_poison_pages&#45;&gt;poison_pages</title>
<path fill="none" stroke="black" d="M202.05,-85.35C247.5,-93.88 306.1,-104.89 350.85,-113.3"/>
<polygon fill="black" stroke="black" points="350.29,-116.75 360.76,-115.16 351.58,-109.87 350.29,-116.75"/>
</g>
<!-- unpoison_pages -->
<g id="node11" class="node">
<title>unpoison_pages</title>
<ellipse fill="none" stroke="black" cx="419.47" cy="-72" rx="84.49" ry="18"/>
<text text-anchor="middle" x="419.47" y="-68.3" font-family="Times,serif" font-size="14.00">unpoison_pages</text>
</g>
<!-- kernel_poison_pages&#45;&gt;unpoison_pages -->
<g id="edge5" class="edge">
<title>kernel_poison_pages&#45;&gt;unpoison_pages</title>
<path fill="none" stroke="black" d="M236.81,-72C265.61,-72 296.6,-72 324.69,-72"/>
<polygon fill="black" stroke="black" points="324.89,-75.5 334.89,-72 324.89,-68.5 324.89,-75.5"/>
</g>
<!-- poison_page -->
<g id="node14" class="node">
<title>poison_page</title>
<ellipse fill="none" stroke="black" cx="658.25" cy="-126" rx="67.69" ry="18"/>
<text text-anchor="middle" x="658.25" y="-122.3" font-family="Times,serif" font-size="14.00">poison_page</text>
</g>
<!-- poison_pages&#45;&gt;poison_page -->
<g id="edge11" class="edge">
<title>poison_pages&#45;&gt;poison_page</title>
<path fill="none" stroke="black" d="M492.47,-126C520.22,-126 552.01,-126 580.22,-126"/>
<polygon fill="black" stroke="black" points="580.43,-129.5 590.43,-126 580.43,-122.5 580.43,-129.5"/>
</g>
<!-- unpoison_page -->
<g id="node16" class="node">
<title>unpoison_page</title>
<ellipse fill="none" stroke="black" cx="658.25" cy="-72" rx="79.09" ry="18"/>
<text text-anchor="middle" x="658.25" y="-68.3" font-family="Times,serif" font-size="14.00">unpoison_page</text>
</g>
<!-- unpoison_pages&#45;&gt;unpoison_page -->
<g id="edge16" class="edge">
<title>unpoison_pages&#45;&gt;unpoison_page</title>
<path fill="none" stroke="black" d="M504.28,-72C525.09,-72 547.46,-72 568.49,-72"/>
<polygon fill="black" stroke="black" points="568.7,-75.5 578.7,-72 568.7,-68.5 568.7,-75.5"/>
</g>
<!-- kmap_atomic -->
<g id="node12" class="node">
<title>kmap_atomic</title>
<ellipse fill="none" stroke="black" cx="901.58" cy="-126" rx="71.49" ry="18"/>
<text text-anchor="middle" x="901.58" y="-122.3" font-family="Times,serif" font-size="14.00">kmap_atomic</text>
</g>
<!-- pagefault_disable -->
<g id="node13" class="node">
<title>pagefault_disable</title>
<ellipse fill="none" stroke="black" cx="1157.91" cy="-126" rx="92.08" ry="18"/>
<text text-anchor="middle" x="1157.91" y="-122.3" font-family="Times,serif" font-size="14.00">pagefault_disable</text>
</g>
<!-- kmap_atomic&#45;&gt;pagefault_disable -->
<g id="edge6" class="edge">
<title>kmap_atomic&#45;&gt;pagefault_disable</title>
<path fill="none" stroke="black" d="M973.09,-126C998.49,-126 1027.68,-126 1055.21,-126"/>
<polygon fill="black" stroke="black" points="1055.27,-129.5 1065.27,-126 1055.27,-122.5 1055.27,-129.5"/>
</g>
<!-- poison_page&#45;&gt;__kunmap_atomic.isra.0 -->
<g id="edge7" class="edge">
<title>poison_page&#45;&gt;__kunmap_atomic.isra.0</title>
<path fill="none" stroke="black" d="M708.98,-113.99C729.01,-109.22 752.35,-103.75 773.54,-99 788.61,-95.62 804.71,-92.11 820.21,-88.79"/>
<polygon fill="black" stroke="black" points="821.24,-92.15 830.29,-86.64 819.78,-85.31 821.24,-92.15"/>
</g>
<!-- poison_page&#45;&gt;kasan_disable_current -->
<g id="edge8" class="edge">
<title>poison_page&#45;&gt;kasan_disable_current</title>
<path fill="none" stroke="black" d="M708.98,-138.01C729.01,-142.78 752.35,-148.25 773.54,-153 789.21,-156.52 805.99,-160.16 822.06,-163.6"/>
<polygon fill="black" stroke="black" points="821.44,-167.05 831.95,-165.71 822.9,-160.2 821.44,-167.05"/>
</g>
<!-- poison_page&#45;&gt;kasan_enable_current -->
<g id="edge9" class="edge">
<title>poison_page&#45;&gt;kasan_enable_current</title>
<path fill="none" stroke="black" d="M709.34,-137.83C719.3,-141.63 729.23,-146.59 737.54,-153 760.37,-170.63 749.67,-190.81 773.54,-207 781.66,-212.51 790.68,-216.92 800.08,-220.46"/>
<polygon fill="black" stroke="black" points="798.98,-223.78 809.57,-223.71 801.24,-217.16 798.98,-223.78"/>
</g>
<!-- poison_page&#45;&gt;kmap_atomic -->
<g id="edge10" class="edge">
<title>poison_page&#45;&gt;kmap_atomic</title>
<path fill="none" stroke="black" d="M726.15,-126C755.1,-126 789.24,-126 819.61,-126"/>
<polygon fill="black" stroke="black" points="819.75,-129.5 829.75,-126 819.75,-122.5 819.75,-129.5"/>
</g>
<!-- unpoison_page&#45;&gt;__kunmap_atomic.isra.0 -->
<g id="edge13" class="edge">
<title>unpoison_page&#45;&gt;__kunmap_atomic.isra.0</title>
<path fill="none" stroke="black" d="M737.6,-72C747.93,-72 758.73,-72 769.64,-72"/>
<polygon fill="black" stroke="black" points="769.68,-75.5 779.68,-72 769.68,-68.5 769.68,-75.5"/>
</g>
<!-- unpoison_page&#45;&gt;check_poison_mem.isra.0 -->
<g id="edge14" class="edge">
<title>unpoison_page&#45;&gt;check_poison_mem.isra.0</title>
<path fill="none" stroke="black" d="M713.26,-58.98C732.29,-54.46 753.85,-49.42 773.54,-45 788.25,-41.7 803.94,-38.28 819.1,-35.03"/>
<polygon fill="black" stroke="black" points="819.92,-38.44 828.96,-32.93 818.45,-31.59 819.92,-38.44"/>
</g>
<!-- unpoison_page&#45;&gt;kmap_atomic -->
<g id="edge15" class="edge">
<title>unpoison_page&#45;&gt;kmap_atomic</title>
<path fill="none" stroke="black" d="M713.26,-85.02C732.29,-89.54 753.85,-94.58 773.54,-99 793.77,-103.54 815.86,-108.3 835.87,-112.54"/>
<polygon fill="black" stroke="black" points="835.3,-116 845.81,-114.64 836.75,-109.15 835.3,-116"/>
</g>
</g>
</svg>
