<?xml version="1.0" encoding="UTF-8" standalone="no"?>
<!DOCTYPE svg PUBLIC "-//W3C//DTD SVG 1.1//EN"
 "http://www.w3.org/Graphics/SVG/1.1/DTD/svg11.dtd">
<!-- Generated by graphviz version 2.43.0 (0)
 -->
<!-- Title: callgraph Pages: 1 -->
<svg width="1529pt" height="261pt"
 viewBox="0.00 0.00 1529.48 261.00" xmlns="http://www.w3.org/2000/svg" xmlns:xlink="http://www.w3.org/1999/xlink">
<g id="graph0" class="graph" transform="scale(1 1) rotate(0) translate(4 257)">
<title>callgraph</title>
<polygon fill="white" stroke="transparent" points="-4,4 -4,-257 1525.48,-257 1525.48,4 -4,4"/>
<!-- __ia32_sys_readahead -->
<g id="node1" class="node">
<title>__ia32_sys_readahead</title>
<ellipse fill="none" stroke="black" cx="112.44" cy="-72" rx="112.38" ry="18"/>
<text text-anchor="middle" x="112.44" y="-68.3" font-family="Times,serif" font-size="14.00">__ia32_sys_readahead</text>
</g>
<!-- ksys_readahead -->
<g id="node2" class="node">
<title>ksys_readahead</title>
<ellipse fill="none" stroke="black" cx="373.97" cy="-45" rx="84.49" ry="18"/>
<text text-anchor="middle" x="373.97" y="-41.3" font-family="Times,serif" font-size="14.00">ksys_readahead</text>
</g>
<!-- __ia32_sys_readahead&#45;&gt;ksys_readahead -->
<g id="edge1" class="edge">
<title>__ia32_sys_readahead&#45;&gt;ksys_readahead</title>
<path fill="none" stroke="black" d="M207.14,-62.25C233.41,-59.52 261.83,-56.56 287.6,-53.88"/>
<polygon fill="black" stroke="black" points="288.12,-57.35 297.71,-52.83 287.4,-50.38 288.12,-57.35"/>
</g>
<!-- vfs_fadvise -->
<g id="node6" class="node">
<title>vfs_fadvise</title>
<ellipse fill="none" stroke="black" stroke-dasharray="5,2" cx="630.95" cy="-45" rx="61.99" ry="18"/>
<text text-anchor="middle" x="630.95" y="-41.3" font-family="Times,serif" font-size="14.00">vfs_fadvise</text>
</g>
<!-- ksys_readahead&#45;&gt;vfs_fadvise -->
<g id="edge4" class="edge">
<title>ksys_readahead&#45;&gt;vfs_fadvise</title>
<path fill="none" stroke="black" d="M458.81,-45C491.15,-45 527.76,-45 558.79,-45"/>
<polygon fill="black" stroke="black" points="559.08,-48.5 569.08,-45 559.08,-41.5 559.08,-48.5"/>
</g>
<!-- __x64_sys_readahead -->
<g id="node3" class="node">
<title>__x64_sys_readahead</title>
<ellipse fill="none" stroke="black" cx="112.44" cy="-18" rx="109.38" ry="18"/>
<text text-anchor="middle" x="112.44" y="-14.3" font-family="Times,serif" font-size="14.00">__x64_sys_readahead</text>
</g>
<!-- __x64_sys_readahead&#45;&gt;ksys_readahead -->
<g id="edge2" class="edge">
<title>__x64_sys_readahead&#45;&gt;ksys_readahead</title>
<path fill="none" stroke="black" d="M205.31,-27.56C232.07,-30.34 261.19,-33.37 287.54,-36.11"/>
<polygon fill="black" stroke="black" points="287.19,-39.59 297.5,-37.15 287.91,-32.63 287.19,-39.59"/>
</g>
<!-- force_page_cache_ra -->
<g id="node4" class="node">
<title>force_page_cache_ra</title>
<ellipse fill="none" stroke="black" cx="630.95" cy="-224" rx="105.88" ry="18"/>
<text text-anchor="middle" x="630.95" y="-220.3" font-family="Times,serif" font-size="14.00">force_page_cache_ra</text>
</g>
<!-- page_cache_ra_unbounded -->
<g id="node5" class="node">
<title>page_cache_ra_unbounded</title>
<ellipse fill="none" stroke="black" cx="908.73" cy="-192" rx="133.78" ry="18"/>
<text text-anchor="middle" x="908.73" y="-188.3" font-family="Times,serif" font-size="14.00">page_cache_ra_unbounded</text>
</g>
<!-- force_page_cache_ra&#45;&gt;page_cache_ra_unbounded -->
<g id="edge3" class="edge">
<title>force_page_cache_ra&#45;&gt;page_cache_ra_unbounded</title>
<path fill="none" stroke="black" d="M718.83,-213.92C743.5,-211.06 770.71,-207.9 796.6,-204.89"/>
<polygon fill="black" stroke="black" points="797.31,-208.34 806.84,-203.71 796.5,-201.38 797.31,-208.34"/>
</g>
<!-- filemap_add_folio -->
<g id="node11" class="node">
<title>filemap_add_folio</title>
<ellipse fill="none" stroke="black" stroke-dasharray="5,2" cx="1173.51" cy="-58" rx="90.98" ry="18"/>
<text text-anchor="middle" x="1173.51" y="-54.3" font-family="Times,serif" font-size="14.00">filemap_add_folio</text>
</g>
<!-- page_cache_ra_unbounded&#45;&gt;filemap_add_folio -->
<g id="edge13" class="edge">
<title>page_cache_ra_unbounded&#45;&gt;filemap_add_folio</title>
<path fill="none" stroke="black" d="M933.11,-174.12C964.63,-150.76 1023.21,-109.9 1078.62,-85 1086.91,-81.27 1095.85,-77.92 1104.8,-74.95"/>
<polygon fill="black" stroke="black" points="1106.01,-78.24 1114.48,-71.88 1103.89,-71.57 1106.01,-78.24"/>
</g>
<!-- filemap_alloc_folio -->
<g id="node12" class="node">
<title>filemap_alloc_folio</title>
<ellipse fill="none" stroke="black" stroke-dasharray="5,2" cx="1173.51" cy="-112" rx="94.78" ry="18"/>
<text text-anchor="middle" x="1173.51" y="-108.3" font-family="Times,serif" font-size="14.00">filemap_alloc_folio</text>
</g>
<!-- page_cache_ra_unbounded&#45;&gt;filemap_alloc_folio -->
<g id="edge14" class="edge">
<title>page_cache_ra_unbounded&#45;&gt;filemap_alloc_folio</title>
<path fill="none" stroke="black" d="M963.86,-175.52C1007.25,-162.31 1068.08,-143.79 1112.87,-130.16"/>
<polygon fill="black" stroke="black" points="1113.91,-133.5 1122.45,-127.24 1111.87,-126.8 1113.91,-133.5"/>
</g>
<!-- read_pages -->
<g id="node13" class="node">
<title>read_pages</title>
<ellipse fill="none" stroke="black" cx="1173.51" cy="-181" rx="63.89" ry="18"/>
<text text-anchor="middle" x="1173.51" y="-177.3" font-family="Times,serif" font-size="14.00">read_pages</text>
</g>
<!-- page_cache_ra_unbounded&#45;&gt;read_pages -->
<g id="edge15" class="edge">
<title>page_cache_ra_unbounded&#45;&gt;read_pages</title>
<path fill="none" stroke="black" d="M1036.89,-186.68C1058.64,-185.77 1080.55,-184.85 1100.22,-184.03"/>
<polygon fill="black" stroke="black" points="1100.45,-187.52 1110.3,-183.6 1100.16,-180.53 1100.45,-187.52"/>
</g>
<!-- ondemand_readahead -->
<g id="node7" class="node">
<title>ondemand_readahead</title>
<ellipse fill="none" stroke="black" cx="373.97" cy="-126" rx="112.38" ry="18"/>
<text text-anchor="middle" x="373.97" y="-122.3" font-family="Times,serif" font-size="14.00">ondemand_readahead</text>
</g>
<!-- ondemand_readahead&#45;&gt;page_cache_ra_unbounded -->
<g id="edge6" class="edge">
<title>ondemand_readahead&#45;&gt;page_cache_ra_unbounded</title>
<path fill="none" stroke="black" d="M445.22,-139.99C469.77,-144.56 497.57,-149.39 523.06,-153 609.72,-165.27 707.9,-175.16 783.38,-181.91"/>
<polygon fill="black" stroke="black" points="783.14,-185.4 793.41,-182.8 783.76,-178.43 783.14,-185.4"/>
</g>
<!-- page_cache_ra_order -->
<g id="node8" class="node">
<title>page_cache_ra_order</title>
<ellipse fill="none" stroke="black" cx="630.95" cy="-126" rx="107.78" ry="18"/>
<text text-anchor="middle" x="630.95" y="-122.3" font-family="Times,serif" font-size="14.00">page_cache_ra_order</text>
</g>
<!-- ondemand_readahead&#45;&gt;page_cache_ra_order -->
<g id="edge5" class="edge">
<title>ondemand_readahead&#45;&gt;page_cache_ra_order</title>
<path fill="none" stroke="black" d="M486.44,-126C495.11,-126 503.87,-126 512.58,-126"/>
<polygon fill="black" stroke="black" points="512.76,-129.5 522.76,-126 512.76,-122.5 512.76,-129.5"/>
</g>
<!-- page_cache_ra_order&#45;&gt;page_cache_ra_unbounded -->
<g id="edge11" class="edge">
<title>page_cache_ra_order&#45;&gt;page_cache_ra_unbounded</title>
<path fill="none" stroke="black" d="M693.5,-140.73C734.44,-150.53 788.49,-163.46 832.06,-173.89"/>
<polygon fill="black" stroke="black" points="831.5,-177.36 842.04,-176.28 833.13,-170.55 831.5,-177.36"/>
</g>
<!-- page_cache_ra_order&#45;&gt;filemap_add_folio -->
<g id="edge9" class="edge">
<title>page_cache_ra_order&#45;&gt;filemap_add_folio</title>
<path fill="none" stroke="black" d="M672.6,-109.33C693.37,-99.88 718.48,-86.95 738.84,-72 757.33,-58.42 753.7,-43.93 774.84,-35 888.48,12.98 1036.82,-17.06 1116.33,-39.7"/>
<polygon fill="black" stroke="black" points="1115.57,-43.12 1126.15,-42.56 1117.53,-36.4 1115.57,-43.12"/>
</g>
<!-- page_cache_ra_order&#45;&gt;filemap_alloc_folio -->
<g id="edge10" class="edge">
<title>page_cache_ra_order&#45;&gt;filemap_alloc_folio</title>
<path fill="none" stroke="black" d="M737.78,-123.26C833.57,-120.78 973.81,-117.15 1068.9,-114.68"/>
<polygon fill="black" stroke="black" points="1069.21,-118.18 1079.11,-114.42 1069.03,-111.18 1069.21,-118.18"/>
</g>
<!-- page_cache_ra_order&#45;&gt;read_pages -->
<g id="edge12" class="edge">
<title>page_cache_ra_order&#45;&gt;read_pages</title>
<path fill="none" stroke="black" d="M727.04,-134.27C810.32,-141.7 934.58,-153.22 1042.62,-165 1063,-167.22 1085.16,-169.87 1105.3,-172.36"/>
<polygon fill="black" stroke="black" points="1104.97,-175.84 1115.32,-173.61 1105.83,-168.9 1104.97,-175.84"/>
</g>
<!-- page_cache_async_ra -->
<g id="node9" class="node">
<title>page_cache_async_ra</title>
<ellipse fill="none" stroke="black" cx="112.44" cy="-126" rx="108.58" ry="18"/>
<text text-anchor="middle" x="112.44" y="-122.3" font-family="Times,serif" font-size="14.00">page_cache_async_ra</text>
</g>
<!-- page_cache_async_ra&#45;&gt;ondemand_readahead -->
<g id="edge8" class="edge">
<title>page_cache_async_ra&#45;&gt;ondemand_readahead</title>
<path fill="none" stroke="black" d="M221.25,-126C231.17,-126 241.27,-126 251.31,-126"/>
<polygon fill="black" stroke="black" points="251.31,-129.5 261.31,-126 251.31,-122.5 251.31,-129.5"/>
</g>
<!-- blk_cgroup_congested -->
<g id="node10" class="node">
<title>blk_cgroup_congested</title>
<ellipse fill="none" stroke="black" stroke-dasharray="5,2" cx="373.97" cy="-180" rx="113.18" ry="18"/>
<text text-anchor="middle" x="373.97" y="-176.3" font-family="Times,serif" font-size="14.00">blk_cgroup_congested</text>
</g>
<!-- page_cache_async_ra&#45;&gt;blk_cgroup_congested -->
<g id="edge7" class="edge">
<title>page_cache_async_ra&#45;&gt;blk_cgroup_congested</title>
<path fill="none" stroke="black" d="M180.95,-140.05C215.68,-147.27 258.21,-156.12 294.41,-163.65"/>
<polygon fill="black" stroke="black" points="293.94,-167.13 304.44,-165.74 295.37,-160.28 293.94,-167.13"/>
</g>
<!-- blk_finish_plug -->
<g id="node15" class="node">
<title>blk_finish_plug</title>
<ellipse fill="none" stroke="black" stroke-dasharray="5,2" cx="1412.94" cy="-235" rx="79.09" ry="18"/>
<text text-anchor="middle" x="1412.94" y="-231.3" font-family="Times,serif" font-size="14.00">blk_finish_plug</text>
</g>
<!-- read_pages&#45;&gt;blk_finish_plug -->
<g id="edge19" class="edge">
<title>read_pages&#45;&gt;blk_finish_plug</title>
<path fill="none" stroke="black" d="M1223.7,-192.19C1259.12,-200.24 1307.27,-211.19 1346.01,-220"/>
<polygon fill="black" stroke="black" points="1345.62,-223.51 1356.15,-222.31 1347.18,-216.68 1345.62,-223.51"/>
</g>
<!-- blk_start_plug -->
<g id="node16" class="node">
<title>blk_start_plug</title>
<ellipse fill="none" stroke="black" stroke-dasharray="5,2" cx="1412.94" cy="-181" rx="76.89" ry="18"/>
<text text-anchor="middle" x="1412.94" y="-177.3" font-family="Times,serif" font-size="14.00">blk_start_plug</text>
</g>
<!-- read_pages&#45;&gt;blk_start_plug -->
<g id="edge20" class="edge">
<title>read_pages&#45;&gt;blk_start_plug</title>
<path fill="none" stroke="black" d="M1237.51,-181C1264.55,-181 1296.57,-181 1325.75,-181"/>
<polygon fill="black" stroke="black" points="1325.94,-184.5 1335.94,-181 1325.94,-177.5 1325.94,-184.5"/>
</g>
<!-- filemap_remove_folio -->
<g id="node17" class="node">
<title>filemap_remove_folio</title>
<ellipse fill="none" stroke="black" stroke-dasharray="5,2" cx="1412.94" cy="-127" rx="108.58" ry="18"/>
<text text-anchor="middle" x="1412.94" y="-123.3" font-family="Times,serif" font-size="14.00">filemap_remove_folio</text>
</g>
<!-- read_pages&#45;&gt;filemap_remove_folio -->
<g id="edge21" class="edge">
<title>read_pages&#45;&gt;filemap_remove_folio</title>
<path fill="none" stroke="black" d="M1223.7,-169.81C1256.75,-162.3 1300.88,-152.26 1338.11,-143.79"/>
<polygon fill="black" stroke="black" points="1338.94,-147.19 1347.92,-141.56 1337.39,-140.37 1338.94,-147.19"/>
</g>
<!-- page_cache_sync_ra -->
<g id="node14" class="node">
<title>page_cache_sync_ra</title>
<ellipse fill="none" stroke="black" cx="112.44" cy="-180" rx="103.18" ry="18"/>
<text text-anchor="middle" x="112.44" y="-176.3" font-family="Times,serif" font-size="14.00">page_cache_sync_ra</text>
</g>
<!-- page_cache_sync_ra&#45;&gt;force_page_cache_ra -->
<g id="edge17" class="edge">
<title>page_cache_sync_ra&#45;&gt;force_page_cache_ra</title>
<path fill="none" stroke="black" d="M178.48,-193.87C204.05,-198.8 233.73,-203.9 260.88,-207 345.64,-216.67 441.94,-220.88 514.91,-222.69"/>
<polygon fill="black" stroke="black" points="514.97,-226.2 525.05,-222.93 515.14,-219.2 514.97,-226.2"/>
</g>
<!-- page_cache_sync_ra&#45;&gt;ondemand_readahead -->
<g id="edge18" class="edge">
<title>page_cache_sync_ra&#45;&gt;ondemand_readahead</title>
<path fill="none" stroke="black" d="M179.6,-166.23C214.61,-158.95 257.82,-149.96 294.5,-142.33"/>
<polygon fill="black" stroke="black" points="295.59,-145.68 304.67,-140.21 294.16,-138.82 295.59,-145.68"/>
</g>
<!-- page_cache_sync_ra&#45;&gt;blk_cgroup_congested -->
<g id="edge16" class="edge">
<title>page_cache_sync_ra&#45;&gt;blk_cgroup_congested</title>
<path fill="none" stroke="black" d="M216.01,-180C227.3,-180 238.88,-180 250.37,-180"/>
<polygon fill="black" stroke="black" points="250.45,-183.5 260.45,-180 250.45,-176.5 250.45,-183.5"/>
</g>
<!-- readahead_expand -->
<g id="node18" class="node">
<title>readahead_expand</title>
<ellipse fill="none" stroke="black" cx="908.73" cy="-62" rx="97.48" ry="18"/>
<text text-anchor="middle" x="908.73" y="-58.3" font-family="Times,serif" font-size="14.00">readahead_expand</text>
</g>
<!-- readahead_expand&#45;&gt;filemap_add_folio -->
<g id="edge22" class="edge">
<title>readahead_expand&#45;&gt;filemap_add_folio</title>
<path fill="none" stroke="black" d="M1006.09,-60.53C1027.71,-60.2 1050.7,-59.85 1072.47,-59.52"/>
<polygon fill="black" stroke="black" points="1072.76,-63.02 1082.71,-59.37 1072.66,-56.02 1072.76,-63.02"/>
</g>
<!-- readahead_expand&#45;&gt;filemap_alloc_folio -->
<g id="edge23" class="edge">
<title>readahead_expand&#45;&gt;filemap_alloc_folio</title>
<path fill="none" stroke="black" d="M977.4,-74.88C1013.7,-81.78 1058.55,-90.32 1096.1,-97.46"/>
<polygon fill="black" stroke="black" points="1095.5,-100.91 1105.98,-99.34 1096.81,-94.03 1095.5,-100.91"/>
</g>
</g>
</svg>
