<?xml version="1.0" encoding="UTF-8" standalone="no"?>
<!DOCTYPE svg PUBLIC "-//W3C//DTD SVG 1.1//EN"
 "http://www.w3.org/Graphics/SVG/1.1/DTD/svg11.dtd">
<!-- Generated by graphviz version 2.43.0 (0)
 -->
<!-- Title: callgraph Pages: 1 -->
<svg width="1916pt" height="1001pt"
 viewBox="0.00 0.00 1916.45 1000.67" xmlns="http://www.w3.org/2000/svg" xmlns:xlink="http://www.w3.org/1999/xlink">
<g id="graph0" class="graph" transform="scale(1 1) rotate(0) translate(4 996.67)">
<title>callgraph</title>
<polygon fill="white" stroke="transparent" points="-4,4 -4,-996.67 1912.45,-996.67 1912.45,4 -4,4"/>
<!-- css_create -->
<g id="node1" class="node">
<title>css_create</title>
<ellipse fill="blue" stroke="blue" cx="59.14" cy="-423" rx="59.29" ry="18"/>
<text text-anchor="middle" x="59.14" y="-419.3" font-family="Times,serif" font-size="14.00">css_create</text>
</g>
<!-- cgroup_parent -->
<g id="node2" class="node">
<title>cgroup_parent</title>
<ellipse fill="none" stroke="black" cx="588.7" cy="-974" rx="77.99" ry="18"/>
<text text-anchor="middle" x="588.7" y="-970.3" font-family="Times,serif" font-size="14.00">cgroup_parent</text>
</g>
<!-- css_create&#45;&gt;cgroup_parent -->
<g id="edge1" class="edge">
<title>css_create&#45;&gt;cgroup_parent</title>
<path fill="none" stroke="black" d="M60.94,-441.07C64.83,-521.19 84.67,-843.4 154.29,-910 251.2,-1002.71 420.23,-998.07 516.05,-986.2"/>
<polygon fill="black" stroke="black" points="516.76,-989.64 526.23,-984.88 515.86,-982.7 516.76,-989.64"/>
</g>
<!-- cgroup_css -->
<g id="node3" class="node">
<title>cgroup_css</title>
<ellipse fill="none" stroke="black" cx="588.7" cy="-920" rx="61.99" ry="18"/>
<text text-anchor="middle" x="588.7" y="-916.3" font-family="Times,serif" font-size="14.00">cgroup_css</text>
</g>
<!-- css_create&#45;&gt;cgroup_css -->
<g id="edge2" class="edge">
<title>css_create&#45;&gt;cgroup_css</title>
<path fill="none" stroke="black" d="M61.41,-441C67.03,-515.3 92.16,-796.83 154.29,-855 255.33,-949.61 431.65,-942.58 525.23,-930.59"/>
<polygon fill="black" stroke="black" points="525.95,-934.02 535.39,-929.22 525.02,-927.08 525.95,-934.02"/>
</g>
<!-- ERR_PTR -->
<g id="node4" class="node">
<title>ERR_PTR</title>
<ellipse fill="none" stroke="black" cx="298.58" cy="-828" rx="54.69" ry="18"/>
<text text-anchor="middle" x="298.58" y="-824.3" font-family="Times,serif" font-size="14.00">ERR_PTR</text>
</g>
<!-- css_create&#45;&gt;ERR_PTR -->
<g id="edge3" class="edge">
<title>css_create&#45;&gt;ERR_PTR</title>
<path fill="none" stroke="black" d="M62.1,-441.22C69.82,-509.68 100.43,-750.17 154.29,-801 175.52,-821.04 206.71,-828.5 234.57,-830.65"/>
<polygon fill="black" stroke="black" points="234.48,-834.15 244.66,-831.22 234.87,-827.16 234.48,-834.15"/>
</g>
<!-- IS_ERR -->
<g id="node5" class="node">
<title>IS_ERR</title>
<ellipse fill="none" stroke="black" cx="298.58" cy="-774" rx="45.49" ry="18"/>
<text text-anchor="middle" x="298.58" y="-770.3" font-family="Times,serif" font-size="14.00">IS_ERR</text>
</g>
<!-- css_create&#45;&gt;IS_ERR -->
<g id="edge4" class="edge">
<title>css_create&#45;&gt;IS_ERR</title>
<path fill="none" stroke="black" d="M59.38,-441.03C58.12,-496.11 62.34,-663.53 154.29,-747 178.1,-768.61 213.56,-775.43 243.24,-776.8"/>
<polygon fill="black" stroke="black" points="243.38,-780.31 253.47,-777.08 243.57,-773.31 243.38,-780.31"/>
</g>
<!-- init_and_link_css -->
<g id="node6" class="node">
<title>init_and_link_css</title>
<ellipse fill="none" stroke="black" cx="298.58" cy="-720" rx="88.28" ry="18"/>
<text text-anchor="middle" x="298.58" y="-716.3" font-family="Times,serif" font-size="14.00">init_and_link_css</text>
</g>
<!-- css_create&#45;&gt;init_and_link_css -->
<g id="edge5" class="edge">
<title>css_create&#45;&gt;init_and_link_css</title>
<path fill="none" stroke="black" d="M67.39,-440.83C81.2,-473.52 113.55,-544.33 154.29,-595 186.81,-635.45 233.43,-673.36 264.56,-696.6"/>
<polygon fill="black" stroke="black" points="262.78,-699.63 272.91,-702.75 266.94,-694 262.78,-699.63"/>
</g>
<!-- INIT_LIST_HEAD -->
<g id="node18" class="node">
<title>INIT_LIST_HEAD</title>
<ellipse fill="none" stroke="black" cx="588.7" cy="-612" rx="89.88" ry="18"/>
<text text-anchor="middle" x="588.7" y="-608.3" font-family="Times,serif" font-size="14.00">INIT_LIST_HEAD</text>
</g>
<!-- css_create&#45;&gt;INIT_LIST_HEAD -->
<g id="edge55" class="edge">
<title>css_create&#45;&gt;INIT_LIST_HEAD</title>
<path fill="none" stroke="black" d="M70.33,-440.85C85.35,-465.4 115.85,-509.03 154.29,-531 258.06,-590.32 396.49,-607.41 488.69,-611.72"/>
<polygon fill="black" stroke="black" points="488.72,-615.22 498.86,-612.15 489.01,-608.23 488.72,-615.22"/>
</g>
<!-- percpu_ref_init -->
<g id="node25" class="node">
<title>percpu_ref_init</title>
<ellipse fill="none" stroke="black" stroke-dasharray="5,2" cx="298.58" cy="-504" rx="80.69" ry="18"/>
<text text-anchor="middle" x="298.58" y="-500.3" font-family="Times,serif" font-size="14.00">percpu_ref_init</text>
</g>
<!-- css_create&#45;&gt;percpu_ref_init -->
<g id="edge32" class="edge">
<title>css_create&#45;&gt;percpu_ref_init</title>
<path fill="none" stroke="black" d="M83.82,-439.57C102.23,-451.69 128.83,-467.61 154.29,-477 174.09,-484.31 196.18,-489.72 216.98,-493.69"/>
<polygon fill="black" stroke="black" points="216.61,-497.18 227.07,-495.53 217.86,-490.29 216.61,-497.18"/>
</g>
<!-- cgroup_idr_alloc.constprop.0 -->
<g id="node26" class="node">
<title>cgroup_idr_alloc.constprop.0</title>
<ellipse fill="none" stroke="black" cx="298.58" cy="-450" rx="144.07" ry="18"/>
<text text-anchor="middle" x="298.58" y="-446.3" font-family="Times,serif" font-size="14.00">cgroup_idr_alloc.constprop.0</text>
</g>
<!-- css_create&#45;&gt;cgroup_idr_alloc.constprop.0 -->
<g id="edge33" class="edge">
<title>css_create&#45;&gt;cgroup_idr_alloc.constprop.0</title>
<path fill="none" stroke="black" d="M114.91,-429.23C134.72,-431.48 157.91,-434.12 180.99,-436.74"/>
<polygon fill="black" stroke="black" points="180.88,-440.25 191.21,-437.9 181.67,-433.3 180.88,-440.25"/>
</g>
<!-- list_add_tail_rcu -->
<g id="node32" class="node">
<title>list_add_tail_rcu</title>
<ellipse fill="none" stroke="black" cx="298.58" cy="-342" rx="85.59" ry="18"/>
<text text-anchor="middle" x="298.58" y="-338.3" font-family="Times,serif" font-size="14.00">list_add_tail_rcu</text>
</g>
<!-- css_create&#45;&gt;list_add_tail_rcu -->
<g id="edge39" class="edge">
<title>css_create&#45;&gt;list_add_tail_rcu</title>
<path fill="none" stroke="black" d="M83.82,-406.43C102.23,-394.31 128.83,-378.39 154.29,-369 173.18,-362.03 194.17,-356.78 214.13,-352.86"/>
<polygon fill="black" stroke="black" points="214.96,-356.27 224.14,-350.99 213.67,-349.39 214.96,-356.27"/>
</g>
<!-- cgroup_idr_replace -->
<g id="node33" class="node">
<title>cgroup_idr_replace</title>
<ellipse fill="none" stroke="black" cx="298.58" cy="-396" rx="98.58" ry="18"/>
<text text-anchor="middle" x="298.58" y="-392.3" font-family="Times,serif" font-size="14.00">cgroup_idr_replace</text>
</g>
<!-- css_create&#45;&gt;cgroup_idr_replace -->
<g id="edge41" class="edge">
<title>css_create&#45;&gt;cgroup_idr_replace</title>
<path fill="none" stroke="black" d="M114.91,-416.77C141.37,-413.76 173.86,-410.07 204.07,-406.63"/>
<polygon fill="black" stroke="black" points="204.68,-410.09 214.22,-405.48 203.88,-403.13 204.68,-410.09"/>
</g>
<!-- online_css -->
<g id="node35" class="node">
<title>online_css</title>
<ellipse fill="none" stroke="black" cx="298.58" cy="-288" rx="57.69" ry="18"/>
<text text-anchor="middle" x="298.58" y="-284.3" font-family="Times,serif" font-size="14.00">online_css</text>
</g>
<!-- css_create&#45;&gt;online_css -->
<g id="edge45" class="edge">
<title>css_create&#45;&gt;online_css</title>
<path fill="none" stroke="black" d="M70.34,-405.16C85.36,-380.62 115.87,-337 154.29,-315 177.27,-301.84 205.38,-294.93 230.61,-291.36"/>
<polygon fill="black" stroke="black" points="231.37,-294.79 240.85,-290.06 230.49,-287.84 231.37,-294.79"/>
</g>
<!-- list_del_rcu -->
<g id="node37" class="node">
<title>list_del_rcu</title>
<ellipse fill="none" stroke="black" cx="298.58" cy="-234" rx="63.89" ry="18"/>
<text text-anchor="middle" x="298.58" y="-230.3" font-family="Times,serif" font-size="14.00">list_del_rcu</text>
</g>
<!-- css_create&#45;&gt;list_del_rcu -->
<g id="edge48" class="edge">
<title>css_create&#45;&gt;list_del_rcu</title>
<path fill="none" stroke="black" d="M65.13,-404.98C75.55,-370.91 103.02,-297.24 154.29,-261 174.55,-246.68 200.29,-239.37 224.36,-235.8"/>
<polygon fill="black" stroke="black" points="225.07,-239.23 234.55,-234.48 224.18,-232.29 225.07,-239.23"/>
</g>
<!-- printk -->
<g id="node41" class="node">
<title>printk</title>
<ellipse fill="none" stroke="black" stroke-dasharray="5,2" cx="298.58" cy="-180" rx="38.99" ry="18"/>
<text text-anchor="middle" x="298.58" y="-176.3" font-family="Times,serif" font-size="14.00">printk</text>
</g>
<!-- css_create&#45;&gt;printk -->
<g id="edge52" class="edge">
<title>css_create&#45;&gt;printk</title>
<path fill="none" stroke="black" d="M62.36,-404.79C68.52,-362.7 89.83,-258.38 154.29,-207 180.94,-185.76 219.19,-179.39 249.46,-178.13"/>
<polygon fill="black" stroke="black" points="249.89,-181.62 259.81,-177.88 249.73,-174.62 249.89,-181.62"/>
</g>
<!-- strcmp -->
<g id="node42" class="node">
<title>strcmp</title>
<ellipse fill="none" stroke="black" stroke-dasharray="5,2" cx="298.58" cy="-126" rx="43.59" ry="18"/>
<text text-anchor="middle" x="298.58" y="-122.3" font-family="Times,serif" font-size="14.00">strcmp</text>
</g>
<!-- css_create&#45;&gt;strcmp -->
<g id="edge53" class="edge">
<title>css_create&#45;&gt;strcmp</title>
<path fill="none" stroke="black" d="M60.6,-404.84C62.86,-355.85 76.22,-220.2 154.29,-153 179.09,-131.65 215.37,-124.98 245.22,-123.6"/>
<polygon fill="black" stroke="black" points="245.59,-127.1 255.49,-123.32 245.39,-120.1 245.59,-127.1"/>
</g>
<!-- __init_work.isra.0 -->
<g id="node43" class="node">
<title>__init_work.isra.0</title>
<ellipse fill="none" stroke="black" cx="298.58" cy="-72" rx="91.78" ry="18"/>
<text text-anchor="middle" x="298.58" y="-68.3" font-family="Times,serif" font-size="14.00">__init_work.isra.0</text>
</g>
<!-- css_create&#45;&gt;__init_work.isra.0 -->
<g id="edge54" class="edge">
<title>css_create&#45;&gt;__init_work.isra.0</title>
<path fill="none" stroke="black" d="M59.38,-404.97C58.12,-349.89 62.34,-182.47 154.29,-99 166.4,-88.01 181.52,-80.85 197.36,-76.28"/>
<polygon fill="black" stroke="black" points="198.46,-79.61 207.29,-73.76 196.74,-72.82 198.46,-79.61"/>
</g>
<!-- queue_rcu_work -->
<g id="node44" class="node">
<title>queue_rcu_work</title>
<ellipse fill="none" stroke="black" stroke-dasharray="5,2" cx="298.58" cy="-18" rx="85.59" ry="18"/>
<text text-anchor="middle" x="298.58" y="-14.3" font-family="Times,serif" font-size="14.00">queue_rcu_work</text>
</g>
<!-- css_create&#45;&gt;queue_rcu_work -->
<g id="edge56" class="edge">
<title>css_create&#45;&gt;queue_rcu_work</title>
<path fill="none" stroke="black" d="M62.1,-404.78C69.82,-336.32 100.43,-95.83 154.29,-45 167.57,-32.47 184.74,-24.85 202.56,-20.38"/>
<polygon fill="black" stroke="black" points="203.49,-23.76 212.51,-18.21 201.99,-16.92 203.49,-23.76"/>
</g>
<!-- init_and_link_css&#45;&gt;cgroup_parent -->
<g id="edge25" class="edge">
<title>init_and_link_css&#45;&gt;cgroup_parent</title>
<path fill="none" stroke="black" d="M387.17,-719.89C407.8,-724 428.07,-732.08 442.86,-747 506.47,-811.12 417.11,-881.09 478.86,-947 486.13,-954.75 495.24,-960.43 505.08,-964.56"/>
<polygon fill="black" stroke="black" points="504.11,-967.93 514.7,-968.06 506.5,-961.35 504.11,-967.93"/>
</g>
<!-- init_and_link_css&#45;&gt;cgroup_css -->
<g id="edge26" class="edge">
<title>init_and_link_css&#45;&gt;cgroup_css</title>
<path fill="none" stroke="black" d="M387.28,-720.69C407.66,-724.84 427.78,-732.74 442.86,-747 491.41,-792.93 431.64,-845.71 478.86,-893 489.37,-903.52 503.3,-910.17 517.66,-914.32"/>
<polygon fill="black" stroke="black" points="517.1,-917.78 527.65,-916.8 518.79,-910.99 517.1,-917.78"/>
</g>
<!-- cgroup_get_live -->
<g id="node7" class="node">
<title>cgroup_get_live</title>
<ellipse fill="none" stroke="black" cx="588.7" cy="-812" rx="83.39" ry="18"/>
<text text-anchor="middle" x="588.7" y="-808.3" font-family="Times,serif" font-size="14.00">cgroup_get_live</text>
</g>
<!-- init_and_link_css&#45;&gt;cgroup_get_live -->
<g id="edge6" class="edge">
<title>init_and_link_css&#45;&gt;cgroup_get_live</title>
<path fill="none" stroke="black" d="M379.84,-727.08C401.1,-731.08 423.51,-737.31 442.86,-747 462.27,-756.72 459.96,-769.33 478.86,-780 490.94,-786.82 504.61,-792.31 518.08,-796.68"/>
<polygon fill="black" stroke="black" points="517.24,-800.08 527.82,-799.67 519.29,-793.39 517.24,-800.08"/>
</g>
<!-- css_get -->
<g id="node9" class="node">
<title>css_get</title>
<ellipse fill="none" stroke="black" cx="872.33" cy="-766" rx="44.69" ry="18"/>
<text text-anchor="middle" x="872.33" y="-762.3" font-family="Times,serif" font-size="14.00">css_get</text>
</g>
<!-- init_and_link_css&#45;&gt;css_get -->
<g id="edge27" class="edge">
<title>init_and_link_css&#45;&gt;css_get</title>
<path fill="none" stroke="black" d="M366.21,-731.67C399.88,-737.16 441.43,-743.29 478.86,-747 599.29,-758.95 741.29,-763.46 817.12,-765.11"/>
<polygon fill="black" stroke="black" points="817.3,-768.61 827.38,-765.32 817.45,-761.61 817.3,-768.61"/>
</g>
<!-- init_and_link_css&#45;&gt;INIT_LIST_HEAD -->
<g id="edge22" class="edge">
<title>init_and_link_css&#45;&gt;INIT_LIST_HEAD</title>
<path fill="none" stroke="black" d="M331.89,-703.25C367.25,-685.43 425.94,-657.35 478.86,-639 491.03,-634.78 504.17,-630.94 516.98,-627.56"/>
<polygon fill="black" stroke="black" points="517.87,-630.95 526.69,-625.07 516.13,-624.17 517.87,-630.95"/>
</g>
<!-- atomic_set -->
<g id="node19" class="node">
<title>atomic_set</title>
<ellipse fill="none" stroke="black" cx="588.7" cy="-666" rx="60.39" ry="18"/>
<text text-anchor="middle" x="588.7" y="-662.3" font-family="Times,serif" font-size="14.00">atomic_set</text>
</g>
<!-- init_and_link_css&#45;&gt;atomic_set -->
<g id="edge23" class="edge">
<title>init_and_link_css&#45;&gt;atomic_set</title>
<path fill="none" stroke="black" d="M364.24,-707.88C413.03,-698.74 479.5,-686.28 527.24,-677.33"/>
<polygon fill="black" stroke="black" points="527.94,-680.76 537.13,-675.48 526.65,-673.88 527.94,-680.76"/>
</g>
<!-- cgroup_on_dfl -->
<g id="node21" class="node">
<title>cgroup_on_dfl</title>
<ellipse fill="none" stroke="black" cx="588.7" cy="-866" rx="74.99" ry="18"/>
<text text-anchor="middle" x="588.7" y="-862.3" font-family="Times,serif" font-size="14.00">cgroup_on_dfl</text>
</g>
<!-- init_and_link_css&#45;&gt;cgroup_on_dfl -->
<g id="edge28" class="edge">
<title>init_and_link_css&#45;&gt;cgroup_on_dfl</title>
<path fill="none" stroke="black" d="M386.4,-722.18C406.69,-726.32 426.98,-733.84 442.86,-747 476.67,-775.02 445.87,-810.03 478.86,-839 487.58,-846.65 498.13,-852.2 509.19,-856.22"/>
<polygon fill="black" stroke="black" points="508.41,-859.64 519,-859.36 510.55,-852.98 508.41,-859.64"/>
</g>
<!-- list_add_rcu -->
<g id="node22" class="node">
<title>list_add_rcu</title>
<ellipse fill="none" stroke="black" cx="588.7" cy="-720" rx="66.09" ry="18"/>
<text text-anchor="middle" x="588.7" y="-716.3" font-family="Times,serif" font-size="14.00">list_add_rcu</text>
</g>
<!-- init_and_link_css&#45;&gt;list_add_rcu -->
<g id="edge29" class="edge">
<title>init_and_link_css&#45;&gt;list_add_rcu</title>
<path fill="none" stroke="black" d="M387.2,-720C427.02,-720 473.67,-720 511.95,-720"/>
<polygon fill="black" stroke="black" points="512,-723.5 522,-720 512,-716.5 512,-723.5"/>
</g>
<!-- cgroup_is_dead -->
<g id="node8" class="node">
<title>cgroup_is_dead</title>
<ellipse fill="none" stroke="black" cx="872.33" cy="-820" rx="81.79" ry="18"/>
<text text-anchor="middle" x="872.33" y="-816.3" font-family="Times,serif" font-size="14.00">cgroup_is_dead</text>
</g>
<!-- cgroup_get_live&#45;&gt;cgroup_is_dead -->
<g id="edge7" class="edge">
<title>cgroup_get_live&#45;&gt;cgroup_is_dead</title>
<path fill="none" stroke="black" d="M671.54,-814.32C705.69,-815.29 745.48,-816.42 780.52,-817.42"/>
<polygon fill="black" stroke="black" points="780.66,-820.93 790.75,-817.71 780.85,-813.93 780.66,-820.93"/>
</g>
<!-- cgroup_get_live&#45;&gt;css_get -->
<g id="edge8" class="edge">
<title>cgroup_get_live&#45;&gt;css_get</title>
<path fill="none" stroke="black" d="M655.73,-801.22C706.07,-792.99 774.36,-781.84 820.49,-774.31"/>
<polygon fill="black" stroke="black" points="821.25,-777.73 830.55,-772.66 820.12,-770.82 821.25,-777.73"/>
</g>
<!-- percpu_ref_get -->
<g id="node10" class="node">
<title>percpu_ref_get</title>
<ellipse fill="none" stroke="black" cx="1157.91" cy="-766" rx="79.89" ry="18"/>
<text text-anchor="middle" x="1157.91" y="-762.3" font-family="Times,serif" font-size="14.00">percpu_ref_get</text>
</g>
<!-- css_get&#45;&gt;percpu_ref_get -->
<g id="edge9" class="edge">
<title>css_get&#45;&gt;percpu_ref_get</title>
<path fill="none" stroke="black" d="M917.33,-766C957.35,-766 1017.65,-766 1067.74,-766"/>
<polygon fill="black" stroke="black" points="1067.93,-769.5 1077.93,-766 1067.93,-762.5 1067.93,-769.5"/>
</g>
<!-- percpu_ref_get_many.constprop.0 -->
<g id="node11" class="node">
<title>percpu_ref_get_many.constprop.0</title>
<ellipse fill="none" stroke="black" cx="1472.09" cy="-793" rx="166.27" ry="18"/>
<text text-anchor="middle" x="1472.09" y="-789.3" font-family="Times,serif" font-size="14.00">percpu_ref_get_many.constprop.0</text>
</g>
<!-- percpu_ref_get&#45;&gt;percpu_ref_get_many.constprop.0 -->
<g id="edge10" class="edge">
<title>percpu_ref_get&#45;&gt;percpu_ref_get_many.constprop.0</title>
<path fill="none" stroke="black" d="M1232.89,-772.4C1262.43,-774.95 1297.45,-777.98 1331.43,-780.92"/>
<polygon fill="black" stroke="black" points="1331.18,-784.41 1341.45,-781.79 1331.79,-777.44 1331.18,-784.41"/>
</g>
<!-- percpu_ref_get_many -->
<g id="node17" class="node">
<title>percpu_ref_get_many</title>
<ellipse fill="none" stroke="black" cx="1472.09" cy="-739" rx="109.68" ry="18"/>
<text text-anchor="middle" x="1472.09" y="-735.3" font-family="Times,serif" font-size="14.00">percpu_ref_get_many</text>
</g>
<!-- percpu_ref_get&#45;&gt;percpu_ref_get_many -->
<g id="edge16" class="edge">
<title>percpu_ref_get&#45;&gt;percpu_ref_get_many</title>
<path fill="none" stroke="black" d="M1232.89,-759.6C1272.2,-756.2 1321.22,-751.96 1364.56,-748.21"/>
<polygon fill="black" stroke="black" points="1364.91,-751.7 1374.57,-747.35 1364.31,-744.72 1364.91,-751.7"/>
</g>
<!-- rcu_read_lock_sched -->
<g id="node12" class="node">
<title>rcu_read_lock_sched</title>
<ellipse fill="none" stroke="black" cx="1791.46" cy="-874" rx="105.08" ry="18"/>
<text text-anchor="middle" x="1791.46" y="-870.3" font-family="Times,serif" font-size="14.00">rcu_read_lock_sched</text>
</g>
<!-- percpu_ref_get_many.constprop.0&#45;&gt;rcu_read_lock_sched -->
<g id="edge11" class="edge">
<title>percpu_ref_get_many.constprop.0&#45;&gt;rcu_read_lock_sched</title>
<path fill="none" stroke="black" d="M1533.76,-809.83C1573.66,-820.76 1627.07,-835.13 1674.47,-847 1688.32,-850.47 1703.14,-854.03 1717.4,-857.38"/>
<polygon fill="black" stroke="black" points="1716.63,-860.8 1727.16,-859.67 1718.22,-853.98 1716.63,-860.8"/>
</g>
<!-- __ref_is_percpu -->
<g id="node13" class="node">
<title>__ref_is_percpu</title>
<ellipse fill="none" stroke="black" cx="1791.46" cy="-820" rx="81.49" ry="18"/>
<text text-anchor="middle" x="1791.46" y="-816.3" font-family="Times,serif" font-size="14.00">__ref_is_percpu</text>
</g>
<!-- percpu_ref_get_many.constprop.0&#45;&gt;__ref_is_percpu -->
<g id="edge12" class="edge">
<title>percpu_ref_get_many.constprop.0&#45;&gt;__ref_is_percpu</title>
<path fill="none" stroke="black" d="M1603.55,-804.1C1637.95,-807.03 1674.18,-810.11 1705.49,-812.77"/>
<polygon fill="black" stroke="black" points="1705.21,-816.26 1715.48,-813.62 1705.81,-809.29 1705.21,-816.26"/>
</g>
<!-- atomic_long_add -->
<g id="node14" class="node">
<title>atomic_long_add</title>
<ellipse fill="none" stroke="red" cx="1791.46" cy="-766" rx="87.99" ry="18"/>
<text text-anchor="middle" x="1791.46" y="-762.3" font-family="Times,serif" font-size="14.00">atomic_long_add</text>
</g>
<!-- percpu_ref_get_many.constprop.0&#45;&gt;atomic_long_add -->
<g id="edge13" class="edge">
<title>percpu_ref_get_many.constprop.0&#45;&gt;atomic_long_add</title>
<path fill="none" stroke="black" d="M1603.55,-781.9C1635.96,-779.14 1669.99,-776.25 1700,-773.7"/>
<polygon fill="black" stroke="black" points="1700.35,-777.18 1710.02,-772.84 1699.76,-770.2 1700.35,-777.18"/>
</g>
<!-- rcu_read_unlock_sched -->
<g id="node15" class="node">
<title>rcu_read_unlock_sched</title>
<ellipse fill="none" stroke="black" cx="1791.46" cy="-712" rx="116.98" ry="18"/>
<text text-anchor="middle" x="1791.46" y="-708.3" font-family="Times,serif" font-size="14.00">rcu_read_unlock_sched</text>
</g>
<!-- percpu_ref_get_many.constprop.0&#45;&gt;rcu_read_unlock_sched -->
<g id="edge14" class="edge">
<title>percpu_ref_get_many.constprop.0&#45;&gt;rcu_read_unlock_sched</title>
<path fill="none" stroke="black" d="M1592.94,-780.49C1608.59,-776.83 1624.15,-772.1 1638.47,-766 1656.87,-758.16 1656.34,-747.45 1674.47,-739 1683.47,-734.81 1693.17,-731.24 1702.99,-728.21"/>
<polygon fill="black" stroke="black" points="1704.21,-731.5 1712.83,-725.35 1702.25,-724.78 1704.21,-731.5"/>
</g>
<!-- __stack_chk_fail -->
<g id="node16" class="node">
<title>__stack_chk_fail</title>
<ellipse fill="none" stroke="black" stroke-dasharray="5,2" cx="1791.46" cy="-658" rx="83.39" ry="18"/>
<text text-anchor="middle" x="1791.46" y="-654.3" font-family="Times,serif" font-size="14.00">__stack_chk_fail</text>
</g>
<!-- percpu_ref_get_many.constprop.0&#45;&gt;__stack_chk_fail -->
<g id="edge15" class="edge">
<title>percpu_ref_get_many.constprop.0&#45;&gt;__stack_chk_fail</title>
<path fill="none" stroke="black" d="M1608.76,-782.63C1619.4,-778.38 1629.49,-772.93 1638.47,-766 1669.66,-741.93 1644.1,-710.1 1674.47,-685 1683.35,-677.67 1693.85,-672.24 1704.85,-668.25"/>
<polygon fill="black" stroke="black" points="1706.18,-671.5 1714.62,-665.1 1704.03,-664.84 1706.18,-671.5"/>
</g>
<!-- percpu_ref_get_many&#45;&gt;rcu_read_lock_sched -->
<g id="edge17" class="edge">
<title>percpu_ref_get_many&#45;&gt;rcu_read_lock_sched</title>
<path fill="none" stroke="black" d="M1581.31,-741.06C1601.83,-745.58 1622,-753.29 1638.47,-766 1669.66,-790.07 1644.1,-821.9 1674.47,-847 1680.69,-852.14 1687.71,-856.34 1695.14,-859.77"/>
<polygon fill="black" stroke="black" points="1694.16,-863.15 1704.74,-863.71 1696.82,-856.67 1694.16,-863.15"/>
</g>
<!-- percpu_ref_get_many&#45;&gt;__ref_is_percpu -->
<g id="edge18" class="edge">
<title>percpu_ref_get_many&#45;&gt;__ref_is_percpu</title>
<path fill="none" stroke="black" d="M1570.62,-746.96C1593.48,-750.97 1617.33,-756.99 1638.47,-766 1656.87,-773.84 1656.34,-784.55 1674.47,-793 1687.06,-798.87 1701.03,-803.52 1714.8,-807.18"/>
<polygon fill="black" stroke="black" points="1714.2,-810.64 1724.76,-809.68 1715.91,-803.85 1714.2,-810.64"/>
</g>
<!-- percpu_ref_get_many&#45;&gt;atomic_long_add -->
<g id="edge19" class="edge">
<title>percpu_ref_get_many&#45;&gt;atomic_long_add</title>
<path fill="none" stroke="black" d="M1570.03,-747.25C1611.37,-750.76 1659.34,-754.84 1699.95,-758.3"/>
<polygon fill="black" stroke="black" points="1699.84,-761.8 1710.1,-759.16 1700.44,-754.83 1699.84,-761.8"/>
</g>
<!-- percpu_ref_get_many&#45;&gt;rcu_read_unlock_sched -->
<g id="edge20" class="edge">
<title>percpu_ref_get_many&#45;&gt;rcu_read_unlock_sched</title>
<path fill="none" stroke="black" d="M1570.03,-730.75C1604.21,-727.84 1642.92,-724.55 1678.25,-721.55"/>
<polygon fill="black" stroke="black" points="1678.94,-725 1688.61,-720.66 1678.35,-718.03 1678.94,-725"/>
</g>
<!-- percpu_ref_get_many&#45;&gt;__stack_chk_fail -->
<g id="edge21" class="edge">
<title>percpu_ref_get_many&#45;&gt;__stack_chk_fail</title>
<path fill="none" stroke="black" d="M1528.95,-723.49C1569.29,-712.41 1625.14,-697.35 1674.47,-685 1690.25,-681.05 1707.28,-676.98 1723.31,-673.23"/>
<polygon fill="black" stroke="black" points="1724.2,-676.62 1733.14,-670.94 1722.61,-669.8 1724.2,-676.62"/>
</g>
<!-- kasan_check_write.isra.0 -->
<g id="node20" class="node">
<title>kasan_check_write.isra.0</title>
<ellipse fill="none" stroke="black" cx="872.33" cy="-332" rx="126.18" ry="18"/>
<text text-anchor="middle" x="872.33" y="-328.3" font-family="Times,serif" font-size="14.00">kasan_check_write.isra.0</text>
</g>
<!-- atomic_set&#45;&gt;kasan_check_write.isra.0 -->
<g id="edge24" class="edge">
<title>atomic_set&#45;&gt;kasan_check_write.isra.0</title>
<path fill="none" stroke="black" d="M646.68,-660.81C664.65,-656.95 683.67,-650.32 698.54,-639 700.13,-637.79 814.36,-433.82 856.19,-359.06"/>
<polygon fill="black" stroke="black" points="859.32,-360.64 861.15,-350.2 853.21,-357.22 859.32,-360.64"/>
</g>
<!-- __list_add_rcu -->
<g id="node23" class="node">
<title>__list_add_rcu</title>
<ellipse fill="none" stroke="black" cx="872.33" cy="-603" rx="75.29" ry="18"/>
<text text-anchor="middle" x="872.33" y="-599.3" font-family="Times,serif" font-size="14.00">__list_add_rcu</text>
</g>
<!-- list_add_rcu&#45;&gt;__list_add_rcu -->
<g id="edge30" class="edge">
<title>list_add_rcu&#45;&gt;__list_add_rcu</title>
<path fill="none" stroke="black" d="M642.79,-709.49C660.77,-705.23 680.79,-699.72 698.54,-693 747.91,-674.32 801.3,-644.97 835.46,-624.9"/>
<polygon fill="black" stroke="black" points="837.32,-627.87 844.14,-619.76 833.75,-621.84 837.32,-627.87"/>
</g>
<!-- __list_add_valid.isra.0 -->
<g id="node24" class="node">
<title>__list_add_valid.isra.0</title>
<ellipse fill="none" stroke="black" cx="1157.91" cy="-603" rx="111.58" ry="18"/>
<text text-anchor="middle" x="1157.91" y="-599.3" font-family="Times,serif" font-size="14.00">__list_add_valid.isra.0</text>
</g>
<!-- __list_add_rcu&#45;&gt;__list_add_valid.isra.0 -->
<g id="edge31" class="edge">
<title>__list_add_rcu&#45;&gt;__list_add_valid.isra.0</title>
<path fill="none" stroke="black" d="M947.84,-603C974.82,-603 1006.03,-603 1035.97,-603"/>
<polygon fill="black" stroke="black" points="1036.07,-606.5 1046.07,-603 1036.07,-599.5 1036.07,-606.5"/>
</g>
<!-- idr_preload -->
<g id="node27" class="node">
<title>idr_preload</title>
<ellipse fill="none" stroke="black" stroke-dasharray="5,2" cx="588.7" cy="-450" rx="63.89" ry="18"/>
<text text-anchor="middle" x="588.7" y="-446.3" font-family="Times,serif" font-size="14.00">idr_preload</text>
</g>
<!-- cgroup_idr_alloc.constprop.0&#45;&gt;idr_preload -->
<g id="edge34" class="edge">
<title>cgroup_idr_alloc.constprop.0&#45;&gt;idr_preload</title>
<path fill="none" stroke="black" d="M443.22,-450C468.04,-450 492.88,-450 514.79,-450"/>
<polygon fill="black" stroke="black" points="514.97,-453.5 524.97,-450 514.97,-446.5 514.97,-453.5"/>
</g>
<!-- _raw_spin_lock_bh -->
<g id="node28" class="node">
<title>_raw_spin_lock_bh</title>
<ellipse fill="none" stroke="black" stroke-dasharray="5,2" cx="588.7" cy="-342" rx="95.58" ry="18"/>
<text text-anchor="middle" x="588.7" y="-338.3" font-family="Times,serif" font-size="14.00">_raw_spin_lock_bh</text>
</g>
<!-- cgroup_idr_alloc.constprop.0&#45;&gt;_raw_spin_lock_bh -->
<g id="edge35" class="edge">
<title>cgroup_idr_alloc.constprop.0&#45;&gt;_raw_spin_lock_bh</title>
<path fill="none" stroke="black" d="M410.31,-438.52C421.83,-434.63 432.94,-429.57 442.86,-423 466.92,-407.08 455.27,-385.59 478.86,-369 486.23,-363.82 494.49,-359.63 503.08,-356.24"/>
<polygon fill="black" stroke="black" points="504.26,-359.53 512.5,-352.87 501.91,-352.94 504.26,-359.53"/>
</g>
<!-- idr_alloc -->
<g id="node29" class="node">
<title>idr_alloc</title>
<ellipse fill="none" stroke="black" stroke-dasharray="5,2" cx="588.7" cy="-558" rx="50.09" ry="18"/>
<text text-anchor="middle" x="588.7" y="-554.3" font-family="Times,serif" font-size="14.00">idr_alloc</text>
</g>
<!-- cgroup_idr_alloc.constprop.0&#45;&gt;idr_alloc -->
<g id="edge36" class="edge">
<title>cgroup_idr_alloc.constprop.0&#45;&gt;idr_alloc</title>
<path fill="none" stroke="black" d="M410.31,-461.48C421.83,-465.37 432.94,-470.43 442.86,-477 466.92,-492.92 455.27,-514.41 478.86,-531 493.71,-541.44 512.17,-547.86 529.65,-551.8"/>
<polygon fill="black" stroke="black" points="529.3,-555.3 539.79,-553.84 530.68,-548.43 529.3,-555.3"/>
</g>
<!-- _raw_spin_unlock_bh -->
<g id="node30" class="node">
<title>_raw_spin_unlock_bh</title>
<ellipse fill="none" stroke="black" stroke-dasharray="5,2" cx="588.7" cy="-396" rx="107.48" ry="18"/>
<text text-anchor="middle" x="588.7" y="-392.3" font-family="Times,serif" font-size="14.00">_raw_spin_unlock_bh</text>
</g>
<!-- cgroup_idr_alloc.constprop.0&#45;&gt;_raw_spin_unlock_bh -->
<g id="edge37" class="edge">
<title>cgroup_idr_alloc.constprop.0&#45;&gt;_raw_spin_unlock_bh</title>
<path fill="none" stroke="black" d="M379.45,-435.03C419.06,-427.61 466.81,-418.66 506.59,-411.2"/>
<polygon fill="black" stroke="black" points="507.34,-414.62 516.52,-409.34 506.05,-407.74 507.34,-414.62"/>
</g>
<!-- idr_preload_end -->
<g id="node31" class="node">
<title>idr_preload_end</title>
<ellipse fill="none" stroke="black" cx="588.7" cy="-504" rx="85.29" ry="18"/>
<text text-anchor="middle" x="588.7" y="-500.3" font-family="Times,serif" font-size="14.00">idr_preload_end</text>
</g>
<!-- cgroup_idr_alloc.constprop.0&#45;&gt;idr_preload_end -->
<g id="edge38" class="edge">
<title>cgroup_idr_alloc.constprop.0&#45;&gt;idr_preload_end</title>
<path fill="none" stroke="black" d="M379.45,-464.97C421.61,-472.87 472.98,-482.5 514.16,-490.22"/>
<polygon fill="black" stroke="black" points="513.65,-493.68 524.12,-492.08 514.94,-486.8 513.65,-493.68"/>
</g>
<!-- list_add_tail_rcu&#45;&gt;__list_add_rcu -->
<g id="edge40" class="edge">
<title>list_add_tail_rcu&#45;&gt;__list_add_rcu</title>
<path fill="none" stroke="black" d="M382.32,-337.77C403.35,-333.76 425.02,-326.8 442.86,-315 466.92,-299.08 453.43,-274.61 478.86,-261 521.91,-237.96 658.51,-233.06 698.54,-261 736.59,-287.56 715.14,-316.85 734.54,-359 772.28,-440.95 827.29,-532.46 854.62,-576.5"/>
<polygon fill="black" stroke="black" points="851.76,-578.52 860.02,-585.15 857.7,-574.82 851.76,-578.52"/>
</g>
<!-- cgroup_idr_replace&#45;&gt;_raw_spin_lock_bh -->
<g id="edge42" class="edge">
<title>cgroup_idr_replace&#45;&gt;_raw_spin_lock_bh</title>
<path fill="none" stroke="black" d="M368.22,-383.13C410.93,-375.13 465.96,-364.82 510.23,-356.52"/>
<polygon fill="black" stroke="black" points="510.9,-359.96 520.08,-354.67 509.61,-353.08 510.9,-359.96"/>
</g>
<!-- cgroup_idr_replace&#45;&gt;_raw_spin_unlock_bh -->
<g id="edge44" class="edge">
<title>cgroup_idr_replace&#45;&gt;_raw_spin_unlock_bh</title>
<path fill="none" stroke="black" d="M397.53,-396C421.18,-396 446.7,-396 471.12,-396"/>
<polygon fill="black" stroke="black" points="471.14,-399.5 481.14,-396 471.14,-392.5 471.14,-399.5"/>
</g>
<!-- idr_replace -->
<g id="node34" class="node">
<title>idr_replace</title>
<ellipse fill="none" stroke="black" stroke-dasharray="5,2" cx="588.7" cy="-288" rx="62.29" ry="18"/>
<text text-anchor="middle" x="588.7" y="-284.3" font-family="Times,serif" font-size="14.00">idr_replace</text>
</g>
<!-- cgroup_idr_replace&#45;&gt;idr_replace -->
<g id="edge43" class="edge">
<title>cgroup_idr_replace&#45;&gt;idr_replace</title>
<path fill="none" stroke="black" d="M391.68,-389.79C409.68,-385.59 427.66,-379.06 442.86,-369 466.92,-353.08 455.27,-331.59 478.86,-315 490.96,-306.49 505.46,-300.65 519.88,-296.65"/>
<polygon fill="black" stroke="black" points="520.96,-299.99 529.81,-294.17 519.26,-293.2 520.96,-299.99"/>
</g>
<!-- atomic_inc -->
<g id="node36" class="node">
<title>atomic_inc</title>
<ellipse fill="none" stroke="black" cx="588.7" cy="-196" rx="59.59" ry="18"/>
<text text-anchor="middle" x="588.7" y="-192.3" font-family="Times,serif" font-size="14.00">atomic_inc</text>
</g>
<!-- online_css&#45;&gt;atomic_inc -->
<g id="edge46" class="edge">
<title>online_css&#45;&gt;atomic_inc</title>
<path fill="none" stroke="black" d="M355.62,-284.66C383.07,-281.27 415.93,-274.48 442.86,-261 462.27,-251.28 459.96,-238.67 478.86,-228 493.85,-219.54 511.28,-213.13 527.75,-208.35"/>
<polygon fill="black" stroke="black" points="529.12,-211.6 537.84,-205.58 527.27,-204.85 529.12,-211.6"/>
</g>
<!-- atomic_inc&#45;&gt;kasan_check_write.isra.0 -->
<g id="edge47" class="edge">
<title>atomic_inc&#45;&gt;kasan_check_write.isra.0</title>
<path fill="none" stroke="black" d="M636.44,-206.92C656.03,-212.22 678.8,-219.33 698.54,-228 749.75,-250.49 804.32,-285.4 838.13,-308.48"/>
<polygon fill="black" stroke="black" points="836.45,-311.58 846.67,-314.37 840.42,-305.81 836.45,-311.58"/>
</g>
<!-- __list_del_entry.isra.0 -->
<g id="node38" class="node">
<title>__list_del_entry.isra.0</title>
<ellipse fill="none" stroke="black" cx="588.7" cy="-142" rx="109.68" ry="18"/>
<text text-anchor="middle" x="588.7" y="-138.3" font-family="Times,serif" font-size="14.00">__list_del_entry.isra.0</text>
</g>
<!-- list_del_rcu&#45;&gt;__list_del_entry.isra.0 -->
<g id="edge49" class="edge">
<title>list_del_rcu&#45;&gt;__list_del_entry.isra.0</title>
<path fill="none" stroke="black" d="M361.31,-230.82C387.71,-227.38 418.08,-220.52 442.86,-207 463.29,-195.86 458.77,-180.72 478.86,-169 486.12,-164.77 494.02,-161.2 502.14,-158.19"/>
<polygon fill="black" stroke="black" points="503.42,-161.45 511.74,-154.9 501.15,-154.83 503.42,-161.45"/>
</g>
<!-- __list_del_entry_valid.isra.0 -->
<g id="node39" class="node">
<title>__list_del_entry_valid.isra.0</title>
<ellipse fill="none" stroke="black" cx="872.33" cy="-169" rx="137.58" ry="18"/>
<text text-anchor="middle" x="872.33" y="-165.3" font-family="Times,serif" font-size="14.00">__list_del_entry_valid.isra.0</text>
</g>
<!-- __list_del_entry.isra.0&#45;&gt;__list_del_entry_valid.isra.0 -->
<g id="edge50" class="edge">
<title>__list_del_entry.isra.0&#45;&gt;__list_del_entry_valid.isra.0</title>
<path fill="none" stroke="black" d="M683.87,-151.03C705.23,-153.08 728.2,-155.28 750.48,-157.41"/>
<polygon fill="black" stroke="black" points="750.38,-160.92 760.67,-158.39 751.05,-153.95 750.38,-160.92"/>
</g>
<!-- __list_del -->
<g id="node40" class="node">
<title>__list_del</title>
<ellipse fill="none" stroke="black" cx="872.33" cy="-115" rx="52.79" ry="18"/>
<text text-anchor="middle" x="872.33" y="-111.3" font-family="Times,serif" font-size="14.00">__list_del</text>
</g>
<!-- __list_del_entry.isra.0&#45;&gt;__list_del -->
<g id="edge51" class="edge">
<title>__list_del_entry.isra.0&#45;&gt;__list_del</title>
<path fill="none" stroke="black" d="M683.87,-132.97C725.97,-128.94 774.33,-124.3 811.39,-120.75"/>
<polygon fill="black" stroke="black" points="811.91,-124.21 821.53,-119.77 811.24,-117.24 811.91,-124.21"/>
</g>
</g>
</svg>
