<?xml version="1.0" encoding="UTF-8" standalone="no"?>
<!DOCTYPE svg PUBLIC "-//W3C//DTD SVG 1.1//EN"
 "http://www.w3.org/Graphics/SVG/1.1/DTD/svg11.dtd">
<!-- Generated by graphviz version 2.40.1 (0)
 -->
<!-- Title: callgraph Pages: 1 -->
<svg width="1438pt" height="300pt"
 viewBox="0.00 0.00 1438.09 300.00" xmlns="http://www.w3.org/2000/svg" xmlns:xlink="http://www.w3.org/1999/xlink">
<g id="graph0" class="graph" transform="scale(1 1) rotate(0) translate(4 296)">
<title>callgraph</title>
<polygon fill="#ffffff" stroke="transparent" points="-4,4 -4,-296 1434.0923,-296 1434.0923,4 -4,4"/>
<!-- kill_css -->
<g id="node1" class="node">
<title>kill_css</title>
<ellipse fill="#0000ff" stroke="#0000ff" cx="1392.3956" cy="-99" rx="37.8943" ry="18"/>
<text text-anchor="middle" x="1392.3956" y="-95.3" font-family="Times,serif" font-size="14.00" fill="#000000">kill_css</text>
</g>
<!-- cgroup1_reconfigure -->
<g id="node2" class="node">
<title>cgroup1_reconfigure</title>
<ellipse fill="none" stroke="#000000" cx="469.1148" cy="-274" rx="83.6854" ry="18"/>
<text text-anchor="middle" x="469.1148" y="-270.3" font-family="Times,serif" font-size="14.00" fill="#000000">cgroup1_reconfigure</text>
</g>
<!-- rebind_subsystems -->
<g id="node3" class="node">
<title>rebind_subsystems</title>
<ellipse fill="none" stroke="#000000" cx="705.297" cy="-207" rx="77.1866" ry="18"/>
<text text-anchor="middle" x="705.297" y="-203.3" font-family="Times,serif" font-size="14.00" fill="#000000">rebind_subsystems</text>
</g>
<!-- cgroup1_reconfigure&#45;&gt;rebind_subsystems -->
<g id="edge1" class="edge">
<title>cgroup1_reconfigure&#45;&gt;rebind_subsystems</title>
<path fill="none" stroke="#000000" d="M519.7818,-259.6268C556.8931,-249.0991 607.3645,-234.7814 646.2945,-223.7378"/>
<polygon fill="#000000" stroke="#000000" points="647.263,-227.1012 655.9282,-221.0049 645.3525,-220.367 647.263,-227.1012"/>
</g>
<!-- cgroup_finalize_control -->
<g id="node4" class="node">
<title>cgroup_finalize_control</title>
<ellipse fill="none" stroke="#000000" cx="952.5283" cy="-126" rx="94.7833" ry="18"/>
<text text-anchor="middle" x="952.5283" y="-122.3" font-family="Times,serif" font-size="14.00" fill="#000000">cgroup_finalize_control</text>
</g>
<!-- rebind_subsystems&#45;&gt;cgroup_finalize_control -->
<g id="edge2" class="edge">
<title>rebind_subsystems&#45;&gt;cgroup_finalize_control</title>
<path fill="none" stroke="#000000" d="M750.3555,-192.2375C791.0136,-178.9168 851.0313,-159.2533 895.1152,-144.8102"/>
<polygon fill="#000000" stroke="#000000" points="896.4154,-148.0673 904.8287,-141.6277 894.236,-141.4152 896.4154,-148.0673"/>
</g>
<!-- cgroup_apply_control_disable -->
<g id="node5" class="node">
<title>cgroup_apply_control_disable</title>
<ellipse fill="none" stroke="#000000" cx="1201.0594" cy="-126" rx="117.7793" ry="18"/>
<text text-anchor="middle" x="1201.0594" y="-122.3" font-family="Times,serif" font-size="14.00" fill="#000000">cgroup_apply_control_disable</text>
</g>
<!-- cgroup_finalize_control&#45;&gt;cgroup_apply_control_disable -->
<g id="edge3" class="edge">
<title>cgroup_finalize_control&#45;&gt;cgroup_apply_control_disable</title>
<path fill="none" stroke="#000000" d="M1047.551,-126C1055.923,-126 1064.4826,-126 1073.066,-126"/>
<polygon fill="#000000" stroke="#000000" points="1073.1432,-129.5001 1083.1432,-126 1073.1432,-122.5001 1073.1432,-129.5001"/>
</g>
<!-- cgroup_apply_control_disable&#45;&gt;kill_css -->
<g id="edge4" class="edge">
<title>cgroup_apply_control_disable&#45;&gt;kill_css</title>
<path fill="none" stroke="#000000" d="M1287.7703,-113.764C1307.9382,-110.918 1328.6417,-107.9965 1346.2533,-105.5113"/>
<polygon fill="#000000" stroke="#000000" points="1346.8253,-108.9653 1356.2381,-104.1023 1345.8471,-102.034 1346.8253,-108.9653"/>
</g>
<!-- cgroup1_get_tree -->
<g id="node6" class="node">
<title>cgroup1_get_tree</title>
<ellipse fill="none" stroke="#000000" cx="71.4937" cy="-274" rx="71.4873" ry="18"/>
<text text-anchor="middle" x="71.4937" y="-270.3" font-family="Times,serif" font-size="14.00" fill="#000000">cgroup1_get_tree</text>
</g>
<!-- cgroup1_root_to_use -->
<g id="node7" class="node">
<title>cgroup1_root_to_use</title>
<ellipse fill="none" stroke="#000000" cx="264.1298" cy="-274" rx="85.2851" ry="18"/>
<text text-anchor="middle" x="264.1298" y="-270.3" font-family="Times,serif" font-size="14.00" fill="#000000">cgroup1_root_to_use</text>
</g>
<!-- cgroup1_get_tree&#45;&gt;cgroup1_root_to_use -->
<g id="edge5" class="edge">
<title>cgroup1_get_tree&#45;&gt;cgroup1_root_to_use</title>
<path fill="none" stroke="#000000" d="M143.2242,-274C151.5279,-274 160.0928,-274 168.6489,-274"/>
<polygon fill="#000000" stroke="#000000" points="168.6728,-277.5001 178.6728,-274 168.6727,-270.5001 168.6728,-277.5001"/>
</g>
<!-- cgroup_setup_root -->
<g id="node8" class="node">
<title>cgroup_setup_root</title>
<ellipse fill="none" stroke="#000000" cx="469.1148" cy="-220" rx="76.8869" ry="18"/>
<text text-anchor="middle" x="469.1148" y="-216.3" font-family="Times,serif" font-size="14.00" fill="#000000">cgroup_setup_root</text>
</g>
<!-- cgroup1_root_to_use&#45;&gt;cgroup_setup_root -->
<g id="edge6" class="edge">
<title>cgroup1_root_to_use&#45;&gt;cgroup_setup_root</title>
<path fill="none" stroke="#000000" d="M317.452,-259.9531C345.1478,-252.6571 379.1213,-243.7073 407.8882,-236.1292"/>
<polygon fill="#000000" stroke="#000000" points="409.049,-239.4429 417.8274,-233.5108 407.2657,-232.6738 409.049,-239.4429"/>
</g>
<!-- cgroup_setup_root&#45;&gt;rebind_subsystems -->
<g id="edge7" class="edge">
<title>cgroup_setup_root&#45;&gt;rebind_subsystems</title>
<path fill="none" stroke="#000000" d="M543.8443,-215.8867C567.9565,-214.5595 594.8696,-213.0782 619.7034,-211.7113"/>
<polygon fill="#000000" stroke="#000000" points="620.0443,-215.1979 629.8368,-211.1535 619.6596,-208.2085 620.0443,-215.1979"/>
</g>
<!-- start_kernel -->
<g id="node9" class="node">
<title>start_kernel</title>
<ellipse fill="none" stroke="#ff0000" cx="71.4937" cy="-220" rx="51.9908" ry="18"/>
<text text-anchor="middle" x="71.4937" y="-216.3" font-family="Times,serif" font-size="14.00" fill="#000000">start_kernel</text>
</g>
<!-- cgroup_init -->
<g id="node10" class="node">
<title>cgroup_init</title>
<ellipse fill="none" stroke="#000000" cx="264.1298" cy="-220" rx="51.1914" ry="18"/>
<text text-anchor="middle" x="264.1298" y="-216.3" font-family="Times,serif" font-size="14.00" fill="#000000">cgroup_init</text>
</g>
<!-- start_kernel&#45;&gt;cgroup_init -->
<g id="edge8" class="edge">
<title>start_kernel&#45;&gt;cgroup_init</title>
<path fill="none" stroke="#000000" d="M123.6238,-220C147.9111,-220 176.9842,-220 202.3665,-220"/>
<polygon fill="#000000" stroke="#000000" points="202.6255,-223.5001 212.6255,-220 202.6254,-216.5001 202.6255,-223.5001"/>
</g>
<!-- cgroup_init&#45;&gt;cgroup_setup_root -->
<g id="edge9" class="edge">
<title>cgroup_init&#45;&gt;cgroup_setup_root</title>
<path fill="none" stroke="#000000" d="M315.5915,-220C335.6461,-220 359.2003,-220 381.7548,-220"/>
<polygon fill="#000000" stroke="#000000" points="382.0312,-223.5001 392.0311,-220 382.0311,-216.5001 382.0312,-223.5001"/>
</g>
<!-- css_free_rwork_fn -->
<g id="node11" class="node">
<title>css_free_rwork_fn</title>
<ellipse fill="none" stroke="#000000" cx="264.1298" cy="-166" rx="76.0865" ry="18"/>
<text text-anchor="middle" x="264.1298" y="-162.3" font-family="Times,serif" font-size="14.00" fill="#000000">css_free_rwork_fn</text>
</g>
<!-- cgroup_destroy_root -->
<g id="node12" class="node">
<title>cgroup_destroy_root</title>
<ellipse fill="none" stroke="#000000" cx="469.1148" cy="-166" rx="83.3857" ry="18"/>
<text text-anchor="middle" x="469.1148" y="-162.3" font-family="Times,serif" font-size="14.00" fill="#000000">cgroup_destroy_root</text>
</g>
<!-- css_free_rwork_fn&#45;&gt;cgroup_destroy_root -->
<g id="edge10" class="edge">
<title>css_free_rwork_fn&#45;&gt;cgroup_destroy_root</title>
<path fill="none" stroke="#000000" d="M340.4586,-166C351.9037,-166 363.8153,-166 375.5687,-166"/>
<polygon fill="#000000" stroke="#000000" points="375.8411,-169.5001 385.8411,-166 375.8411,-162.5001 375.8411,-169.5001"/>
</g>
<!-- cgroup_destroy_root&#45;&gt;rebind_subsystems -->
<g id="edge11" class="edge">
<title>cgroup_destroy_root&#45;&gt;rebind_subsystems</title>
<path fill="none" stroke="#000000" d="M534.2778,-177.312C564.9561,-182.6376 601.6432,-189.0063 633.1575,-194.477"/>
<polygon fill="#000000" stroke="#000000" points="632.7421,-197.9571 643.1934,-196.2191 633.9395,-191.0603 632.7421,-197.9571"/>
</g>
<!-- cgroup_type_write -->
<g id="node13" class="node">
<title>cgroup_type_write</title>
<ellipse fill="none" stroke="#000000" cx="469.1148" cy="-112" rx="77.1866" ry="18"/>
<text text-anchor="middle" x="469.1148" y="-108.3" font-family="Times,serif" font-size="14.00" fill="#000000">cgroup_type_write</text>
</g>
<!-- cgroup_enable_threaded -->
<g id="node14" class="node">
<title>cgroup_enable_threaded</title>
<ellipse fill="none" stroke="#000000" cx="705.297" cy="-126" rx="96.6831" ry="18"/>
<text text-anchor="middle" x="705.297" y="-122.3" font-family="Times,serif" font-size="14.00" fill="#000000">cgroup_enable_threaded</text>
</g>
<!-- cgroup_type_write&#45;&gt;cgroup_enable_threaded -->
<g id="edge12" class="edge">
<title>cgroup_type_write&#45;&gt;cgroup_enable_threaded</title>
<path fill="none" stroke="#000000" d="M544.1688,-116.4489C562.8026,-117.5535 583.0926,-118.7562 602.7935,-119.924"/>
<polygon fill="#000000" stroke="#000000" points="602.8406,-123.4328 613.0302,-120.5308 603.2549,-116.4451 602.8406,-123.4328"/>
</g>
<!-- cgroup_enable_threaded&#45;&gt;cgroup_finalize_control -->
<g id="edge13" class="edge">
<title>cgroup_enable_threaded&#45;&gt;cgroup_finalize_control</title>
<path fill="none" stroke="#000000" d="M802.2998,-126C817.0283,-126 832.2861,-126 847.1819,-126"/>
<polygon fill="#000000" stroke="#000000" points="847.4257,-129.5001 857.4256,-126 847.4256,-122.5001 847.4257,-129.5001"/>
</g>
<!-- cgroup_subtree_control_write -->
<g id="node15" class="node">
<title>cgroup_subtree_control_write</title>
<ellipse fill="none" stroke="#000000" cx="705.297" cy="-72" rx="116.1796" ry="18"/>
<text text-anchor="middle" x="705.297" y="-68.3" font-family="Times,serif" font-size="14.00" fill="#000000">cgroup_subtree_control_write</text>
</g>
<!-- cgroup_subtree_control_write&#45;&gt;cgroup_finalize_control -->
<g id="edge14" class="edge">
<title>cgroup_subtree_control_write&#45;&gt;cgroup_finalize_control</title>
<path fill="none" stroke="#000000" d="M772.854,-86.7557C806.166,-94.0317 846.3687,-102.8127 880.2917,-110.2222"/>
<polygon fill="#000000" stroke="#000000" points="879.6248,-113.6589 890.1414,-112.3735 881.1186,-106.8202 879.6248,-113.6589"/>
</g>
<!-- cgroup_mkdir -->
<g id="node16" class="node">
<title>cgroup_mkdir</title>
<ellipse fill="none" stroke="#000000" cx="952.5283" cy="-72" rx="61.1893" ry="18"/>
<text text-anchor="middle" x="952.5283" y="-68.3" font-family="Times,serif" font-size="14.00" fill="#000000">cgroup_mkdir</text>
</g>
<!-- cgroup_destroy_locked -->
<g id="node17" class="node">
<title>cgroup_destroy_locked</title>
<ellipse fill="none" stroke="#000000" cx="1201.0594" cy="-72" rx="92.8835" ry="18"/>
<text text-anchor="middle" x="1201.0594" y="-68.3" font-family="Times,serif" font-size="14.00" fill="#000000">cgroup_destroy_locked</text>
</g>
<!-- cgroup_mkdir&#45;&gt;cgroup_destroy_locked -->
<g id="edge15" class="edge">
<title>cgroup_mkdir&#45;&gt;cgroup_destroy_locked</title>
<path fill="none" stroke="#000000" d="M1013.6441,-72C1038.9719,-72 1069.0666,-72 1097.6465,-72"/>
<polygon fill="#000000" stroke="#000000" points="1097.6821,-75.5001 1107.682,-72 1097.682,-68.5001 1097.6821,-75.5001"/>
</g>
<!-- cgroup_destroy_locked&#45;&gt;kill_css -->
<g id="edge16" class="edge">
<title>cgroup_destroy_locked&#45;&gt;kill_css</title>
<path fill="none" stroke="#000000" d="M1276.4059,-82.6324C1299.8449,-85.9399 1324.9901,-89.4882 1345.856,-92.4327"/>
<polygon fill="#000000" stroke="#000000" points="1345.6456,-95.9376 1356.0366,-93.8693 1346.6237,-89.0062 1345.6456,-95.9376"/>
</g>
<!-- cgroup_rmdir -->
<g id="node18" class="node">
<title>cgroup_rmdir</title>
<ellipse fill="none" stroke="#000000" cx="952.5283" cy="-18" rx="59.5901" ry="18"/>
<text text-anchor="middle" x="952.5283" y="-14.3" font-family="Times,serif" font-size="14.00" fill="#000000">cgroup_rmdir</text>
</g>
<!-- cgroup_rmdir&#45;&gt;cgroup_destroy_locked -->
<g id="edge17" class="edge">
<title>cgroup_rmdir&#45;&gt;cgroup_destroy_locked</title>
<path fill="none" stroke="#000000" d="M1001.0376,-28.5399C1037.448,-36.4511 1087.8901,-47.411 1129.009,-56.3451"/>
<polygon fill="#000000" stroke="#000000" points="1128.4617,-59.8078 1138.9768,-58.5109 1129.948,-52.9674 1128.4617,-59.8078"/>
</g>
</g>
</svg>
